<svg version="1.1" viewBox="0.0 0.0 292.0 108.0" fill="none" stroke="none" stroke-linecap="square" stroke-miterlimit="10" xmlns:xlink="http://www.w3.org/1999/xlink" xmlns="http://www.w3.org/2000/svg"><clipPath id="p.0"><path d="m0 0l292.0 0l0 108.0l-292.0 0l0 -108.0z" clip-rule="nonzero"/></clipPath><g clip-path="url(#p.0)"><path fill="#000000" fill-opacity="0.0" d="m0 0l292.0 0l0 108.0l-292.0 0z" fill-rule="evenodd"/><path fill="#000000" d="m0 0l292.0 0l0 108.0l-292.0 0z" fill-rule="evenodd"/><path stroke="#000000" stroke-width="1.0" stroke-linejoin="round" stroke-linecap="butt" d="m0 0l292.0 0l0 108.0l-292.0 0z" fill-rule="evenodd"/><defs><linearGradient id="p.1" gradientUnits="userSpaceOnUse" gradientTransform="matrix(16.684190435604325 0.0 0.0 16.684190435604325 0.0 0.0)" spreadMethod="pad" x1="0.42663769012903063" y1="4.314046775632408" x2="17.110828125733356" y2="4.314046775632408"><stop offset="0.0" stop-color="#000000"/><stop offset="1.4E-45" stop-color="#a22c00"/><stop offset="0.12" stop-color="#ff0000"/><stop offset="0.25" stop-color="#ff9900"/><stop offset="0.38" stop-color="#ffff00"/><stop offset="0.51" stop-color="#00ff00"/><stop offset="0.64" stop-color="#00ffff"/><stop offset="0.77" stop-color="#0000ff"/><stop offset="0.9" stop-color="#9900ff"/><stop offset="1.0" stop-color="#ff00ff"/></linearGradient></defs><path fill="url(#p.1)" d="m7.118105 34.559055l278.3622 0l0 37.417324l-278.3622 0z" fill-rule="evenodd"/><path stroke="#000000" stroke-width="1.0" stroke-linejoin="round" stroke-linecap="butt" d="m7.118105 34.559055l278.3622 0l0 37.417324l-278.3622 0z" fill-rule="evenodd"/><path fill="#000000" d="m20.587194 38.12336l250.86615 0l0 30.425194l-250.86615 0z" fill-rule="evenodd"/><path stroke="#000000" stroke-width="1.0" stroke-linejoin="round" stroke-linecap="butt" d="m20.587194 38.12336l250.86615 0l0 30.425194l-250.86615 0z" fill-rule="evenodd"/><path fill="#000000" fill-opacity="0.0" d="m5.367454 0l292.0 0l0 32.34646l-292.0 0z" fill-rule="evenodd"/><path fill="#ffffff" d="m33.694542 26.053228l-11.921875 0l0 -3.609375l3.328125 0l0 -13.140625l-3.328125 0l0 -3.609375l11.921875 0l0 3.609375l-3.34375 0l0 13.140625l3.34375 0l0 3.609375z" fill-rule="nonzero"/><path fill="#ffffff" d="m56.933647 26.053228l-5.0625 0l-8.640625 -13.96875l0 13.96875l-4.8125 0l0 -20.359375l6.28125 0l7.421875 11.65625l0 -11.65625l4.8125 0l0 20.359375z" fill-rule="nonzero"/><path fill="#ffffff" d="m78.87588 19.646978q0 3.015625 -2.546875 4.90625q-2.546875 1.875 -6.921875 1.875q-2.53125 0 -4.421875 -0.4375q-1.875 -0.453125 -3.515625 -1.140625l0 -4.875l0.578125 0q1.625 1.296875 3.640625 2.0q2.015625 0.6875 3.875 0.6875q0.484375 0 1.265625 -0.078125q0.78125 -0.09375 1.265625 -0.28125q0.609375 -0.25 1.0 -0.609375q0.390625 -0.375 0.390625 -1.09375q0 -0.671875 -0.578125 -1.15625q-0.5625 -0.484375 -1.65625 -0.75q-1.140625 -0.265625 -2.421875 -0.5q-1.28125 -0.25 -2.40625 -0.625q-2.5625 -0.828125 -3.703125 -2.25q-1.125 -1.4375 -1.125 -3.546875q0 -2.84375 2.546875 -4.640625q2.5625 -1.8125 6.5625 -1.8125q2.015625 0 3.96875 0.390625q1.96875 0.390625 3.40625 0.984375l0 4.6875l-0.5625 0q-1.234375 -0.984375 -3.015625 -1.640625q-1.78125 -0.671875 -3.640625 -0.671875q-0.65625 0 -1.3125 0.09375q-0.640625 0.09375 -1.25 0.328125q-0.53125 0.203125 -0.921875 0.625q-0.375 0.421875 -0.375 0.953125q0 0.8125 0.609375 1.25q0.625 0.421875 2.328125 0.765625q1.125 0.234375 2.15625 0.453125q1.03125 0.21875 2.21875 0.609375q2.34375 0.765625 3.453125 2.09375q1.109375 1.3125 1.109375 3.40625z" fill-rule="nonzero"/><path fill="#ffffff" d="m98.86303 9.631353l-6.359375 0l0 16.421875l-5.25 0l0 -16.421875l-6.359375 0l0 -3.9375l17.96875 0l0 3.9375z" fill-rule="nonzero"/><path fill="#ffffff" d="m113.48104 26.053228l-11.921875 0l0 -3.609375l3.328125 0l0 -13.140625l-3.328125 0l0 -3.609375l11.921875 0l0 3.609375l-3.34375 0l0 13.140625l3.34375 0l0 3.609375z" fill-rule="nonzero"/><path fill="#ffffff" d="m134.14201 9.631353l-6.3593674 0l0 16.421875l-5.25 0l0 -16.421875l-6.359375 0l0 -3.9375l17.968742 0l0 3.9375z" fill-rule="nonzero"/><path fill="#ffffff" d="m155.57253 18.678228q0 3.78125 -2.296875 5.796875q-2.296875 2.0 -6.765625 2.0q-4.46875 0 -6.765625 -2.0q-2.28125 -2.015625 -2.28125 -5.78125l0 -13.0l5.28125 0l0 12.703125q0 2.125 0.875 3.171875q0.890625 1.03125 2.890625 1.03125q1.96875 0 2.875 -1.0q0.921875 -1.0 0.921875 -3.203125l0 -12.703125l5.265625 0l0 12.984375z" fill-rule="nonzero"/><path fill="#ffffff" d="m176.87218 9.631353l-6.359375 0l0 16.421875l-5.25 0l0 -16.421875l-6.359375 0l0 -3.9375l17.96875 0l0 3.9375z" fill-rule="nonzero"/><path fill="#ffffff" d="m191.49019 26.053228l-11.921875 0l0 -3.609375l3.328125 0l0 -13.140625l-3.328125 0l0 -3.609375l11.921875 0l0 3.609375l-3.34375 0l0 13.140625l3.34375 0l0 3.609375z" fill-rule="nonzero"/><path fill="#ffffff" d="m216.01054 15.881353q0 4.859375 -2.796875 7.734375q-2.78125 2.859375 -7.703125 2.859375q-4.90625 0 -7.703125 -2.859375q-2.78125 -2.875 -2.78125 -7.734375q0 -4.90625 2.78125 -7.75q2.796875 -2.859375 7.703125 -2.859375q4.90625 0 7.703125 2.859375q2.796875 2.84375 2.796875 7.75zm-6.953125 5.15625q0.765625 -0.9375 1.125 -2.203125q0.375 -1.265625 0.375 -2.96875q0 -1.828125 -0.421875 -3.109375q-0.421875 -1.296875 -1.109375 -2.078125q-0.6875 -0.828125 -1.609375 -1.1875q-0.90625 -0.375 -1.890625 -0.375q-1.0 0 -1.890625 0.359375q-0.875 0.34375 -1.609375 1.171875q-0.6875 0.765625 -1.125 2.109375q-0.421875 1.34375 -0.421875 3.125q0 1.8125 0.421875 3.09375q0.421875 1.28125 1.09375 2.09375q0.6875 0.796875 1.59375 1.1875q0.921875 0.375 1.9375 0.375q1.015625 0 1.921875 -0.390625q0.921875 -0.390625 1.609375 -1.203125z" fill-rule="nonzero"/><path fill="#ffffff" d="m238.98598 26.053228l-5.0625 0l-8.640625 -13.96875l0 13.96875l-4.8125 0l0 -20.359375l6.28125 0l7.421875 11.65625l0 -11.65625l4.8125 0l0 20.359375z" fill-rule="nonzero"/><path fill="#ffffff" d="m260.92822 19.646978q0 3.015625 -2.546875 4.90625q-2.5468903 1.875 -6.9218903 1.875q-2.53125 0 -4.421875 -0.4375q-1.875 -0.453125 -3.515625 -1.140625l0 -4.875l0.578125 0q1.625 1.296875 3.640625 2.0q2.015625 0.6875 3.875 0.6875q0.484375 0 1.265625 -0.078125q0.78125 -0.09375 1.265625 -0.28125q0.609375 -0.25 1.0 -0.609375q0.390625 -0.375 0.390625 -1.09375q0 -0.671875 -0.578125 -1.15625q-0.5625 -0.484375 -1.65625 -0.75q-1.140625 -0.265625 -2.421875 -0.5q-1.28125 -0.25 -2.40625 -0.625q-2.5625 -0.828125 -3.703125 -2.25q-1.125 -1.4375 -1.125 -3.546875q0 -2.84375 2.546875 -4.640625q2.5625 -1.8125 6.5625 -1.8125q2.015625 0 3.9687653 0.390625q1.96875 0.390625 3.40625 0.984375l0 4.6875l-0.5625 0q-1.234375 -0.984375 -3.015625 -1.640625q-1.7812653 -0.671875 -3.6406403 -0.671875q-0.65625 0 -1.3125 0.09375q-0.640625 0.09375 -1.25 0.328125q-0.53125 0.203125 -0.921875 0.625q-0.375 0.421875 -0.375 0.953125q0 0.8125 0.609375 1.25q0.625 0.421875 2.328125 0.765625q1.125 0.234375 2.15625 0.453125q1.03125 0.21875 2.2187653 0.609375q2.34375 0.765625 3.453125 2.09375q1.109375 1.3125 1.109375 3.40625z" fill-rule="nonzero"/><path fill="#ffffff" d="m270.57162 16.068853l-5.109375 0l0 -5.375l5.109375 0l0 5.375zm0 9.984375l-5.109375 0l0 -5.375l5.109375 0l0 5.375z" fill-rule="nonzero"/><path fill="#000000" fill-opacity="0.0" d="m48.108925 72.59843l189.19684 0l0 32.34646l-189.19684 0z" fill-rule="evenodd"/><path fill="#ffffff" d="m71.53657 98.09165l0 -18.125l2.46875 0l9.515625 14.234375l0 -14.234375l2.3125 0l0 18.125l-2.46875 0l-9.515625 -14.25l0 14.25l-2.3125 0zm17.588043 -8.828125q0 -4.515625 2.421875 -7.0625q2.4375 -2.5625 6.265625 -2.5625q2.515625 0 4.53125 1.203125q2.015625 1.203125 3.0625 3.34375q1.0625 2.140625 1.0625 4.859375q0 2.765625 -1.109375 4.953125q-1.109375 2.171875 -3.15625 3.296875q-2.046875 1.109375 -4.40625 1.109375q-2.5625 0 -4.578125 -1.234375q-2.015625 -1.25 -3.0625 -3.375q-1.03125 -2.140625 -1.03125 -4.53125zm2.484375 0.03125q0 3.28125 1.75 5.171875q1.765625 1.875 4.421875 1.875q2.71875 0 4.46875 -1.890625q1.75 -1.90625 1.75 -5.40625q0 -2.21875 -0.75 -3.859375q-0.75 -1.65625 -2.1875 -2.5625q-1.4375 -0.921875 -3.234375 -0.921875q-2.546875 0 -4.390625 1.75q-1.828125 1.75 -1.828125 5.84375zm17.982285 8.796875l0 -18.125l8.046875 0q2.421875 0 3.6875 0.484375q1.265625 0.484375 2.015625 1.71875q0.75 1.234375 0.75 2.734375q0 1.9375 -1.25 3.265625q-1.25 1.3125 -3.859375 1.671875q0.953125 0.453125 1.453125 0.90625q1.046875 0.96875 1.984375 2.40625l3.15625 4.9375l-3.015625 0l-2.40625 -3.765625q-1.046875 -1.640625 -1.734375 -2.5q-0.671875 -0.875 -1.21875 -1.21875q-0.53125 -0.34375 -1.078125 -0.484375q-0.421875 -0.078125 -1.34375 -0.078125l-2.78125 0l0 8.046875l-2.40625 0zm2.40625 -10.125l5.15625 0q1.640625 0 2.5625 -0.34375q0.9375 -0.34375 1.421875 -1.09375q0.484375 -0.75 0.484375 -1.625q0 -1.28125 -0.9375 -2.109375q-0.9375 -0.828125 -2.953125 -0.828125l-5.734375 0l0 6.0zm15.775543 10.125l0 -18.125l3.6093674 0l4.296875 12.828125q0.59375 1.796875 0.859375 2.6875q0.3125 -0.984375 0.96875 -2.90625l4.34375 -12.609375l3.234375 0l0 18.125l-2.3125 0l0 -15.171875l-5.28125 15.171875l-2.15625 0l-5.25 -15.4375l0 15.4375l-2.3124924 0zm19.192268 0l6.953125 -18.125l2.59375 0l7.421875 18.125l-2.734375 0l-2.125 -5.484375l-7.578125 0l-1.984375 5.484375l-2.546875 0zm5.21875 -7.4375l6.15625 0l-1.890625 -5.03125q-0.875 -2.28125 -1.296875 -3.75q-0.34375 1.734375 -0.96875 3.453125l-2.0 5.328125zm16.388458 7.4375l0 -15.984375l-5.96875 0l0 -2.140625l14.375 0l0 2.140625l-6.0 0l0 15.984375l-2.40625 0zm11.268311 0l0 -18.125l2.40625 0l0 18.125l-2.40625 0zm11.818222 0l-7.03125 -18.125l2.59375 0l4.71875 13.171875q0.5625 1.578125 0.953125 2.96875q0.421875 -1.484375 0.96875 -2.96875l4.90625 -13.171875l2.453125 0l-7.109375 18.125l-2.453125 0zm11.7530365 0l0 -18.125l13.109375 0l0 2.140625l-10.703125 0l0 5.546875l10.03125 0l0 2.125l-10.03125 0l0 6.171875l11.125 0l0 2.140625l-13.53125 0z" fill-rule="nonzero"/><path fill="#000000" fill-opacity="0.0" d="m7.11811 35.29134l257.63782 0l0 37.417324l-257.63782 0z" fill-rule="evenodd"/><path fill="#ffffff" d="m28.039986 63.32l0 -18.125l2.46875 0l9.515625 14.234375l0 -14.234375l2.3125 0l0 18.125l-2.46875 0l-9.515625 -14.25l0 14.25l-2.3125 0zm17.588043 -8.828125q0 -4.515625 2.421875 -7.0625q2.4375 -2.5625 6.265625 -2.5625q2.515625 0 4.53125 1.203125q2.015625 1.203125 3.0625 3.34375q1.0625 2.140625 1.0625 4.859375q0 2.765625 -1.109375 4.953125q-1.109375 2.171875 -3.15625 3.296875q-2.046875 1.109375 -4.40625 1.109375q-2.5625 0 -4.578125 -1.234375q-2.015625 -1.25 -3.0625 -3.375q-1.03125 -2.140625 -1.03125 -4.53125zm2.484375 0.03125q0 3.28125 1.75 5.171875q1.765625 1.875 4.421875 1.875q2.71875 0 4.46875 -1.890625q1.75 -1.90625 1.75 -5.40625q0 -2.21875 -0.75 -3.859375q-0.75 -1.65625 -2.1875 -2.5625q-1.4375 -0.921875 -3.234375 -0.921875q-2.546875 0 -4.390625 1.75q-1.828125 1.75 -1.828125 5.84375zm17.919785 8.796875l0 -18.125l2.46875 0l9.515625 14.234375l0 -14.234375l2.3125 0l0 18.125l-2.46875 0l-9.515625 -14.25l0 14.25l-2.3125 0zm17.166168 -5.4375l0 -2.25l6.84375 0l0 2.25l-6.84375 0zm9.5594635 5.4375l0 -18.125l2.46875 0l9.515625 14.234375l0 -14.234375l2.3125 0l0 18.125l-2.46875 0l-9.515625 -14.25l0 14.25l-2.3125 0zm17.588043 -8.828125q0 -4.515625 2.421875 -7.0625q2.4375 -2.5625 6.265625 -2.5625q2.515625 0 4.53125 1.203125q2.015625 1.203125 3.0625 3.34375q1.0625 2.140625 1.0625 4.859375q0 2.765625 -1.109375 4.953125q-1.109375 2.171875 -3.15625 3.296875q-2.046875 1.109375 -4.40625 1.109375q-2.5625 0 -4.578125 -1.234375q-2.015625 -1.25 -3.0625 -3.375q-1.03125 -2.140625 -1.03125 -4.53125zm2.484375 0.03125q0 3.28125 1.75 5.171875q1.765625 1.875 4.421875 1.875q2.71875 0 4.46875 -1.890625q1.75 -1.90625 1.75 -5.40625q0 -2.21875 -0.75 -3.859375q-0.75 -1.65625 -2.1875 -2.5625q-1.4375 -0.921875 -3.234375 -0.921875q-2.546875 0 -4.390625 1.75q-1.828125 1.75 -1.828125 5.84375zm17.982277 8.796875l0 -18.125l8.046875 0q2.421875 0 3.6875 0.484375q1.265625 0.484375 2.015625 1.71875q0.75 1.234375 0.75 2.734375q0 1.9375 -1.25 3.265625q-1.25 1.3125 -3.859375 1.671875q0.953125 0.453125 1.453125 0.90625q1.046875 0.96875 1.984375 2.40625l3.15625 4.9375l-3.015625 0l-2.40625 -3.765625q-1.046875 -1.640625 -1.734375 -2.5q-0.671875 -0.875 -1.21875 -1.21875q-0.53125 -0.34375 -1.078125 -0.484375q-0.421875 -0.078125 -1.34375 -0.078125l-2.78125 0l0 8.046875l-2.40625 0zm2.40625 -10.125l5.15625 0q1.640625 0 2.5625 -0.34375q0.9375 -0.34375 1.421875 -1.09375q0.484375 -0.75 0.484375 -1.625q0 -1.28125 -0.9375 -2.109375q-0.9375 -0.828125 -2.953125 -0.828125l-5.734375 0l0 6.0zm15.775543 10.125l0 -18.125l3.609375 0l4.296875 12.828125q0.59375 1.796875 0.859375 2.6875q0.3125 -0.984375 0.96875 -2.90625l4.34375 -12.609375l3.234375 0l0 18.125l-2.3125 0l0 -15.171875l-5.28125 15.171875l-2.15625 0l-5.25 -15.4375l0 15.4375l-2.3125 0zm19.192276 0l6.953125 -18.125l2.59375 0l7.421875 18.125l-2.734375 0l-2.125 -5.484375l-7.578125 0l-1.984375 5.484375l-2.546875 0zm5.21875 -7.4375l6.15625 0l-1.890625 -5.03125q-0.875 -2.28125 -1.296875 -3.75q-0.34375 1.734375 -0.96875 3.453125l-2.0 5.328125zm16.388458 7.4375l0 -15.984375l-5.96875 0l0 -2.140625l14.375 0l0 2.140625l-6.0 0l0 15.984375l-2.40625 0zm11.268311 0l0 -18.125l2.40625 0l0 18.125l-2.40625 0zm11.818222 0l-7.03125 -18.125l2.59375 0l4.71875 13.171875q0.5625 1.578125 0.953125 2.96875q0.421875 -1.484375 0.96875 -2.96875l4.90625 -13.171875l2.453125 0l-7.109375 18.125l-2.453125 0zm11.7530365 0l0 -18.125l13.109375 0l0 2.140625l-10.703125 0l0 5.546875l10.03125 0l0 2.125l-10.03125 0l0 6.171875l11.125 0l0 2.140625l-13.53125 0z" fill-rule="nonzero"/><path fill="#ff00ff" d="m248.94357 45.429134l15.811035 0l0 15.811024l-15.811035 0z" fill-rule="evenodd"/><path stroke="#000000" stroke-width="1.0" stroke-linejoin="round" stroke-linecap="butt" d="m248.94357 45.429134l15.811035 0l0 15.811024l-15.811035 0z" fill-rule="evenodd"/><path fill="#ffffff" d="m248.94357 80.86614l15.811035 0l0 15.81102l-15.811035 0z" fill-rule="evenodd"/><path stroke="#000000" stroke-width="1.0" stroke-linejoin="round" stroke-linecap="butt" d="m248.94357 80.86614l15.811035 0l0 15.81102l-15.811035 0z" fill-rule="evenodd"/></g></svg>