<svg version="1.1" viewBox="0.0 0.0 332.83989501312334 103.23622047244095" fill="none" stroke="none" stroke-linecap="square" stroke-miterlimit="10" xmlns:xlink="http://www.w3.org/1999/xlink" xmlns="http://www.w3.org/2000/svg"><clipPath id="p.0"><path d="m0 0l332.8399 0l0 103.23622l-332.8399 0l0 -103.23622z" clip-rule="nonzero"/></clipPath><g clip-path="url(#p.0)"><path fill="#000000" fill-opacity="0.0" d="m0 0l332.8399 0l0 103.23622l-332.8399 0z" fill-rule="evenodd"/><path fill="#000000" d="m-0.24671917 0l332.6299 0l0 102.64567l-332.6299 0z" fill-rule="evenodd"/><path stroke="#000000" stroke-width="1.0" stroke-linejoin="round" stroke-linecap="butt" d="m-0.24671917 0l332.6299 0l0 102.64567l-332.6299 0z" fill-rule="evenodd"/><path fill="#000000" fill-opacity="0.0" d="m-7.375328E-5 -0.10236221l274.4882 0l0 28.598425l-274.4882 0z" fill-rule="evenodd"/><path fill="#000000" fill-opacity="0.0" d="m-7.375328E-5 -6.7805715l231.6836 0l0 39.01953l-231.6836 0l0 -39.01953z" fill-rule="nonzero"/><path fill="#ffffff" d="m13.078052 7.9206004q-0.703125 0 -3.890625 -0.390625q-0.1875 2.5156245 -0.1875 6.6874995l-0.015625 6.140626q1.8125 -0.046875 3.703125 -0.046875q0.828125 0 1.359375 0.546875q0.546875 0.546875 0.546875 1.3125q0 0.765625 -0.546875 1.3125q-0.53125 0.53125 -1.359375 0.53125q-0.765625 0 -2.296875 0.046875q-1.53125 0.03125 -2.296875 0.03125q-0.9062505 0 -2.7187505 0.234375q-1.7968748 0.25 -2.6874998 0.25q-0.8281251 0 -1.3750001 -0.546875q-0.53124994 -0.546875 -0.53124994 -1.3125q0 -0.765625 0.53124994 -1.3125q0.546875 -0.546875 1.3750001 -0.546875q0.921875 0 2.4374998 -0.203125q-0.03125 -1.609375 -0.03125 -6.171876q0 -3.71875 0.28125 -7.0937495l-2.9687498 0.078125q-0.8125001 0 -1.3750001 -0.53125q-0.546875 -0.53125 -0.546875 -1.328125q0 -0.8125 0.546875 -1.3125q0.5 -0.46875 1.2343751 -0.53125q1.203125 -0.109375 4.1875 -0.109375q2.6875005 0 6.9062505 0.5625q1.6875 0.234375 1.6875 1.890625q0 0.875 -0.6875 1.390625q-0.5625 0.421875 -1.28125 0.421875zm23.830078 12.796875q0 0.671875 -0.21875 2.15625q-0.28125 1.765625 -2.0 1.765625q-0.953125 0 -2.15625 -1.078125q-5.265627 -4.75 -11.890627 -13.312501q-0.078125 3.5625 -0.078125 4.359375q0 1.09375 0.046875 3.265626q0.046875 2.171875 0.046875 3.25q0 4.03125 -1.96875 4.03125q-1.0 0 -1.59375 -0.609375q-0.53125 -0.546875 -0.53125 -1.328125q0 -0.546875 0.078125 -1.65625q0.09375 -1.109375 0.09375 -1.65625q0 -0.8125 0.046875 -2.421875q0.0625 -1.609376 0.0625 -2.421876q0 -0.859375 -0.046875 -2.59375q-0.03125 -1.734375 -0.03125 -2.59375q0 -0.828125 -0.171875 -2.4531245q-0.15625 -1.625 -0.15625 -2.4375q0 -0.828125 0.703125 -1.46875q0.703125 -0.640625 1.609375 -0.640625q1.0 0 2.234375 1.75q6.203125 8.859375 12.250002 14.453125q0.015625 -0.4375 0.015625 -2.078125q0 -6.750001 -0.140625 -9.09375q-0.03125 -0.40625 -0.171875 -1.484375q-0.140625 -0.953125 -0.140625 -1.5q0 -1.890625 2.0 -1.890625q2.21875 0 2.21875 6.8749995q0 0.15625 -0.015625 2.171875q-0.09375 6.937501 -0.09375 8.640626zm8.966797 4.1875q-3.484375 0 -5.46875 -1.546875q-1.6875 -1.28125 -1.6875 -2.953125q0 -0.875 0.515625 -1.4375q0.53125 -0.5625 1.4375 -0.5625q1.234375 0 1.8125 1.25q0.78125 1.6875 3.515625 1.6875q2.359375 0 4.5625 -1.03125q2.28125 -1.046875 2.28125 -2.3125q0 -1.71875 -1.421875 -2.265626q-1.015625 -0.390625 -4.0625 -0.46875q-2.359375 -0.046875 -4.234375 -0.875q-2.53125 -1.140625 -2.484375 -3.265625q0.03125 -2.65625 2.828125 -4.8749995q2.8125 -2.234375 6.1875 -2.234375q1.34375 0 3.3125 0.625q2.4375 0.765625 2.4375 1.765625q0 0.703125 -0.484375 1.25q-0.546875 0.6093745 -1.40625 0.6093745q-0.640625 0 -1.921875 -0.26562452q-1.28125 -0.28125 -1.9375 -0.28125q-1.765625 0.015625 -3.34375 0.8593745q-1.640625 0.84375 -1.640625 1.84375q0 0.515625 0.5 0.859375q0.5 0.328125 1.484375 0.46875q1.75 0.09375 3.5 0.1875q3.03125 0.234375 4.796875 1.703125q1.9375 1.640625 1.9375 4.546876q0 3.53125 -4.015625 5.34375q-3.0625 1.375 -7.0 1.375zm29.320309 -17.21875q-1.0625 0 -3.328125 -0.15625q-2.171875 -0.140625 -3.3125 -0.140625q0.046875 1.5624995 0.359375 5.5624995q0.296875 3.515626 0.296875 5.578126q0 0.453125 0.09375 1.375q0.09375 0.921875 0.09375 1.375q0 1.03125 -0.4375 1.859375q-0.5625 1.046875 -1.59375 1.046875q-0.75 0 -1.328125 -0.484375q-0.640625 -0.53125 -0.640625 -1.328125q0 -0.203125 0.0625 -0.59375q0.0625 -0.390625 0.0625 -0.59375q0 -0.625 -0.09375 -1.890625q-0.078125 -1.28125 -0.078125 -1.921875q0 -1.828126 -0.28125 -4.953126q-0.328125 -3.609375 -0.390625 -4.9687495l-0.7031212 0q-3.046875 0 -4.84375 -0.4375q-1.515625 -0.375 -1.515625 -1.796875q0 -0.6875 0.484375 -1.25q0.578125 -0.671875 1.515625 -0.609375q0.46875 0.03125 2.171875 0.234375q1.34375 0.15625 2.1875 0.15625q0.8281212 0 2.4843712 -0.03125q1.671875 -0.03125 2.5 -0.03125q1.046875 0 3.125 0.15625q2.078125 0.140625 3.109375 0.140625q0.828125 0 1.375 0.53125q0.546875 0.53125 0.546875 1.3125q0 0.78125 -0.546875 1.328125q-0.546875 0.53125 -1.375 0.53125zm14.841797 0.234375q-0.703125 0 -3.890625 -0.390625q-0.1875 2.5156245 -0.1875 6.6874995l-0.015625 6.140626q1.8125 -0.046875 3.703125 -0.046875q0.828125 0 1.359375 0.546875q0.546875 0.546875 0.546875 1.3125q0 0.765625 -0.546875 1.3125q-0.53125 0.53125 -1.359375 0.53125q-0.765625 0 -2.296875 0.046875q-1.53125 0.03125 -2.296875 0.03125q-0.90625 0 -2.71875 0.234375q-1.796875 0.25 -2.6875 0.25q-0.828125 0 -1.375 -0.546875q-0.53125 -0.546875 -0.53125 -1.3125q0 -0.765625 0.53125 -1.3125q0.546875 -0.546875 1.375 -0.546875q0.921875 0 2.4375 -0.203125q-0.03125 -1.609375 -0.03125 -6.171876q0 -3.71875 0.28125 -7.0937495l-2.96875 0.078125q-0.8125 0 -1.375 -0.53125q-0.546875 -0.53125 -0.546875 -1.328125q0 -0.8125 0.546875 -1.3125q0.5 -0.46875 1.234375 -0.53125q1.203125 -0.109375 4.1875 -0.109375q2.6875 0 6.90625 0.5625q1.6875 0.234375 1.6875 1.890625q0 0.875 -0.6875 1.390625q-0.5625 0.421875 -1.28125 0.421875zm19.939453 -0.234375q-1.0625 0 -3.328125 -0.15625q-2.171875 -0.140625 -3.3125 -0.140625q0.046875 1.5624995 0.359375 5.5624995q0.296875 3.515626 0.296875 5.578126q0 0.453125 0.09375 1.375q0.09375 0.921875 0.09375 1.375q0 1.03125 -0.4375 1.859375q-0.5625 1.046875 -1.59375 1.046875q-0.75 0 -1.328125 -0.484375q-0.640625 -0.53125 -0.640625 -1.328125q0 -0.203125 0.0625 -0.59375q0.0625 -0.390625 0.0625 -0.59375q0 -0.625 -0.09375 -1.890625q-0.078125 -1.28125 -0.078125 -1.921875q0 -1.828126 -0.28125 -4.953126q-0.328125 -3.609375 -0.390625 -4.9687495l-0.703125 0q-3.046875 0 -4.84375 -0.4375q-1.515625 -0.375 -1.515625 -1.796875q0 -0.6875 0.484375 -1.25q0.578125 -0.671875 1.515625 -0.609375q0.46875 0.03125 2.171875 0.234375q1.34375 0.15625 2.1875 0.15625q0.828125 0 2.484375 -0.03125q1.671875 -0.03125 2.5 -0.03125q1.046875 0 3.125 0.15625q2.078125 0.140625 3.109375 0.140625q0.828125 0 1.375 0.53125q0.546875 0.53125 0.546875 1.3125q0 0.78125 -0.546875 1.328125q-0.546875 0.53125 -1.375 0.53125zm17.544922 14.03125q-1.0 1.34375 -2.40625 2.25q-1.71875 1.09375 -3.546875 1.09375q-3.484375 0 -5.171875 -1.34375q-3.59375 -2.828125 -3.59375 -9.828126q0 -0.671875 0.0625 -2.0q0.078125 -1.328125 0.078125 -1.984375q0 -0.546875 0.03125 -1.59375q0.03125 -1.0624995 0.03125 -1.5937495q0 -1.09375 0.390625 -2.0625q0.53125 -1.296875 1.484375 -1.296875q0.75 0 1.328125 0.5q0.625 0.515625 0.625 1.34375q0 0.765625 -0.015625 2.359375q-0.015625 1.5781245 -0.015625 2.3593745q0 0.65625 -0.078125 1.984375q-0.0625 1.328125 -0.0625 1.984375q0 2.125001 0.5 3.937501q0.5625 2.171875 1.671875 3.03125q0.578125 0.453125 2.734375 0.484375q3.609375 0.046875 4.875 -6.156251q0.65625 -3.203125 0.65625 -9.015625q0 -0.765625 0.453125 -1.484375q0.609375 -0.9375 1.75 -0.9375q0.921875 0 1.390625 0.6875q0.359375 0.5 0.359375 1.109375q0 5.4062495 -0.515625 8.421875q-0.765625 4.671876 -3.015625 7.750001zm22.56836 -14.03125q-1.0625 0 -3.328125 -0.15625q-2.171875 -0.140625 -3.3125 -0.140625q0.046875 1.5624995 0.359375 5.5624995q0.296875 3.515626 0.296875 5.578126q0 0.453125 0.09375 1.375q0.09375 0.921875 0.09375 1.375q0 1.03125 -0.4375 1.859375q-0.5625 1.046875 -1.59375 1.046875q-0.75 0 -1.328125 -0.484375q-0.640625 -0.53125 -0.640625 -1.328125q0 -0.203125 0.0625 -0.59375q0.0625 -0.390625 0.0625 -0.59375q0 -0.625 -0.09375 -1.890625q-0.078125 -1.28125 -0.078125 -1.921875q0 -1.828126 -0.28125 -4.953126q-0.328125 -3.609375 -0.390625 -4.9687495l-0.703125 0q-3.046875 0 -4.84375 -0.4375q-1.515625 -0.375 -1.515625 -1.796875q0 -0.6875 0.484375 -1.25q0.578125 -0.671875 1.515625 -0.609375q0.46875 0.03125 2.171875 0.234375q1.34375 0.15625 2.1875 0.15625q0.828125 0 2.484375 -0.03125q1.671875 -0.03125 2.5 -0.03125q1.046875 0 3.125 0.15625q2.078125 0.140625 3.109375 0.140625q0.828125 0 1.375 0.53125q0.546875 0.53125 0.546875 1.3125q0 0.78125 -0.546875 1.328125q-0.546875 0.53125 -1.375 0.53125zm14.841797 0.234375q-0.703125 0 -3.890625 -0.390625q-0.1875 2.5156245 -0.1875 6.6874995l-0.015625 6.140626q1.8125 -0.046875 3.703125 -0.046875q0.828125 0 1.359375 0.546875q0.546875 0.546875 0.546875 1.3125q0 0.765625 -0.546875 1.3125q-0.53125 0.53125 -1.359375 0.53125q-0.765625 0 -2.296875 0.046875q-1.53125 0.03125 -2.296875 0.03125q-0.90625 0 -2.71875 0.234375q-1.796875 0.25 -2.6875 0.25q-0.828125 0 -1.375 -0.546875q-0.53125 -0.546875 -0.53125 -1.3125q0 -0.765625 0.53125 -1.3125q0.546875 -0.546875 1.375 -0.546875q0.921875 0 2.4375 -0.203125q-0.03125 -1.609375 -0.03125 -6.171876q0 -3.71875 0.28125 -7.0937495l-2.96875 0.078125q-0.8125 0 -1.375 -0.53125q-0.546875 -0.53125 -0.546875 -1.328125q0 -0.8125 0.546875 -1.3125q0.5 -0.46875 1.234375 -0.53125q1.203125 -0.109375 4.1875 -0.109375q2.6875 0 6.90625 0.5625q1.6875 0.234375 1.6875 1.890625q0 0.875 -0.6875 1.390625q-0.5625 0.421875 -1.28125 0.421875zm12.970703 16.984375q-4.046875 0 -6.890625 -2.3125q-3.03125 -2.5 -3.03125 -6.453125q0 -4.640626 2.90625 -8.46875q3.265625 -4.3125 8.234375 -4.3125q4.765625 0 7.140625 2.1875q2.390625 2.1875 2.390625 6.5781245q0 4.656251 -2.6875 8.421876q-3.09375 4.359375 -8.0625 4.359375zm1.21875 -17.84375q-3.046875 0 -5.234375 2.9531245q-2.03125 2.765625 -2.03125 6.125001q0 2.28125 1.765625 3.703125q1.6875 1.359375 4.28125 1.359375q3.0 0 5.015625 -2.953125q1.84375 -2.687501 1.84375 -6.125001q0 -2.875 -1.28125 -3.984375q-1.234375 -1.0781245 -4.359375 -1.0781245zm31.99414 13.65625q0 0.671875 -0.21875 2.15625q-0.28125 1.765625 -2.0 1.765625q-0.953125 0 -2.15625 -1.078125q-5.265625 -4.75 -11.890625 -13.312501q-0.078125 3.5625 -0.078125 4.359375q0 1.09375 0.046875 3.265626q0.046875 2.171875 0.046875 3.25q0 4.03125 -1.96875 4.03125q-1.0 0 -1.59375 -0.609375q-0.53125 -0.546875 -0.53125 -1.328125q0 -0.546875 0.078125 -1.65625q0.09375 -1.109375 0.09375 -1.65625q0 -0.8125 0.046875 -2.421875q0.0625 -1.609376 0.0625 -2.421876q0 -0.859375 -0.046875 -2.59375q-0.03125 -1.734375 -0.03125 -2.59375q0 -0.828125 -0.171875 -2.4531245q-0.15625 -1.625 -0.15625 -2.4375q0 -0.828125 0.703125 -1.46875q0.703125 -0.640625 1.609375 -0.640625q1.0 0 2.234375 1.75q6.203125 8.859375 12.25 14.453125q0.015625 -0.4375 0.015625 -2.078125q0 -6.750001 -0.140625 -9.09375q-0.03125 -0.40625 -0.171875 -1.484375q-0.140625 -0.953125 -0.140625 -1.5q0 -1.890625 2.0 -1.890625q2.21875 0 2.21875 6.8749995q0 0.15625 -0.015625 2.171875q-0.09375 6.937501 -0.09375 8.640626zm8.966797 4.1875q-3.484375 0 -5.46875 -1.546875q-1.6875 -1.28125 -1.6875 -2.953125q0 -0.875 0.515625 -1.4375q0.53125 -0.5625 1.4375 -0.5625q1.234375 0 1.8125 1.25q0.78125 1.6875 3.515625 1.6875q2.359375 0 4.5625 -1.03125q2.28125 -1.046875 2.28125 -2.3125q0 -1.71875 -1.421875 -2.265626q-1.015625 -0.390625 -4.0625 -0.46875q-2.359375 -0.046875 -4.234375 -0.875q-2.53125 -1.140625 -2.484375 -3.265625q0.03125 -2.65625 2.828125 -4.8749995q2.8125 -2.234375 6.1875 -2.234375q1.34375 0 3.3125 0.625q2.4375 0.765625 2.4375 1.765625q0 0.703125 -0.484375 1.25q-0.546875 0.6093745 -1.40625 0.6093745q-0.640625 0 -1.921875 -0.26562452q-1.28125 -0.28125 -1.9375 -0.28125q-1.765625 0.015625 -3.34375 0.8593745q-1.640625 0.84375 -1.640625 1.84375q0 0.515625 0.5 0.859375q0.5 0.328125 1.484375 0.46875q1.75 0.09375 3.5 0.1875q3.03125 0.234375 4.796875 1.703125q1.9375 1.640625 1.9375 4.546876q0 3.53125 -4.015625 5.34375q-3.0625 1.375 -7.0 1.375z" fill-rule="nonzero"/><path fill="#010000" fill-opacity="0.0" d="m231.68352 -6.7805715l12.140625 0l0 39.01953l-12.140625 0l0 -39.01953z" fill-rule="nonzero"/><path fill="#ffffff" d="m237.88664 13.13935q-0.84375 0 -1.40625 -0.5q-0.546875 -0.515625 -0.546875 -1.296875q0 -0.140625 -0.0625 -0.453125q-0.0625 -0.328125 -0.0625 -0.484375q0 -0.765625 0.578125 -1.265625q0.59375 -0.5 1.390625 -0.5q2.0625 0 2.0625 2.703125q0 0.78125 -0.5625 1.296875q-0.546875 0.5 -1.390625 0.5zm0.21875 9.250001q-2.109375 0 -2.109375 -3.1875q0 -0.765625 0.609375 -1.296875q0.59375 -0.46875 1.375 -0.46875q2.078125 0 2.078125 3.15625q0 0.78125 -0.5625 1.296875q-0.546875 0.5 -1.390625 0.5z" fill-rule="nonzero"/><path fill="#010000" fill-opacity="0.0" d="m243.82414 -6.7805715l0 0l0 39.01953l0 0l0 -39.01953z" fill-rule="nonzero"/><path fill="#ffffff" d="m-7.375328E-5 25.89685l243.82422 0l0 2.5200005l-243.82422 0l0 -2.5200005z" fill-rule="nonzero"/><path fill="#ff00ff" d="m303.64566 36.307087l25.7323 0l0 25.732285l-25.7323 0z" fill-rule="evenodd"/><path stroke="#000000" stroke-width="1.0" stroke-linejoin="round" stroke-linecap="butt" d="m303.64566 36.307087l25.7323 0l0 25.732285l-25.7323 0z" fill-rule="evenodd"/><path fill="#ffffff" d="m303.64566 73.72179l25.7323 0l0 25.732285l-25.7323 0z" fill-rule="evenodd"/><path stroke="#000000" stroke-width="1.0" stroke-linejoin="round" stroke-linecap="butt" d="m303.64566 73.72179l25.7323 0l0 25.732285l-25.7323 0z" fill-rule="evenodd"/><path fill="#000000" fill-opacity="0.0" d="m6.1417326E-5 67.879265l244.0 0l0 37.41732l-244.0 0z" fill-rule="evenodd"/><path fill="#ffffff" d="m40.609436 93.10855q0 0.671875 -0.21875 2.15625q-0.28125 1.765625 -2.0 1.765625q-0.953125 0 -2.15625 -1.078125q-5.265625 -4.75 -11.890625 -13.3125q-0.078125 3.5625 -0.078125 4.359375q0 1.09375 0.046875 3.265625q0.046875 2.171875 0.046875 3.25q0 4.03125 -1.96875 4.03125q-1.0 0 -1.59375 -0.609375q-0.53125 -0.546875 -0.53125 -1.328125q0 -0.546875 0.078125 -1.65625q0.09375 -1.109375 0.09375 -1.65625q0 -0.8125 0.046875 -2.421875q0.0625 -1.609375 0.0625 -2.421875q0 -0.859375 -0.046875 -2.59375q-0.03125 -1.734375 -0.03125 -2.59375q0 -0.828125 -0.171875 -2.453125q-0.15625 -1.625 -0.15625 -2.4375q0 -0.828125 0.703125 -1.46875q0.703125 -0.640625 1.609375 -0.640625q1.0 0 2.234375 1.75q6.203125 8.859375 12.25 14.453125q0.015625 -0.4375 0.015625 -2.078125q0 -6.75 -0.140625 -9.09375q-0.03125 -0.40625 -0.171875 -1.484375q-0.140625 -0.953125 -0.140625 -1.5q0 -1.890625 2.0 -1.890625q2.21875 0 2.21875 6.875q0 0.15625 -0.015625 2.171875q-0.09375 6.9375 -0.09375 8.640625zm11.904297 4.1875q-4.046875 0 -6.890625 -2.3125q-3.03125 -2.5 -3.03125 -6.453125q0 -4.640625 2.90625 -8.46875q3.265625 -4.3125 8.234375 -4.3125q4.765625 0 7.140625 2.1875q2.390625 2.1875 2.390625 6.578125q0 4.65625 -2.6875 8.421875q-3.09375 4.359375 -8.0625 4.359375zm1.21875 -17.84375q-3.046875 0 -5.234375 2.953125q-2.03125 2.765625 -2.03125 6.125q0 2.28125 1.765625 3.703125q1.6875 1.359375 4.28125 1.359375q3.0 0 5.015625 -2.953125q1.84375 -2.6875 1.84375 -6.125q0 -2.875 -1.28125 -3.984375q-1.234375 -1.078125 -4.359375 -1.078125zm25.77539 17.1875q-0.734375 0 -1.34375 -0.578125q-4.140625 -3.890625 -9.109375 -5.390625q0.15625 3.984375 0.15625 4.421875q0 0.765625 -0.546875 1.3125q-0.546875 0.546875 -1.375 0.546875q-0.8125 0 -1.359375 -0.546875q-0.546875 -0.546875 -0.546875 -1.3125q0 -1.03125 0.015625 -3.078125q0.03125 -2.046875 0.03125 -3.0625l0.03125 -11.03125q0 -0.890625 0.53125 -1.625q0.703125 -0.921875 1.921875 -0.828125q3.328125 0.25 3.40625 0.265625q1.921875 0.21875 3.25 0.90625q5.84375 2.9375 5.84375 7.296875q0 1.78125 -1.234375 3.15625q-1.21875 1.375 -3.65625 2.3125q3.625 2.03125 5.453125 4.140625q0.484375 0.546875 0.484375 1.21875q0 0.765625 -0.578125 1.328125q-0.578125 0.546875 -1.375 0.546875zm-8.765625 -17.203125q-0.109375 -0.015625 -1.59375 -0.109375l0 7.25q0.34375 0.015625 0.609375 0.015625q3.34375 0 4.953125 -0.828125q0.703125 -0.359375 1.28125 -0.9375q0.578125 -0.59375 0.578125 -0.890625q0 -1.53125 -1.9375 -2.953125q-1.84375 -1.34375 -3.890625 -1.546875zm18.533203 6.234375q-0.609375 2.203125 -1.71875 6.6875q-0.265625 1.53125 -0.515625 3.0625q-0.5625 1.953125 -2.0625 1.953125q-0.9375 0 -1.484375 -0.640625q-0.46875 -0.546875 -0.46875 -1.3125q0 -2.203125 0.9375 -5.390625q1.421875 -4.78125 1.53125 -5.296875q0.390625 -2.109375 0.796875 -4.203125q0.625 -2.90625 1.328125 -3.859375q0.71875 -0.96875 1.8125 -0.96875q1.25 0 1.84375 1.25q0.546875 1.1875 1.171875 4.875q0.59375 3.5625 1.796875 7.6875q1.546875 -4.0625 2.890625 -8.921875l0.765625 -3.140625q0.734375 -1.953125 2.28125 -1.953125q1.5 0 2.21875 2.265625q0.296875 0.921875 0.640625 3.421875q0.796875 5.8125 2.0 9.96875q1.21875 4.234375 1.21875 4.59375q0 0.8125 -0.640625 1.359375q-0.609375 0.5 -1.359375 0.5q-1.484375 0 -2.21875 -2.140625l-0.765625 -3.3125q-0.65625 -2.453125 -1.421875 -7.0625q-0.609375 1.828125 -2.03125 5.75l-0.828125 2.515625q-0.5 1.5 -1.046875 2.453125q-0.71875 1.265625 -2.03125 1.265625q-1.28125 0 -1.96875 -1.515625l-0.765625 -2.546875q-1.0625 -3.5 -1.90625 -7.34375zm34.578125 11.203125q-1.078125 -0.03125 -2.171875 -2.546875q-0.734375 -1.609375 -1.25 -3.71875q-1.015625 0.15625 -3.3125 0.3125q-2.15625 0.140625 -3.296875 0.34375q-0.640625 1.515625 -2.1875 4.53125q-0.609375 0.984375 -1.671875 0.984375q-0.75 0 -1.359375 -0.515625q-0.59375 -0.515625 -0.59375 -1.296875q0 -0.703125 1.984375 -4.734375q-0.1875 -0.421875 -0.15625 -0.796875q0.046875 -0.65625 1.328125 -1.015625q1.9375 -3.375 4.3125 -6.984375q3.421875 -5.171875 4.21875 -5.171875q1.5 0 2.0 1.8125q0.28125 1.46875 0.875 4.390625q0.828125 3.9375 2.03125 9.015625q0.09375 0.375 0.703125 1.796875q0.484375 1.171875 0.484375 1.765625q0 0.796875 -0.59375 1.328125q-0.59375 0.53125 -1.34375 0.5zm-5.109375 -14.03125q-1.0625 1.84375 -2.9375 5.0q0.625 -0.140625 1.921875 -0.21875q1.53125 -0.09375 1.921875 -0.15625q-0.328125 -1.78125 -0.90625 -4.625zm26.214844 -2.765625q-1.0625 0 -3.328125 -0.15625q-2.171875 -0.140625 -3.3125 -0.140625q0.046875 1.5625 0.359375 5.5625q0.296875 3.515625 0.296875 5.578125q0 0.453125 0.09375 1.375q0.09375 0.921875 0.09375 1.375q0 1.03125 -0.4375 1.859375q-0.5625 1.046875 -1.59375 1.046875q-0.75 0 -1.328125 -0.484375q-0.640625 -0.53125 -0.640625 -1.328125q0 -0.203125 0.0625 -0.59375q0.0625 -0.390625 0.0625 -0.59375q0 -0.625 -0.09375 -1.890625q-0.078125 -1.28125 -0.078125 -1.921875q0 -1.828125 -0.28125 -4.953125q-0.328125 -3.609375 -0.390625 -4.96875l-0.703125 0q-3.046875 0 -4.84375 -0.4375q-1.515625 -0.375 -1.515625 -1.796875q0 -0.6875 0.484375 -1.25q0.578125 -0.671875 1.515625 -0.609375q0.46875 0.03125 2.171875 0.234375q1.34375 0.15625 2.1875 0.15625q0.828125 0 2.484375 -0.03125q1.671875 -0.03125 2.5 -0.03125q1.046875 0 3.125 0.15625q2.078125 0.140625 3.109375 0.140625q0.828125 0 1.375 0.53125q0.546875 0.53125 0.546875 1.3125q0 0.78125 -0.546875 1.328125q-0.546875 0.53125 -1.375 0.53125zm14.841797 0.234375q-0.703125 0 -3.890625 -0.390625q-0.1875 2.515625 -0.1875 6.6875l-0.015625 6.140625q1.8125 -0.046875 3.703125 -0.046875q0.828125 0 1.359375 0.546875q0.546875 0.546875 0.546875 1.3125q0 0.765625 -0.546875 1.3125q-0.53125 0.53125 -1.359375 0.53125q-0.765625 0 -2.296875 0.046875q-1.53125 0.03125 -2.296875 0.03125q-0.90625 0 -2.71875 0.234375q-1.796875 0.25 -2.6875 0.25q-0.828125 0 -1.375 -0.546875q-0.53125 -0.546875 -0.53125 -1.3125q0 -0.765625 0.53125 -1.3125q0.546875 -0.546875 1.375 -0.546875q0.921875 0 2.4375 -0.203125q-0.03125 -1.609375 -0.03125 -6.171875q0 -3.71875 0.28125 -7.09375l-2.96875 0.078125q-0.8125 0 -1.375 -0.53125q-0.546875 -0.53125 -0.546875 -1.328125q0 -0.8125 0.546875 -1.3125q0.5 -0.46875 1.234375 -0.53125q1.203125 -0.109375 4.1875 -0.109375q2.6875 0 6.90625 0.5625q1.6875 0.234375 1.6875 1.890625q0 0.875 -0.6875 1.390625q-0.5625 0.421875 -1.28125 0.421875zm10.892578 10.40625q2.0625 -5.1875 3.203125 -8.265625q0.59375 -1.625 1.1875 -3.265625q0.796875 -1.9375 1.734375 -3.0q0.609375 -0.6875 1.46875 -0.6875q0.78125 0 1.359375 0.546875q0.59375 0.53125 0.59375 1.3125q0 0.546875 -0.359375 1.078125q-0.734375 1.0625 -1.359375 2.5625q-0.03125 0.0625 -1.015625 2.71875q-1.21875 3.15625 -3.65625 9.46875q-0.625 1.65625 -1.546875 3.3125q-0.59375 1.0625 -1.703125 1.0625q-1.421875 0 -1.984375 -1.34375q-1.671875 -3.96875 -3.703125 -11.46875q-0.5625 -1.84375 -1.140625 -3.6875q-0.765625 -2.578125 -0.765625 -3.578125q0 -0.796875 0.609375 -1.328125q0.5625 -0.5 1.328125 -0.5q1.3125 0 1.84375 1.375q0.265625 1.1875 0.546875 2.359375q0.4375 1.484375 1.296875 4.4375q1.0625 3.90625 2.0625 6.890625zm25.378906 -11.78125q-0.265625 0 -0.5625 -0.078125q-2.21875 -0.609375 -4.3125 -0.609375q-1.03125 0 -2.203125 0.171875q-1.171875 0.15625 -2.5 0.484375q0 1.828125 -0.125 5.40625q0.765625 -0.046875 5.34375 -0.5q2.609375 -0.265625 3.3125 -0.265625q0.8125 0 1.375 0.515625q0.578125 0.515625 0.578125 1.359375q0 1.625 -1.734375 1.84375q-1.09375 0.078125 -3.265625 0.28125q-1.9375 0.21875 -5.859375 0.53125q-0.09375 1.734375 -0.09375 2.796875q0 2.6875 0.3125 3.046875q0.15625 0.1875 1.734375 0.1875q0.84375 0 2.546875 -0.046875q1.71875 -0.046875 2.5625 -0.046875q0.265625 0 0.796875 -0.078125q0.546875 -0.078125 0.796875 -0.078125q0.796875 0 1.359375 0.453125q0.640625 0.5 0.640625 1.421875q0 1.53125 -1.59375 1.828125q-1.375 0.265625 -5.671875 0.265625q-4.46875 0 -5.8125 -1.203125q-1.5 -1.328125 -1.5 -5.75q0 -1.828125 0.265625 -5.5q0.265625 -3.671875 0.265625 -5.484375q0 -0.484375 -0.140625 -1.421875q-0.125 -0.9375 -0.125 -1.421875q0 -2.078125 1.90625 -2.078125q0.609375 0 1.109375 0.34375q1.59375 -0.390625 3.015625 -0.578125q1.4375 -0.203125 2.703125 -0.203125q3.453125 0 5.515625 0.78125q1.25 0.484375 1.25 1.734375q0 0.71875 -0.484375 1.265625q-0.546875 0.625 -1.40625 0.625z" fill-rule="nonzero"/><path fill="#000000" fill-opacity="0.0" d="m203.36482 86.58793l92.47246 0" fill-rule="evenodd"/><path stroke="#ffffff" stroke-width="3.0" stroke-linejoin="round" stroke-linecap="butt" stroke-dasharray="3.0,9.0" d="m203.36482 86.58793l92.47246 0" fill-rule="evenodd"/><defs><linearGradient id="p.1" gradientUnits="userSpaceOnUse" gradientTransform="matrix(17.28683446063192 0.0 0.0 17.28683446063192 0.0 0.0)" spreadMethod="pad" x1="0.11083639998121578" y1="3.9267970037180597" x2="17.39767086061314" y2="3.9267970037180597"><stop offset="0.0" stop-color="#000000"/><stop offset="0.09" stop-color="#a22c00"/><stop offset="0.19" stop-color="#ff0000"/><stop offset="0.3" stop-color="#ff9900"/><stop offset="0.41" stop-color="#ffff00"/><stop offset="0.52" stop-color="#00ff00"/><stop offset="0.66" stop-color="#00ffff"/><stop offset="0.79" stop-color="#0000ff"/><stop offset="0.93" stop-color="#9900ff"/><stop offset="1.0" stop-color="#ff00ff"/></linearGradient></defs><path fill="url(#p.1)" d="m1.9160105 30.464567l298.83466 0l0 37.41732l-298.83466 0z" fill-rule="evenodd"/><path stroke="#000000" stroke-width="1.0" stroke-linejoin="round" stroke-linecap="butt" d="m1.9160105 30.464567l298.83466 0l0 37.41732l-298.83466 0z" fill-rule="evenodd"/><path fill="#000000" d="m14.238845 34.02887l279.81104 0l0 30.425201l-279.81104 0z" fill-rule="evenodd"/><path stroke="#000000" stroke-width="1.0" stroke-linejoin="round" stroke-linecap="butt" d="m14.238845 34.02887l279.81104 0l0 30.425201l-279.81104 0z" fill-rule="evenodd"/><path fill="#000000" fill-opacity="0.0" d="m0 30.532808l310.4882 0l0 37.417328l-310.4882 0z" fill-rule="evenodd"/><path fill="#ffffff" d="m40.609375 55.762096q0 0.671875 -0.21875 2.15625q-0.28125 1.765625 -2.0 1.765625q-0.953125 0 -2.15625 -1.078125q-5.265625 -4.75 -11.890625 -13.3125q-0.078125 3.5625 -0.078125 4.359375q0 1.09375 0.046875 3.265625q0.046875 2.171875 0.046875 3.25q0 4.03125 -1.96875 4.03125q-1.0 0 -1.59375 -0.609375q-0.53125 -0.546875 -0.53125 -1.328125q0 -0.546875 0.078125 -1.65625q0.09375 -1.109375 0.09375 -1.65625q0 -0.8125 0.046875 -2.421875q0.0625 -1.609375 0.0625 -2.421875q0 -0.859375 -0.046875 -2.59375q-0.03125 -1.734375 -0.03125 -2.59375q0 -0.828125 -0.171875 -2.453125q-0.15625 -1.625 -0.15625 -2.4375q0 -0.828125 0.703125 -1.46875q0.703125 -0.640625 1.609375 -0.640625q1.0 0 2.234375 1.75q6.203125 8.859375 12.25 14.453125q0.015625 -0.4375 0.015625 -2.078125q0 -6.75 -0.140625 -9.09375q-0.03125 -0.40625 -0.171875 -1.484375q-0.140625 -0.953125 -0.140625 -1.5q0 -1.890625 2.0 -1.890625q2.21875 0 2.21875 6.875q0 0.15625 -0.015625 2.171875q-0.09375 6.9375 -0.09375 8.640625zm11.904297 4.1875q-4.046875 0 -6.890625 -2.3125q-3.03125 -2.5 -3.03125 -6.453125q0 -4.640625 2.90625 -8.46875q3.265625 -4.3125 8.234375 -4.3125q4.765625 0 7.140625 2.1875q2.390625 2.1875 2.390625 6.578125q0 4.65625 -2.6875 8.421875q-3.09375 4.359375 -8.0625 4.359375zm1.21875 -17.84375q-3.046875 0 -5.234375 2.953125q-2.03125 2.765625 -2.03125 6.125q0 2.28125 1.765625 3.703125q1.6875 1.359375 4.28125 1.359375q3.0 0 5.015625 -2.953125q1.84375 -2.6875 1.84375 -6.125q0 -2.875 -1.28125 -3.984375q-1.234375 -1.078125 -4.359375 -1.078125zm31.99414 13.65625q0 0.671875 -0.21875 2.15625q-0.28125 1.765625 -2.0 1.765625q-0.953125 0 -2.15625 -1.078125q-5.265625 -4.75 -11.890625 -13.3125q-0.078125 3.5625 -0.078125 4.359375q0 1.09375 0.046875 3.265625q0.046875 2.171875 0.046875 3.25q0 4.03125 -1.96875 4.03125q-1.0 0 -1.59375 -0.609375q-0.53125 -0.546875 -0.53125 -1.328125q0 -0.546875 0.078125 -1.65625q0.09375 -1.109375 0.09375 -1.65625q0 -0.8125 0.046875 -2.421875q0.0625 -1.609375 0.0625 -2.421875q0 -0.859375 -0.046875 -2.59375q-0.03125 -1.734375 -0.03125 -2.59375q0 -0.828125 -0.171875 -2.453125q-0.15625 -1.625 -0.15625 -2.4375q0 -0.828125 0.703125 -1.46875q0.703125 -0.640625 1.609375 -0.640625q1.0 0 2.234375 1.75q6.203125 8.859375 12.25 14.453125q0.015625 -0.4375 0.015625 -2.078125q0 -6.75 -0.140625 -9.09375q-0.03125 -0.40625 -0.171875 -1.484375q-0.140625 -0.953125 -0.140625 -1.5q0 -1.890625 2.0 -1.890625q2.21875 0 2.21875 6.875q0 0.15625 -0.015625 2.171875q-0.09375 6.9375 -0.09375 8.640625zm13.107422 -2.53125q-1.890625 0.140625 -6.71875 0.140625q-0.84375 0 -1.484375 -0.390625q-0.75 -0.46875 -0.75 -1.25q0 -0.796875 0.75 -1.265625q0.640625 -0.390625 1.484375 -0.390625q1.078125 0 3.234375 -0.0625q2.171875 -0.0625 3.25 -0.0625q0.84375 0 1.484375 0.34375q0.828125 0.4375 0.828125 1.296875q0 1.484375 -2.078125 1.640625zm26.746094 2.53125q0 0.671875 -0.21875 2.15625q-0.28125 1.765625 -2.0 1.765625q-0.953125 0 -2.15625 -1.078125q-5.265625 -4.75 -11.890625 -13.3125q-0.078125 3.5625 -0.078125 4.359375q0 1.09375 0.046875 3.265625q0.046875 2.171875 0.046875 3.25q0 4.03125 -1.96875 4.03125q-1.0 0 -1.59375 -0.609375q-0.53125 -0.546875 -0.53125 -1.328125q0 -0.546875 0.078125 -1.65625q0.09375 -1.109375 0.09375 -1.65625q0 -0.8125 0.046875 -2.421875q0.0625 -1.609375 0.0625 -2.421875q0 -0.859375 -0.046875 -2.59375q-0.03125 -1.734375 -0.03125 -2.59375q0 -0.828125 -0.171875 -2.453125q-0.15625 -1.625 -0.15625 -2.4375q0 -0.828125 0.703125 -1.46875q0.703125 -0.640625 1.609375 -0.640625q1.0 0 2.234375 1.75q6.203125 8.859375 12.25 14.453125q0.015625 -0.4375 0.015625 -2.078125q0 -6.75 -0.140625 -9.09375q-0.03125 -0.40625 -0.171875 -1.484375q-0.140625 -0.953125 -0.140625 -1.5q0 -1.890625 2.0 -1.890625q2.21875 0 2.21875 6.875q0 0.15625 -0.015625 2.171875q-0.09375 6.9375 -0.09375 8.640625zm11.904297 4.1875q-4.046875 0 -6.890625 -2.3125q-3.03125 -2.5 -3.03125 -6.453125q0 -4.640625 2.90625 -8.46875q3.265625 -4.3125 8.234375 -4.3125q4.765625 0 7.140625 2.1875q2.390625 2.1875 2.390625 6.578125q0 4.65625 -2.6875 8.421875q-3.09375 4.359375 -8.0625 4.359375zm1.21875 -17.84375q-3.046875 0 -5.234375 2.953125q-2.03125 2.765625 -2.03125 6.125q0 2.28125 1.765625 3.703125q1.6875 1.359375 4.28125 1.359375q3.0 0 5.015625 -2.953125q1.84375 -2.6875 1.84375 -6.125q0 -2.875 -1.28125 -3.984375q-1.234375 -1.078125 -4.359375 -1.078125zm25.77539 17.1875q-0.734375 0 -1.34375 -0.578125q-4.140625 -3.890625 -9.109375 -5.390625q0.15625 3.984375 0.15625 4.421875q0 0.765625 -0.546875 1.3125q-0.546875 0.546875 -1.375 0.546875q-0.8125 0 -1.359375 -0.546875q-0.546875 -0.546875 -0.546875 -1.3125q0 -1.03125 0.015625 -3.078125q0.03125 -2.046875 0.03125 -3.0625l0.03125 -11.03125q0 -0.890625 0.53125 -1.625q0.703125 -0.921875 1.921875 -0.828125q3.328125 0.25 3.40625 0.265625q1.921875 0.21875 3.25 0.90625q5.84375 2.9375 5.84375 7.296875q0 1.78125 -1.234375 3.15625q-1.21875 1.375 -3.65625 2.3125q3.625 2.03125 5.453125 4.140625q0.484375 0.546875 0.484375 1.21875q0 0.765625 -0.578125 1.328125q-0.578125 0.546875 -1.375 0.546875zm-8.765625 -17.203125q-0.109375 -0.015625 -1.59375 -0.109375l0 7.25q0.34375 0.015625 0.609375 0.015625q3.34375 0 4.953125 -0.828125q0.703125 -0.359375 1.28125 -0.9375q0.578125 -0.59375 0.578125 -0.890625q0 -1.53125 -1.9375 -2.953125q-1.84375 -1.34375 -3.890625 -1.546875zm18.533203 6.234375q-0.609375 2.203125 -1.71875 6.6875q-0.265625 1.53125 -0.515625 3.0625q-0.5625 1.953125 -2.0625 1.953125q-0.9375 0 -1.484375 -0.640625q-0.46875 -0.546875 -0.46875 -1.3125q0 -2.203125 0.9375 -5.390625q1.421875 -4.78125 1.53125 -5.296875q0.390625 -2.109375 0.796875 -4.203125q0.625 -2.90625 1.328125 -3.859375q0.71875 -0.96875 1.8125 -0.96875q1.25 0 1.84375 1.25q0.546875 1.1875 1.171875 4.875q0.59375 3.5625 1.796875 7.6875q1.546875 -4.0625 2.890625 -8.921875l0.765625 -3.140625q0.734375 -1.953125 2.28125 -1.953125q1.5 0 2.21875 2.265625q0.296875 0.921875 0.640625 3.421875q0.796875 5.8125 2.0 9.96875q1.21875 4.234375 1.21875 4.59375q0 0.8125 -0.640625 1.359375q-0.609375 0.5 -1.359375 0.5q-1.484375 0 -2.21875 -2.140625l-0.765625 -3.3125q-0.65625 -2.453125 -1.421875 -7.0625q-0.609375 1.828125 -2.03125 5.75l-0.828125 2.515625q-0.5 1.5 -1.046875 2.453125q-0.71875 1.265625 -2.03125 1.265625q-1.28125 0 -1.96875 -1.515625l-0.765625 -2.546875q-1.0625 -3.5 -1.90625 -7.34375zm34.578125 11.203125q-1.078125 -0.03125 -2.171875 -2.546875q-0.734375 -1.609375 -1.25 -3.71875q-1.015625 0.15625 -3.3125 0.3125q-2.15625 0.140625 -3.296875 0.34375q-0.640625 1.515625 -2.1875 4.53125q-0.609375 0.984375 -1.671875 0.984375q-0.75 0 -1.359375 -0.515625q-0.59375 -0.515625 -0.59375 -1.296875q0 -0.703125 1.984375 -4.734375q-0.1875 -0.421875 -0.15625 -0.796875q0.046875 -0.65625 1.328125 -1.015625q1.9375 -3.375 4.3125 -6.984375q3.421875 -5.171875 4.21875 -5.171875q1.5 0 2.0 1.8125q0.28125 1.46875 0.875 4.390625q0.828125 3.9375 2.03125 9.015625q0.09375 0.375 0.703125 1.796875q0.484375 1.171875 0.484375 1.765625q0 0.796875 -0.59375 1.328125q-0.59375 0.53125 -1.34375 0.5zm-5.109375 -14.03125q-1.0625 1.84375 -2.9375 5.0q0.625 -0.140625 1.921875 -0.21875q1.53125 -0.09375 1.921875 -0.15625q-0.328125 -1.78125 -0.90625 -4.625zm26.214844 -2.765625q-1.0625 0 -3.328125 -0.15625q-2.171875 -0.140625 -3.3125 -0.140625q0.046875 1.5625 0.359375 5.5625q0.296875 3.515625 0.296875 5.578125q0 0.453125 0.09375 1.375q0.09375 0.921875 0.09375 1.375q0 1.03125 -0.4375 1.859375q-0.5625 1.046875 -1.59375 1.046875q-0.75 0 -1.328125 -0.484375q-0.640625 -0.53125 -0.640625 -1.328125q0 -0.203125 0.0625 -0.59375q0.0625 -0.390625 0.0625 -0.59375q0 -0.625 -0.09375 -1.890625q-0.078125 -1.28125 -0.078125 -1.921875q0 -1.828125 -0.28125 -4.953125q-0.328125 -3.609375 -0.390625 -4.96875l-0.703125 0q-3.046875 0 -4.84375 -0.4375q-1.515625 -0.375 -1.515625 -1.796875q0 -0.6875 0.484375 -1.25q0.578125 -0.671875 1.515625 -0.609375q0.46875 0.03125 2.171875 0.234375q1.34375 0.15625 2.1875 0.15625q0.828125 0 2.484375 -0.03125q1.671875 -0.03125 2.5 -0.03125q1.046875 0 3.125 0.15625q2.078125 0.140625 3.109375 0.140625q0.828125 0 1.375 0.53125q0.546875 0.53125 0.546875 1.3125q0 0.78125 -0.546875 1.328125q-0.546875 0.53125 -1.375 0.53125zm14.841797 0.234375q-0.703125 0 -3.890625 -0.390625q-0.1875 2.515625 -0.1875 6.6875l-0.015625 6.140625q1.8125 -0.046875 3.703125 -0.046875q0.828125 0 1.359375 0.546875q0.546875 0.546875 0.546875 1.3125q0 0.765625 -0.546875 1.3125q-0.53125 0.53125 -1.359375 0.53125q-0.765625 0 -2.296875 0.046875q-1.53125 0.03125 -2.296875 0.03125q-0.90625 0 -2.71875 0.234375q-1.796875 0.25 -2.6875 0.25q-0.828125 0 -1.375 -0.546875q-0.53125 -0.546875 -0.53125 -1.3125q0 -0.765625 0.53125 -1.3125q0.546875 -0.546875 1.375 -0.546875q0.921875 0 2.4375 -0.203125q-0.03125 -1.609375 -0.03125 -6.171875q0 -3.71875 0.28125 -7.09375l-2.96875 0.078125q-0.8125 0 -1.375 -0.53125q-0.546875 -0.53125 -0.546875 -1.328125q0 -0.8125 0.546875 -1.3125q0.5 -0.46875 1.234375 -0.53125q1.203125 -0.109375 4.1875 -0.109375q2.6875 0 6.90625 0.5625q1.6875 0.234375 1.6875 1.890625q0 0.875 -0.6875 1.390625q-0.5625 0.421875 -1.28125 0.421875zm10.892578 10.40625q2.0625 -5.1875 3.203125 -8.265625q0.59375 -1.625 1.1875 -3.265625q0.796875 -1.9375 1.734375 -3.0q0.609375 -0.6875 1.46875 -0.6875q0.78125 0 1.359375 0.546875q0.59375 0.53125 0.59375 1.3125q0 0.546875 -0.359375 1.078125q-0.734375 1.0625 -1.359375 2.5625q-0.03125 0.0625 -1.015625 2.71875q-1.21875 3.15625 -3.65625 9.46875q-0.625 1.65625 -1.546875 3.3125q-0.59375 1.0625 -1.703125 1.0625q-1.421875 0 -1.984375 -1.34375q-1.671875 -3.96875 -3.703125 -11.46875q-0.5625 -1.84375 -1.140625 -3.6875q-0.765625 -2.578125 -0.765625 -3.578125q0 -0.796875 0.609375 -1.328125q0.5625 -0.5 1.328125 -0.5q1.3125 0 1.84375 1.375q0.265625 1.1875 0.546875 2.359375q0.4375 1.484375 1.296875 4.4375q1.0625 3.90625 2.0625 6.890625zm25.378906 -11.78125q-0.265625 0 -0.5625 -0.078125q-2.21875 -0.609375 -4.3125 -0.609375q-1.03125 0 -2.203125 0.171875q-1.171875 0.15625 -2.5 0.484375q0 1.828125 -0.125 5.40625q0.765625 -0.046875 5.34375 -0.5q2.609375 -0.265625 3.3125 -0.265625q0.8125 0 1.375 0.515625q0.578125 0.515625 0.578125 1.359375q0 1.625 -1.734375 1.84375q-1.09375 0.078125 -3.265625 0.28125q-1.9375 0.21875 -5.859375 0.53125q-0.09375 1.734375 -0.09375 2.796875q0 2.6875 0.3125 3.046875q0.15625 0.1875 1.734375 0.1875q0.84375 0 2.546875 -0.046875q1.71875 -0.046875 2.5625 -0.046875q0.265625 0 0.796875 -0.078125q0.546875 -0.078125 0.796875 -0.078125q0.796875 0 1.359375 0.453125q0.640625 0.5 0.640625 1.421875q0 1.53125 -1.59375 1.828125q-1.375 0.265625 -5.671875 0.265625q-4.46875 0 -5.8125 -1.203125q-1.5 -1.328125 -1.5 -5.75q0 -1.828125 0.265625 -5.5q0.265625 -3.671875 0.265625 -5.484375q0 -0.484375 -0.140625 -1.421875q-0.125 -0.9375 -0.125 -1.421875q0 -2.078125 1.90625 -2.078125q0.609375 0 1.109375 0.34375q1.59375 -0.390625 3.015625 -0.578125q1.4375 -0.203125 2.703125 -0.203125q3.453125 0 5.515625 0.78125q1.25 0.484375 1.25 1.734375q0 0.71875 -0.484375 1.265625q-0.546875 0.625 -1.40625 0.625z" fill-rule="nonzero"/></g></svg>