<svg version="1.1" viewBox="0.0 0.0 274.00787401574803 108.0" fill="none" stroke="none" stroke-linecap="square" stroke-miterlimit="10" xmlns:xlink="http://www.w3.org/1999/xlink" xmlns="http://www.w3.org/2000/svg"><clipPath id="p.0"><path d="m0 0l274.00787 0l0 108.0l-274.00787 0l0 -108.0z" clip-rule="nonzero"/></clipPath><g clip-path="url(#p.0)"><path fill="#000000" fill-opacity="0.0" d="m0 0l274.00787 0l0 108.0l-274.00787 0z" fill-rule="evenodd"/><path fill="#000000" d="m-0.32020998 0l274.01575 0l0 108.0l-274.01575 0z" fill-rule="evenodd"/><path stroke="#000000" stroke-width="1.0" stroke-linejoin="round" stroke-linecap="butt" d="m-0.32020998 0l274.01575 0l0 108.0l-274.01575 0z" fill-rule="evenodd"/><path fill="#000000" fill-opacity="0.0" d="m0.5026249 -0.001312336l284.50394 0l0 32.34646l-284.50394 0z" fill-rule="evenodd"/><path fill="#ffffff" d="m22.294006 26.051916l-11.921875 0l0 -3.609375l3.328125 0l0 -13.140625l-3.328125 0l0 -3.609375l11.921875 0l0 3.609375l-3.34375 0l0 13.140625l3.34375 0l0 3.609375z" fill-rule="nonzero"/><path fill="#ffffff" d="m45.53311 26.051916l-5.0625 0l-8.640625 -13.96875l0 13.96875l-4.8125 0l0 -20.359375l6.28125 0l7.421875 11.65625l0 -11.65625l4.8125 0l0 20.359375z" fill-rule="nonzero"/><path fill="#ffffff" d="m67.11597 9.630041l-6.359375 0l0 16.421875l-5.25 0l0 -16.421875l-6.359375 0l0 -3.9375l17.96875 0l0 3.9375z" fill-rule="nonzero"/><path fill="#ffffff" d="m85.45273 26.051916l-14.734375 0l0 -20.359375l14.734375 0l0 3.9375l-9.5 0l0 3.515625l8.8125 0l0 3.9375l-8.8125 0l0 5.03125l9.5 0l0 3.9375z" fill-rule="nonzero"/><path fill="#ffffff" d="m101.72113 11.926916q0 -0.765625 -0.3125 -1.3125q-0.3125 -0.546875 -1.078125 -0.859375q-0.53125 -0.21875 -1.25 -0.265625q-0.703125 -0.046875 -1.65625 -0.046875l-1.890625 0l0 5.484375l1.609375 0q1.25 0 2.09375 -0.125q0.859375 -0.125 1.4375 -0.5625q0.546875 -0.421875 0.796875 -0.9375q0.25 -0.515625 0.25 -1.375zm8.1875 14.125l-6.40625 0l-5.5625 -7.46875l-2.40625 0l0 7.46875l-5.234375 0l0 -20.359375l8.8125 0q1.796875 0 3.09375 0.203125q1.3125 0.203125 2.4375 0.890625q1.15625 0.6875 1.828125 1.78125q0.671875 1.078125 0.671875 2.71875q0 2.25 -1.046875 3.671875q-1.046875 1.421875 -2.984375 2.375l6.796875 8.71875z" fill-rule="nonzero"/><path fill="#ffffff" d="m131.46805 26.051916l-5.421875 0l-1.40625 -4.109375l-7.546875 0l-1.40625 4.109375l-5.296875 0l7.515625 -20.359375l6.046875 0l7.515625 20.359375zm-8.109375 -7.84375l-2.5 -7.3125l-2.5 7.3125l5.0 0z" fill-rule="nonzero"/><path fill="#ffffff" d="m144.0509 26.442541q-2.265625 0 -4.1875 -0.65625q-1.921875 -0.671875 -3.296875 -2.0q-1.390625 -1.328125 -2.15625 -3.3125q-0.75 -1.984375 -0.75 -4.578125q0 -2.421875 0.71875 -4.390625q0.734375 -1.96875 2.109375 -3.375q1.328125 -1.359375 3.28125 -2.09375q1.96875 -0.734375 4.296875 -0.734375q1.28125 0 2.3125 0.140625q1.03125 0.140625 1.90625 0.375q0.921875 0.265625 1.65625 0.59375q0.75 0.3125 1.3125 0.578125l0 4.9375l-0.59375 0q-0.390625 -0.328125 -0.96875 -0.78125q-0.578125 -0.453125 -1.3125 -0.890625q-0.75 -0.4375 -1.625 -0.734375q-0.875 -0.296875 -1.875 -0.296875q-1.109375 0 -2.109375 0.34375q-1.0 0.34375 -1.84375 1.15625q-0.8125 0.78125 -1.3125 2.0625q-0.5 1.28125 -0.5 3.125q0 1.90625 0.53125 3.203125q0.546875 1.28125 1.375 2.015625q0.828125 0.75 1.859375 1.078125q1.03125 0.3125 2.015625 0.3125q0.96875 0 1.90625 -0.28125q0.9375 -0.296875 1.71875 -0.78125q0.671875 -0.390625 1.25 -0.84375q0.578125 -0.453125 0.9375 -0.78125l0.546875 0l0 4.859375q-0.765625 0.34375 -1.46875 0.65625q-0.6875 0.296875 -1.453125 0.515625q-1.0 0.28125 -1.875 0.421875q-0.875 0.15625 -2.40625 0.15625z" fill-rule="nonzero"/><path fill="#ffffff" d="m171.50095 9.630041l-6.359375 0l0 16.421875l-5.25 0l0 -16.421875l-6.359375 0l0 -3.9375l17.96875 0l0 3.9375z" fill-rule="nonzero"/><path fill="#ffffff" d="m186.11896 26.051916l-11.921875 0l0 -3.609375l3.328125 0l0 -13.140625l-3.328125 0l0 -3.609375l11.921875 0l0 3.609375l-3.34375 0l0 13.140625l3.34375 0l0 3.609375z" fill-rule="nonzero"/><path fill="#ffffff" d="m210.63931 15.880041q0 4.859375 -2.796875 7.734375q-2.78125 2.859375 -7.703125 2.859375q-4.90625 0 -7.703125 -2.859375q-2.78125 -2.875 -2.78125 -7.734375q0 -4.90625 2.78125 -7.75q2.796875 -2.859375 7.703125 -2.859375q4.90625 0 7.703125 2.859375q2.796875 2.84375 2.796875 7.75zm-6.953125 5.15625q0.765625 -0.9375 1.125 -2.203125q0.375 -1.265625 0.375 -2.96875q0 -1.828125 -0.421875 -3.109375q-0.421875 -1.296875 -1.109375 -2.078125q-0.6875 -0.828125 -1.609375 -1.1875q-0.90625 -0.375 -1.890625 -0.375q-1.0 0 -1.890625 0.359375q-0.875 0.34375 -1.609375 1.171875q-0.6875 0.765625 -1.125 2.109375q-0.421875 1.34375 -0.421875 3.125q0 1.8125 0.421875 3.09375q0.421875 1.28125 1.09375 2.09375q0.6875 0.796875 1.59375 1.1875q0.921875 0.375 1.9375 0.375q1.015625 0 1.921875 -0.390625q0.921875 -0.390625 1.609375 -1.203125z" fill-rule="nonzero"/><path fill="#ffffff" d="m233.61475 26.051916l-5.0625 0l-8.640625 -13.96875l0 13.96875l-4.8125 0l0 -20.359375l6.28125 0l7.421875 11.65625l0 -11.65625l4.8125 0l0 20.359375z" fill-rule="nonzero"/><path fill="#ffffff" d="m255.55698 19.645666q0 3.015625 -2.546875 4.90625q-2.546875 1.875 -6.921875 1.875q-2.53125 0 -4.421875 -0.4375q-1.875 -0.453125 -3.515625 -1.140625l0 -4.875l0.578125 0q1.625 1.296875 3.640625 2.0q2.015625 0.6875 3.875 0.6875q0.484375 0 1.265625 -0.078125q0.78125 -0.09375 1.265625 -0.28125q0.609375 -0.25 1.0 -0.609375q0.390625 -0.375 0.390625 -1.09375q0 -0.671875 -0.578125 -1.15625q-0.5625 -0.484375 -1.65625 -0.75q-1.140625 -0.265625 -2.421875 -0.5q-1.28125 -0.25 -2.40625 -0.625q-2.5625 -0.828125 -3.703125 -2.25q-1.125 -1.4375 -1.125 -3.546875q0 -2.84375 2.546875 -4.640625q2.5625 -1.8125 6.5625 -1.8125q2.015625 0 3.96875 0.390625q1.96875 0.390625 3.40625 0.984375l0 4.6875l-0.5625 0q-1.234375 -0.984375 -3.015625 -1.640625q-1.78125 -0.671875 -3.640625 -0.671875q-0.65625 0 -1.3125 0.09375q-0.640625 0.09375 -1.25 0.328125q-0.53125 0.203125 -0.921875 0.625q-0.375 0.421875 -0.375 0.953125q0 0.8125 0.609375 1.25q0.625 0.421875 2.328125 0.765625q1.125 0.234375 2.15625 0.453125q1.03125 0.21875 2.21875 0.609375q2.34375 0.765625 3.453125 2.09375q1.109375 1.3125 1.109375 3.40625zm9.189453 -3.578125l-5.109375 0l0 -5.375l5.109375 0l0 5.375zm0 9.984375l-5.109375 0l0 -5.375l5.109375 0l0 5.375z" fill-rule="nonzero"/><path fill="#000000" fill-opacity="0.0" d="m39.572178 73.65616l130.4252 0l0 30.425194l-130.4252 0z" fill-rule="evenodd"/><path fill="#ffffff" d="m78.4541 98.18876l0 -18.125l2.390625 0l0 7.4375l9.421875 0l0 -7.4375l2.40625 0l0 18.125l-2.40625 0l0 -8.546875l-9.421875 0l0 8.546875l-2.390625 0zm16.228668 0l6.953125 -18.125l2.59375 0l7.421875 18.125l-2.734375 0l-2.125 -5.484375l-7.578125 0l-1.984375 5.484375l-2.546875 0zm5.21875 -7.4375l6.15625 0l-1.890625 -5.03125q-0.875 -2.28125 -1.296875 -3.75q-0.34375 1.734375 -0.96875 3.453125l-2.0 5.328125zm13.6905365 7.4375l0 -18.125l8.046875 0q2.421875 0 3.6875 0.484375q1.265625 0.484375 2.015625 1.71875q0.75 1.234375 0.75 2.734375q0 1.9375 -1.25 3.265625q-1.25 1.3125 -3.859375 1.671875q0.953125 0.453125 1.453125 0.90625q1.046875 0.96875 1.984375 2.40625l3.15625 4.9375l-3.015625 0l-2.40625 -3.765625q-1.046875 -1.640625 -1.734375 -2.5q-0.671875 -0.875 -1.21875 -1.21875q-0.53125 -0.34375 -1.078125 -0.484375q-0.421875 -0.078125 -1.34375 -0.078125l-2.78125 0l0 8.046875l-2.40625 0zm2.40625 -10.125l5.15625 0q1.640625 0 2.5625 -0.34375q0.9375 -0.34375 1.421875 -1.09375q0.484375 -0.75 0.484375 -1.625q0 -1.28125 -0.9375 -2.109375q-0.9375 -0.828125 -2.953125 -0.828125l-5.734375 0l0 6.0zm15.775543 10.125l0 -18.125l3.609375 0l4.296875 12.828125q0.59375 1.796875 0.859375 2.6875q0.3125 -0.984375 0.96875 -2.90625l4.34375 -12.609375l3.234375 0l0 18.125l-2.3125 0l0 -15.171875l-5.28125 15.171875l-2.15625 0l-5.25 -15.4375l0 15.4375l-2.3125 0z" fill-rule="nonzero"/><defs><linearGradient id="p.1" gradientUnits="userSpaceOnUse" gradientTransform="matrix(15.489900189285137 0.0 0.0 15.489900189285137 0.0 0.0)" spreadMethod="pad" x1="0.9867576108372933" y1="4.646580335397214" x2="16.47665780012243" y2="4.646580335397214"><stop offset="0.0" stop-color="#000000"/><stop offset="1.4E-45" stop-color="#a22c00"/><stop offset="0.12" stop-color="#ff0000"/><stop offset="0.25" stop-color="#ff9900"/><stop offset="0.38" stop-color="#ffff00"/><stop offset="0.51" stop-color="#00ff00"/><stop offset="0.64" stop-color="#00ffff"/><stop offset="0.77" stop-color="#0000ff"/><stop offset="0.9" stop-color="#9900ff"/><stop offset="1.0" stop-color="#ff00ff"/></linearGradient></defs><path fill="url(#p.1)" d="m15.284777 34.557743l239.93701 0l0 37.417324l-239.93701 0z" fill-rule="evenodd"/><path stroke="#000000" stroke-width="1.0" stroke-linejoin="round" stroke-linecap="butt" d="m15.284777 34.557743l239.93701 0l0 37.417324l-239.93701 0z" fill-rule="evenodd"/><path fill="#000000" d="m26.893702 38.122047l216.22046 0l0 30.425194l-216.22046 0z" fill-rule="evenodd"/><path stroke="#000000" stroke-width="1.0" stroke-linejoin="round" stroke-linecap="butt" d="m26.893702 38.122047l216.22046 0l0 30.425194l-216.22046 0z" fill-rule="evenodd"/><path fill="#000000" fill-opacity="0.0" d="m13.368767 34.625984l193.10236 0l0 37.41732l-193.10236 0z" fill-rule="evenodd"/><path fill="#ffffff" d="m33.50939 56.826523l2.265625 -0.1875q0.15625 1.359375 0.734375 2.234375q0.59375 0.859375 1.828125 1.40625q1.234375 0.53125 2.78125 0.53125q1.375 0 2.421875 -0.40625q1.0625 -0.40625 1.5625 -1.109375q0.515625 -0.71875 0.515625 -1.5625q0 -0.859375 -0.5 -1.484375q-0.484375 -0.640625 -1.625 -1.078125q-0.71875 -0.28125 -3.21875 -0.875q-2.5 -0.609375 -3.5 -1.140625q-1.296875 -0.671875 -1.9375 -1.671875q-0.640625 -1.015625 -0.640625 -2.265625q0 -1.375 0.78125 -2.5625q0.78125 -1.203125 2.265625 -1.8125q1.5 -0.625 3.34375 -0.625q2.015625 0 3.546875 0.65625q1.546875 0.640625 2.375 1.90625q0.828125 1.25 0.890625 2.859375l-2.3125 0.171875q-0.171875 -1.71875 -1.25 -2.59375q-1.0625 -0.890625 -3.15625 -0.890625q-2.171875 0 -3.171875 0.796875q-1.0 0.796875 -1.0 1.921875q0 0.984375 0.703125 1.609375q0.703125 0.640625 3.625 1.296875q2.921875 0.65625 4.015625 1.15625q1.578125 0.734375 2.328125 1.859375q0.765625 1.109375 0.765625 2.5625q0 1.453125 -0.84375 2.734375q-0.828125 1.28125 -2.375 2.0q-1.546875 0.703125 -3.484375 0.703125q-2.46875 0 -4.140625 -0.71875q-1.65625 -0.71875 -2.609375 -2.15625q-0.9375 -1.4375 -0.984375 -3.265625zm29.596786 -12.296875l2.40625 0l0 10.46875q0 2.734375 -0.625 4.34375q-0.609375 1.609375 -2.234375 2.625q-1.609375 1.0 -4.21875 1.0q-2.5625 0 -4.1875 -0.875q-1.609375 -0.890625 -2.3125 -2.546875q-0.6875 -1.671875 -0.6875 -4.546875l0 -10.46875l2.40625 0l0 10.453125q0 2.359375 0.4375 3.484375q0.4375 1.125 1.5 1.734375q1.078125 0.59375 2.625 0.59375q2.640625 0 3.765625 -1.1875q1.125 -1.203125 1.125 -4.625l0 -10.453125zm6.400543 18.125l0 -18.125l6.84375 0q1.796875 0 2.75 0.171875q1.34375 0.21875 2.234375 0.84375q0.90625 0.625 1.453125 1.75q0.5625 1.125 0.5625 2.46875q0 2.3125 -1.484375 3.921875q-1.46875 1.59375 -5.3125 1.59375l-4.640625 0l0 7.375l-2.40625 0zm2.40625 -9.515625l4.6875 0q2.3125 0 3.28125 -0.859375q0.984375 -0.859375 0.984375 -2.4375q0 -1.140625 -0.578125 -1.953125q-0.5625 -0.8125 -1.5 -1.0625q-0.609375 -0.15625 -2.25 -0.15625l-4.625 0l0 6.46875zm14.4874115 9.515625l0 -18.125l6.84375 0q1.796875 0 2.75 0.171875q1.34375 0.21875 2.234375 0.84375q0.90625 0.625 1.453125 1.75q0.5625 1.125 0.5625 2.46875q0 2.3125 -1.484375 3.921875q-1.46875 1.59375 -5.3125 1.59375l-4.640625 0l0 7.375l-2.40625 0zm2.40625 -9.515625l4.6875 0q2.3125 0 3.28125 -0.859375q0.984375 -0.859375 0.984375 -2.4375q0 -1.140625 -0.578125 -1.953125q-0.5625 -0.8125 -1.5 -1.0625q-0.609375 -0.15625 -2.25 -0.15625l-4.625 0l0 6.46875zm13.7530365 0.6875q0 -4.515625 2.421875 -7.0625q2.4375 -2.5625 6.265625 -2.5625q2.515625 0 4.53125 1.203125q2.015625 1.203125 3.0625 3.34375q1.0625 2.140625 1.0625 4.859375q0 2.765625 -1.109375 4.953125q-1.109375 2.171875 -3.15625 3.296875q-2.046875 1.109375 -4.40625 1.109375q-2.5625 0 -4.578125 -1.234375q-2.015625 -1.25 -3.0625 -3.375q-1.03125 -2.140625 -1.03125 -4.53125zm2.484375 0.03125q0 3.28125 1.75 5.171875q1.765625 1.875 4.421875 1.875q2.71875 0 4.46875 -1.890625q1.75 -1.90625 1.75 -5.40625q0 -2.21875 -0.75 -3.859375q-0.75 -1.65625 -2.1875 -2.5625q-1.4375 -0.921875 -3.234375 -0.921875q-2.546875 0 -4.390625 1.75q-1.828125 1.75 -1.828125 5.84375zm17.982285 8.796875l0 -18.125l8.046867 0q2.421875 0 3.6875 0.484375q1.265625 0.484375 2.015625 1.71875q0.75 1.234375 0.75 2.734375q0 1.9375 -1.25 3.265625q-1.25 1.3125 -3.859375 1.671875q0.953125 0.453125 1.453125 0.90625q1.046875 0.96875 1.984375 2.40625l3.15625 4.9375l-3.015625 0l-2.40625 -3.765625q-1.046875 -1.640625 -1.734375 -2.5q-0.671875 -0.875 -1.21875 -1.21875q-0.53125 -0.34375 -1.078125 -0.484375q-0.421875 -0.078125 -1.34375 -0.078125l-2.7812424 0l0 8.046875l-2.40625 0zm2.40625 -10.125l5.1562424 0q1.640625 0 2.5625 -0.34375q0.9375 -0.34375 1.421875 -1.09375q0.484375 -0.75 0.484375 -1.625q0 -1.28125 -0.9375 -2.109375q-0.9375 -0.828125 -2.953125 -0.828125l-5.7343674 0l0 6.0zm20.005348 10.125l0 -15.984375l-5.96875 0l0 -2.140625l14.375 0l0 2.140625l-6.0 0l0 15.984375l-2.40625 0z" fill-rule="nonzero"/><path fill="#ff0000" d="m174.32677 85.35827l47.905518 0l0 10.645668l-47.905518 0z" fill-rule="evenodd"/><path stroke="#000000" stroke-width="1.0" stroke-linejoin="round" stroke-linecap="butt" d="m174.32677 85.35827l47.905518 0l0 10.645668l-47.905518 0z" fill-rule="evenodd"/><path fill="#00ffff" d="m174.32677 48.01181l47.905518 0l0 10.645672l-47.905518 0z" fill-rule="evenodd"/><path stroke="#000000" stroke-width="1.0" stroke-linejoin="round" stroke-linecap="butt" d="m174.32677 48.01181l47.905518 0l0 10.645672l-47.905518 0z" fill-rule="evenodd"/></g></svg>