<svg version="1.1" viewBox="0.0 0.0 296.20472440944883 103.28871391076116" fill="none" stroke="none" stroke-linecap="square" stroke-miterlimit="10" xmlns:xlink="http://www.w3.org/1999/xlink" xmlns="http://www.w3.org/2000/svg"><clipPath id="p.0"><path d="m0 0l296.2047 0l0 103.28871l-296.2047 0l0 -103.28871z" clip-rule="nonzero"/></clipPath><g clip-path="url(#p.0)"><path fill="#000000" fill-opacity="0.0" d="m0 0l296.2047 0l0 103.28871l-296.2047 0z" fill-rule="evenodd"/><path fill="#000000" d="m-0.24671917 0l295.811 0l0 102.64567l-295.811 0z" fill-rule="evenodd"/><path stroke="#000000" stroke-width="1.0" stroke-linejoin="round" stroke-linecap="butt" d="m-0.24671917 0l295.811 0l0 102.64567l-295.811 0z" fill-rule="evenodd"/><path fill="#000000" fill-opacity="0.0" d="m-7.375328E-5 -0.10236221l274.4882 0l0 28.598425l-274.4882 0z" fill-rule="evenodd"/><path fill="#000000" fill-opacity="0.0" d="m-7.375328E-5 -6.7805715l230.07031 0l0 39.01953l-230.07031 0l0 -39.01953z" fill-rule="nonzero"/><path fill="#ffffff" d="m13.078052 7.9206004q-0.703125 0 -3.890625 -0.390625q-0.1875 2.5156245 -0.1875 6.6874995l-0.015625 6.140626q1.8125 -0.046875 3.703125 -0.046875q0.828125 0 1.359375 0.546875q0.546875 0.546875 0.546875 1.3125q0 0.765625 -0.546875 1.3125q-0.53125 0.53125 -1.359375 0.53125q-0.765625 0 -2.296875 0.046875q-1.53125 0.03125 -2.296875 0.03125q-0.9062505 0 -2.7187505 0.234375q-1.7968748 0.25 -2.6874998 0.25q-0.8281251 0 -1.3750001 -0.546875q-0.53124994 -0.546875 -0.53124994 -1.3125q0 -0.765625 0.53124994 -1.3125q0.546875 -0.546875 1.3750001 -0.546875q0.921875 0 2.4374998 -0.203125q-0.03125 -1.609375 -0.03125 -6.171876q0 -3.71875 0.28125 -7.0937495l-2.9687498 0.078125q-0.8125001 0 -1.3750001 -0.53125q-0.546875 -0.53125 -0.546875 -1.328125q0 -0.8125 0.546875 -1.3125q0.5 -0.46875 1.2343751 -0.53125q1.203125 -0.109375 4.1875 -0.109375q2.6875005 0 6.9062505 0.5625q1.6875 0.234375 1.6875 1.890625q0 0.875 -0.6875 1.390625q-0.5625 0.421875 -1.28125 0.421875zm23.830078 12.796875q0 0.671875 -0.21875 2.15625q-0.28125 1.765625 -2.0 1.765625q-0.953125 0 -2.15625 -1.078125q-5.265627 -4.75 -11.890627 -13.312501q-0.078125 3.5625 -0.078125 4.359375q0 1.09375 0.046875 3.265626q0.046875 2.171875 0.046875 3.25q0 4.03125 -1.96875 4.03125q-1.0 0 -1.59375 -0.609375q-0.53125 -0.546875 -0.53125 -1.328125q0 -0.546875 0.078125 -1.65625q0.09375 -1.109375 0.09375 -1.65625q0 -0.8125 0.046875 -2.421875q0.0625 -1.609376 0.0625 -2.421876q0 -0.859375 -0.046875 -2.59375q-0.03125 -1.734375 -0.03125 -2.59375q0 -0.828125 -0.171875 -2.4531245q-0.15625 -1.625 -0.15625 -2.4375q0 -0.828125 0.703125 -1.46875q0.703125 -0.640625 1.609375 -0.640625q1.0 0 2.234375 1.75q6.203125 8.859375 12.250002 14.453125q0.015625 -0.4375 0.015625 -2.078125q0 -6.750001 -0.140625 -9.09375q-0.03125 -0.40625 -0.171875 -1.484375q-0.140625 -0.953125 -0.140625 -1.5q0 -1.890625 2.0 -1.890625q2.21875 0 2.21875 6.8749995q0 0.15625 -0.015625 2.171875q-0.09375 6.937501 -0.09375 8.640626zm18.873047 -13.03125q-1.0625 0 -3.328125 -0.15625q-2.171875 -0.140625 -3.3125 -0.140625q0.046875 1.5624995 0.359375 5.5624995q0.296875 3.515626 0.296875 5.578126q0 0.453125 0.09375 1.375q0.09375 0.921875 0.09375 1.375q0 1.03125 -0.4375 1.859375q-0.5625 1.046875 -1.59375 1.046875q-0.75 0 -1.328125 -0.484375q-0.640625 -0.53125 -0.640625 -1.328125q0 -0.203125 0.0625 -0.59375q0.0625 -0.390625 0.0625 -0.59375q0 -0.625 -0.09375 -1.890625q-0.078125 -1.28125 -0.078125 -1.921875q0 -1.828126 -0.28125 -4.953126q-0.328125 -3.609375 -0.390625 -4.9687495l-0.703125 0q-3.046875 0 -4.84375 -0.4375q-1.515625 -0.375 -1.515625 -1.796875q0 -0.6875 0.484375 -1.25q0.578125 -0.671875 1.515625 -0.609375q0.46875 0.03125 2.171875 0.234375q1.34375 0.15625 2.1875 0.15625q0.828125 0 2.484375 -0.03125q1.671875 -0.03125 2.5 -0.03125q1.046875 0 3.125 0.15625q2.078125 0.140625 3.109375 0.140625q0.828125 0 1.375 0.53125q0.546875 0.53125 0.546875 1.3125q0 0.78125 -0.546875 1.328125q-0.546875 0.53125 -1.375 0.53125zm16.919918 -1.140625q-0.265625 0 -0.5625 -0.078125q-2.21875 -0.609375 -4.3125 -0.609375q-1.03125 0 -2.203125 0.171875q-1.171875 0.15625 -2.4999962 0.484375q0 1.8281245 -0.125 5.4062495q0.765625 -0.046875 5.343746 -0.5q2.609375 -0.265625 3.3125 -0.265625q0.8125 0 1.375 0.515625q0.578125 0.515625 0.578125 1.359375q0 1.625 -1.734375 1.84375q-1.09375 0.078125 -3.265625 0.28125q-1.9375 0.21875 -5.859371 0.53125q-0.09375 1.734376 -0.09375 2.796876q0 2.6875 0.3125 3.046875q0.15625 0.1875 1.7343712 0.1875q0.84375 0 2.546875 -0.046875q1.71875 -0.046875 2.5625 -0.046875q0.265625 0 0.796875 -0.078125q0.546875 -0.078125 0.796875 -0.078125q0.796875 0 1.359375 0.453125q0.640625 0.5 0.640625 1.421875q0 1.53125 -1.59375 1.828125q-1.375 0.265625 -5.671875 0.265625q-4.468746 0 -5.812496 -1.203125q-1.5 -1.328125 -1.5 -5.75q0 -1.828125 0.265625 -5.500001q0.265625 -3.671875 0.265625 -5.4843745q0 -0.484375 -0.140625 -1.421875q-0.125 -0.9375 -0.125 -1.421875q0 -2.078125 1.90625 -2.078125q0.609375 0 1.109375 0.34375q1.59375 -0.390625 3.0156212 -0.578125q1.4375 -0.203125 2.703125 -0.203125q3.453125 0 5.515625 0.78125q1.25 0.484375 1.25 1.734375q0 0.71875 -0.484375 1.265625q-0.546875 0.625 -1.40625 0.625zm17.720703 17.703125q-0.734375 0 -1.34375 -0.578125q-4.140625 -3.890625 -9.109375 -5.390625q0.15625 3.984375 0.15625 4.421875q0 0.765625 -0.546875 1.3125q-0.546875 0.546875 -1.375 0.546875q-0.8125 0 -1.359375 -0.546875q-0.546875 -0.546875 -0.546875 -1.3125q0 -1.03125 0.015625 -3.078125q0.03125 -2.046875 0.03125 -3.0625l0.03125 -11.03125q0 -0.890625 0.53125 -1.625q0.703125 -0.921875 1.921875 -0.828125q3.328125 0.25 3.40625 0.265625q1.921875 0.21875 3.25 0.90625q5.84375 2.9375 5.84375 7.2968745q0 1.78125 -1.234375 3.15625q-1.21875 1.375001 -3.65625 2.312501q3.625 2.03125 5.453125 4.140625q0.484375 0.546875 0.484375 1.21875q0 0.765625 -0.578125 1.328125q-0.578125 0.546875 -1.375 0.546875zm-8.765625 -17.203125q-0.109375 -0.015625 -1.59375 -0.109375l0 7.2499995q0.34375 0.015625 0.609375 0.015625q3.34375 0 4.953125 -0.828125q0.703125 -0.359375 1.28125 -0.9375q0.578125 -0.59375 0.578125 -0.890625q0 -1.53125 -1.9375 -2.953125q-1.84375 -1.3437495 -3.890625 -1.5468745zm28.392578 17.4375q-1.078125 -0.03125 -2.171875 -2.546875q-0.734375 -1.609375 -1.25 -3.71875q-1.015625 0.15625 -3.3125 0.3125q-2.15625 0.140625 -3.296875 0.34375q-0.640625 1.515625 -2.1875 4.53125q-0.609375 0.984375 -1.671875 0.984375q-0.75 0 -1.359375 -0.515625q-0.59375 -0.515625 -0.59375 -1.296875q0 -0.703125 1.984375 -4.734375q-0.1875 -0.421875 -0.15625 -0.796875q0.046875 -0.65625 1.328125 -1.015625q1.9375 -3.375001 4.3125 -6.984376q3.421875 -5.1718745 4.21875 -5.1718745q1.5 0 2.0 1.8125q0.28125 1.46875 0.875 4.3906245q0.828125 3.9375 2.03125 9.015626q0.09375 0.375 0.703125 1.796875q0.484375 1.171875 0.484375 1.765625q0 0.796875 -0.59375 1.328125q-0.59375 0.53125 -1.34375 0.5zm-5.109375 -14.031251q-1.0625 1.84375 -2.9375 5.0q0.625 -0.140625 1.921875 -0.21875q1.53125 -0.09375 1.921875 -0.15625q-0.328125 -1.78125 -0.90625 -4.625zm23.589844 -0.9375q-1.234375 0 -1.8125 -1.296875q-0.28125 -0.6093745 -0.546875 -0.7343745q-0.203125 -0.09375 -1.078125 -0.09375q-1.734375 0 -3.984375 2.6718745q-3.15625 3.75 -3.15625 7.015626q0 1.484375 1.0 2.5625q1.0 1.0625 2.390625 1.0625q1.34375 0 2.75 -0.71875q0.484375 -0.25 2.078125 -1.328125q1.0625 -0.71875 1.609375 -0.71875q0.8125 0 1.390625 0.609375q0.53125 0.546875 0.53125 1.28125q0 0.796875 -0.703125 1.40625q-3.765625 3.171875 -7.65625 3.171875q-3.078125 0 -5.203125 -2.25q-2.015625 -2.15625 -2.015625 -5.078125q0 -4.578126 4.0 -9.359375q3.40625 -4.046875 6.96875 -4.046875q0.59375 0 1.078125 0.046875q0.484375 0.046875 0.859375 0.125q0.59375 -0.59375 1.453125 -0.59375q1.390625 0 1.71875 1.609375q0.234375 1.140625 0.234375 2.671875q0 0.6874995 -0.40625 1.2499995q-0.515625 0.734375 -1.5 0.734375zm19.947266 -1.8281245q-1.0625 0 -3.328125 -0.15625q-2.171875 -0.140625 -3.3125 -0.140625q0.046875 1.5624995 0.359375 5.5624995q0.296875 3.515626 0.296875 5.578126q0 0.453125 0.09375 1.375q0.09375 0.921875 0.09375 1.375q0 1.03125 -0.4375 1.859375q-0.5625 1.046875 -1.59375 1.046875q-0.75 0 -1.328125 -0.484375q-0.640625 -0.53125 -0.640625 -1.328125q0 -0.203125 0.0625 -0.59375q0.0625 -0.390625 0.0625 -0.59375q0 -0.625 -0.09375 -1.890625q-0.078125 -1.28125 -0.078125 -1.921875q0 -1.828126 -0.28125 -4.953126q-0.328125 -3.609375 -0.390625 -4.9687495l-0.703125 0q-3.046875 0 -4.84375 -0.4375q-1.515625 -0.375 -1.515625 -1.796875q0 -0.6875 0.484375 -1.25q0.578125 -0.671875 1.515625 -0.609375q0.46875 0.03125 2.171875 0.234375q1.34375 0.15625 2.1875 0.15625q0.828125 0 2.484375 -0.03125q1.671875 -0.03125 2.5 -0.03125q1.046875 0 3.125 0.15625q2.078125 0.140625 3.109375 0.140625q0.828125 0 1.375 0.53125q0.546875 0.53125 0.546875 1.3125q0 0.78125 -0.546875 1.328125q-0.546875 0.53125 -1.375 0.53125zm14.841797 0.234375q-0.703125 0 -3.890625 -0.390625q-0.1875 2.5156245 -0.1875 6.6874995l-0.015625 6.140626q1.8125 -0.046875 3.703125 -0.046875q0.828125 0 1.359375 0.546875q0.546875 0.546875 0.546875 1.3125q0 0.765625 -0.546875 1.3125q-0.53125 0.53125 -1.359375 0.53125q-0.765625 0 -2.296875 0.046875q-1.53125 0.03125 -2.296875 0.03125q-0.90625 0 -2.71875 0.234375q-1.796875 0.25 -2.6875 0.25q-0.828125 0 -1.375 -0.546875q-0.53125 -0.546875 -0.53125 -1.3125q0 -0.765625 0.53125 -1.3125q0.546875 -0.546875 1.375 -0.546875q0.921875 0 2.4375 -0.203125q-0.03125 -1.609375 -0.03125 -6.171876q0 -3.71875 0.28125 -7.0937495l-2.96875 0.078125q-0.8125 0 -1.375 -0.53125q-0.546875 -0.53125 -0.546875 -1.328125q0 -0.8125 0.546875 -1.3125q0.5 -0.46875 1.234375 -0.53125q1.203125 -0.109375 4.1875 -0.109375q2.6875 0 6.90625 0.5625q1.6875 0.234375 1.6875 1.890625q0 0.875 -0.6875 1.390625q-0.5625 0.421875 -1.28125 0.421875zm12.970703 16.984375q-4.046875 0 -6.890625 -2.3125q-3.03125 -2.5 -3.03125 -6.453125q0 -4.640626 2.90625 -8.46875q3.265625 -4.3125 8.234375 -4.3125q4.765625 0 7.140625 2.1875q2.390625 2.1875 2.390625 6.5781245q0 4.656251 -2.6875 8.421876q-3.09375 4.359375 -8.0625 4.359375zm1.21875 -17.84375q-3.046875 0 -5.234375 2.9531245q-2.03125 2.765625 -2.03125 6.125001q0 2.28125 1.765625 3.703125q1.6875 1.359375 4.28125 1.359375q3.0 0 5.015625 -2.953125q1.84375 -2.687501 1.84375 -6.125001q0 -2.875 -1.28125 -3.984375q-1.234375 -1.0781245 -4.359375 -1.0781245zm31.99414 13.65625q0 0.671875 -0.21875 2.15625q-0.28125 1.765625 -2.0 1.765625q-0.953125 0 -2.15625 -1.078125q-5.265625 -4.75 -11.890625 -13.312501q-0.078125 3.5625 -0.078125 4.359375q0 1.09375 0.046875 3.265626q0.046875 2.171875 0.046875 3.25q0 4.03125 -1.96875 4.03125q-1.0 0 -1.59375 -0.609375q-0.53125 -0.546875 -0.53125 -1.328125q0 -0.546875 0.078125 -1.65625q0.09375 -1.109375 0.09375 -1.65625q0 -0.8125 0.046875 -2.421875q0.0625 -1.609376 0.0625 -2.421876q0 -0.859375 -0.046875 -2.59375q-0.03125 -1.734375 -0.03125 -2.59375q0 -0.828125 -0.171875 -2.4531245q-0.15625 -1.625 -0.15625 -2.4375q0 -0.828125 0.703125 -1.46875q0.703125 -0.640625 1.609375 -0.640625q1.0 0 2.234375 1.75q6.203125 8.859375 12.25 14.453125q0.015625 -0.4375 0.015625 -2.078125q0 -6.750001 -0.140625 -9.09375q-0.03125 -0.40625 -0.171875 -1.484375q-0.140625 -0.953125 -0.140625 -1.5q0 -1.890625 2.0 -1.890625q2.21875 0 2.21875 6.8749995q0 0.15625 -0.015625 2.171875q-0.09375 6.937501 -0.09375 8.640626zm8.966797 4.1875q-3.484375 0 -5.46875 -1.546875q-1.6875 -1.28125 -1.6875 -2.953125q0 -0.875 0.515625 -1.4375q0.53125 -0.5625 1.4375 -0.5625q1.234375 0 1.8125 1.25q0.78125 1.6875 3.515625 1.6875q2.359375 0 4.5625 -1.03125q2.28125 -1.046875 2.28125 -2.3125q0 -1.71875 -1.421875 -2.265626q-1.015625 -0.390625 -4.0625 -0.46875q-2.359375 -0.046875 -4.234375 -0.875q-2.53125 -1.140625 -2.484375 -3.265625q0.03125 -2.65625 2.828125 -4.8749995q2.8125 -2.234375 6.1875 -2.234375q1.34375 0 3.3125 0.625q2.4375 0.765625 2.4375 1.765625q0 0.703125 -0.484375 1.25q-0.546875 0.6093745 -1.40625 0.6093745q-0.640625 0 -1.921875 -0.26562452q-1.28125 -0.28125 -1.9375 -0.28125q-1.765625 0.015625 -3.34375 0.8593745q-1.640625 0.84375 -1.640625 1.84375q0 0.515625 0.5 0.859375q0.5 0.328125 1.484375 0.46875q1.75 0.09375 3.5 0.1875q3.03125 0.234375 4.796875 1.703125q1.9375 1.640625 1.9375 4.546876q0 3.53125 -4.015625 5.34375q-3.0625 1.375 -7.0 1.375z" fill-rule="nonzero"/><path fill="#010000" fill-opacity="0.0" d="m230.07024 -6.7805715l12.140625 0l0 39.01953l-12.140625 0l0 -39.01953z" fill-rule="nonzero"/><path fill="#ffffff" d="m236.27336 13.13935q-0.84375 0 -1.40625 -0.5q-0.546875 -0.515625 -0.546875 -1.296875q0 -0.140625 -0.0625 -0.453125q-0.0625 -0.328125 -0.0625 -0.484375q0 -0.765625 0.578125 -1.265625q0.59375 -0.5 1.390625 -0.5q2.0625 0 2.0625 2.703125q0 0.78125 -0.5625 1.296875q-0.546875 0.5 -1.390625 0.5zm0.21875 9.250001q-2.109375 0 -2.109375 -3.1875q0 -0.765625 0.609375 -1.296875q0.59375 -0.46875 1.375 -0.46875q2.078125 0 2.078125 3.15625q0 0.78125 -0.5625 1.296875q-0.546875 0.5 -1.390625 0.5z" fill-rule="nonzero"/><path fill="#010000" fill-opacity="0.0" d="m242.21086 -6.7805715l0 0l0 39.01953l0 0l0 -39.01953z" fill-rule="nonzero"/><path fill="#ffffff" d="m-7.375328E-5 25.89685l242.21094 0l0 2.5200005l-242.21094 0l0 -2.5200005z" fill-rule="nonzero"/><path fill="#00ffff" d="m245.34383 43.850395l47.905502 0l0 10.645668l-47.905502 0z" fill-rule="evenodd"/><path stroke="#000000" stroke-width="1.0" stroke-linejoin="round" stroke-linecap="butt" d="m245.34383 43.850395l47.905502 0l0 10.645668l-47.905502 0z" fill-rule="evenodd"/><path fill="#ff0000" d="m245.34383 81.26509l47.905502 0l0 10.645668l-47.905502 0z" fill-rule="evenodd"/><path stroke="#000000" stroke-width="1.0" stroke-linejoin="round" stroke-linecap="butt" d="m245.34383 81.26509l47.905502 0l0 10.645668l-47.905502 0z" fill-rule="evenodd"/><path fill="#000000" fill-opacity="0.0" d="m6.1417326E-5 67.879265l244.0 0l0 37.41732l-244.0 0z" fill-rule="evenodd"/><path fill="#ffffff" d="m39.515686 77.499176q-0.265625 1.0 -0.265625 1.734375q0 0.390625 -0.078125 1.1875q-0.078125 0.796875 -0.078125 1.1875q0 1.296875 -0.140625 3.859375q-0.125 2.546875 -0.125 3.84375q0 1.0 0.140625 2.984375q0.15625 1.984375 0.15625 2.984375q0 0.75 -0.53125 1.265625q-0.53125 0.53125 -1.328125 0.53125q-0.8125 0 -1.40625 -0.515625q-0.578125 -0.515625 -0.578125 -1.25q0 -1.0 -0.09375 -3.0q-0.078125 -2.0 -0.078125 -3.0q0 -0.78125 0.03125 -1.375q-2.15625 0.09375 -5.3125 0.671875q-2.625 0.46875 -5.25 0.96875q-0.03125 0.921875 -0.1875 3.109375q-0.140625 1.90625 -0.140625 3.125q0 0.75 -0.53125 1.265625q-0.53125 0.53125 -1.328125 0.53125q-0.796875 0 -1.328125 -0.53125q-0.53125 -0.515625 -0.53125 -1.265625q0 -1.375 0.234375 -4.125q0.25 -2.75 0.25 -4.140625q0 -1.75 0.078125 -5.265625q0.078125 -3.515625 0.078125 -5.265625q0 -0.75 0.53125 -1.265625q0.53125 -0.53125 1.328125 -0.53125q0.796875 0 1.328125 0.53125q0.53125 0.515625 0.53125 1.265625q0 1.03125 -0.078125 3.125q-0.0625 2.078125 -0.0625 3.125q0 0.34375 -0.109375 1.3125q-0.078125 0.890625 -0.0625 1.375l5.25 -0.984375q3.078125 -0.546875 5.3125 -0.625q0.046875 -0.921875 0.171875 -4.921875q0.03125 -1.0625 0.640625 -2.421875q0.765625 -1.6875 1.734375 -1.6875q0.734375 0 1.28125 0.484375q0.609375 0.515625 0.609375 1.296875q0 0.203125 -0.0625 0.40625zm18.083984 19.375q-1.078125 -0.03125 -2.171875 -2.546875q-0.734375 -1.609375 -1.25 -3.71875q-1.015625 0.15625 -3.3125 0.3125q-2.15625 0.140625 -3.296875 0.34375q-0.640625 1.515625 -2.1875 4.53125q-0.609375 0.984375 -1.671875 0.984375q-0.75 0 -1.359375 -0.515625q-0.59375 -0.515625 -0.59375 -1.296875q0 -0.703125 1.984375 -4.734375q-0.1875 -0.421875 -0.15625 -0.796875q0.046875 -0.65625 1.328125 -1.015625q1.9375 -3.375 4.3125 -6.984375q3.421875 -5.171875 4.21875 -5.171875q1.5 0 2.0 1.8125q0.28125 1.46875 0.875 4.390625q0.828125 3.9375 2.03125 9.015625q0.09375 0.375 0.703125 1.796875q0.484375 1.171875 0.484375 1.765625q0 0.796875 -0.59375 1.328125q-0.59375 0.53125 -1.34375 0.5zm-5.109375 -14.03125q-1.0625 1.84375 -2.9375 5.0q0.625 -0.140625 1.921875 -0.21875q1.53125 -0.09375 1.921875 -0.15625q-0.328125 -1.78125 -0.90625 -4.625zm23.886719 13.796875q-0.734375 0 -1.34375 -0.578125q-4.140625 -3.890625 -9.109375 -5.390625q0.15625 3.984375 0.15625 4.421875q0 0.765625 -0.546875 1.3125q-0.546875 0.546875 -1.375 0.546875q-0.8125 0 -1.359375 -0.546875q-0.546875 -0.546875 -0.546875 -1.3125q0 -1.03125 0.015625 -3.078125q0.03125 -2.046875 0.03125 -3.0625l0.03125 -11.03125q0 -0.890625 0.53125 -1.625q0.703125 -0.921875 1.921875 -0.828125q3.328125 0.25 3.40625 0.265625q1.921875 0.21875 3.25 0.90625q5.84375 2.9375 5.84375 7.296875q0 1.78125 -1.234375 3.15625q-1.21875 1.375 -3.65625 2.3125q3.625 2.03125 5.453125 4.140625q0.484375 0.546875 0.484375 1.21875q0 0.765625 -0.578125 1.328125q-0.578125 0.546875 -1.375 0.546875zm-8.765625 -17.203125q-0.109375 -0.015625 -1.59375 -0.109375l0 7.25q0.34375 0.015625 0.609375 0.015625q3.34375 0 4.953125 -0.828125q0.703125 -0.359375 1.28125 -0.9375q0.578125 -0.59375 0.578125 -0.890625q0 -1.53125 -1.9375 -2.953125q-1.84375 -1.34375 -3.890625 -1.546875zm18.533203 6.234375q-0.609375 2.203125 -1.71875 6.6875q-0.265625 1.53125 -0.515625 3.0625q-0.5625 1.953125 -2.0625 1.953125q-0.9375 0 -1.484375 -0.640625q-0.46875 -0.546875 -0.46875 -1.3125q0 -2.203125 0.9375 -5.390625q1.421875 -4.78125 1.53125 -5.296875q0.390625 -2.109375 0.796875 -4.203125q0.625 -2.90625 1.328125 -3.859375q0.71875 -0.96875 1.8125 -0.96875q1.25 0 1.84375 1.25q0.546875 1.1875 1.171875 4.875q0.59375 3.5625 1.796875 7.6875q1.546875 -4.0625 2.890625 -8.921875l0.765625 -3.140625q0.734375 -1.953125 2.28125 -1.953125q1.5 0 2.21875 2.265625q0.296875 0.921875 0.640625 3.421875q0.796875 5.8125 2.0 9.96875q1.21875 4.234375 1.21875 4.59375q0 0.8125 -0.640625 1.359375q-0.609375 0.5 -1.359375 0.5q-1.484375 0 -2.21875 -2.140625l-0.765625 -3.3125q-0.65625 -2.453125 -1.421875 -7.0625q-0.609375 1.828125 -2.03125 5.75l-0.828125 2.515625q-0.5 1.5 -1.046875 2.453125q-0.71875 1.265625 -2.03125 1.265625q-1.28125 0 -1.96875 -1.515625l-0.765625 -2.546875q-1.0625 -3.5 -1.90625 -7.34375z" fill-rule="nonzero"/><path fill="#000000" fill-opacity="0.0" d="m110.519684 86.58793l131.33858 0" fill-rule="evenodd"/><path stroke="#ffffff" stroke-width="3.0" stroke-linejoin="round" stroke-linecap="butt" stroke-dasharray="3.0,9.0" d="m110.519684 86.58793l131.33858 0" fill-rule="evenodd"/><defs><linearGradient id="p.1" gradientUnits="userSpaceOnUse" gradientTransform="matrix(15.489900189285137 0.0 0.0 15.489900189285137 0.0 0.0)" spreadMethod="pad" x1="0.12369417977354238" y1="4.382332289702913" x2="15.61359436905868" y2="4.382332289702913"><stop offset="0.0" stop-color="#000000"/><stop offset="0.09" stop-color="#a22c00"/><stop offset="0.19" stop-color="#ff0000"/><stop offset="0.3" stop-color="#ff9900"/><stop offset="0.41" stop-color="#ffff00"/><stop offset="0.52" stop-color="#00ff00"/><stop offset="0.66" stop-color="#00ffff"/><stop offset="0.79" stop-color="#0000ff"/><stop offset="0.93" stop-color="#9900ff"/><stop offset="1.0" stop-color="#ff00ff"/></linearGradient></defs><path fill="url(#p.1)" d="m1.9160105 30.464567l239.937 0l0 37.41732l-239.937 0z" fill-rule="evenodd"/><path stroke="#000000" stroke-width="1.0" stroke-linejoin="round" stroke-linecap="butt" d="m1.9160105 30.464567l239.937 0l0 37.41732l-239.937 0z" fill-rule="evenodd"/><path fill="#000000" d="m14.238845 34.02887l210.3622 0l0 30.425201l-210.3622 0z" fill-rule="evenodd"/><path stroke="#000000" stroke-width="1.0" stroke-linejoin="round" stroke-linecap="butt" d="m14.238845 34.02887l210.3622 0l0 30.425201l-210.3622 0z" fill-rule="evenodd"/><path fill="#000000" fill-opacity="0.0" d="m0 30.532808l193.10236 0l0 37.417328l-193.10236 0z" fill-rule="evenodd"/><path fill="#ffffff" d="m26.8125 59.949596q-3.484375 0 -5.46875 -1.546875q-1.6875 -1.28125 -1.6875 -2.953125q0 -0.875 0.515625 -1.4375q0.53125 -0.5625 1.4375 -0.5625q1.234375 0 1.8125 1.25q0.78125 1.6875 3.515625 1.6875q2.359375 0 4.5625 -1.03125q2.28125 -1.046875 2.28125 -2.3125q0 -1.71875 -1.421875 -2.265625q-1.015625 -0.390625 -4.0625 -0.46875q-2.359375 -0.046875 -4.234375 -0.875q-2.53125 -1.140625 -2.484375 -3.265625q0.03125 -2.65625 2.828125 -4.875q2.8125 -2.234375 6.1875 -2.234375q1.34375 0 3.3125 0.625q2.4375 0.765625 2.4375 1.765625q0 0.703125 -0.484375 1.25q-0.546875 0.609375 -1.40625 0.609375q-0.640625 0 -1.921875 -0.265625q-1.28125 -0.28125 -1.9375 -0.28125q-1.765625 0.015625 -3.34375 0.859375q-1.640625 0.84375 -1.640625 1.84375q0 0.515625 0.5 0.859375q0.5 0.328125 1.484375 0.46875q1.75 0.09375 3.5 0.1875q3.03125 0.234375 4.796875 1.703125q1.9375 1.640625 1.9375 4.546875q0 3.53125 -4.015625 5.34375q-3.0625 1.375 -7.0 1.375zm27.382812 -3.1875q-1.0 1.34375 -2.40625 2.25q-1.71875 1.09375 -3.546875 1.09375q-3.484375 0 -5.171875 -1.34375q-3.59375 -2.828125 -3.59375 -9.828125q0 -0.671875 0.0625 -2.0q0.078125 -1.328125 0.078125 -1.984375q0 -0.546875 0.03125 -1.59375q0.03125 -1.0625 0.03125 -1.59375q0 -1.09375 0.390625 -2.0625q0.53125 -1.296875 1.484375 -1.296875q0.75 0 1.328125 0.5q0.625 0.515625 0.625 1.34375q0 0.765625 -0.015625 2.359375q-0.015625 1.578125 -0.015625 2.359375q0 0.65625 -0.078125 1.984375q-0.0625 1.328125 -0.0625 1.984375q0 2.125 0.5 3.9375q0.5625 2.171875 1.671875 3.03125q0.578125 0.453125 2.734375 0.484375q3.609375 0.046875 4.875 -6.15625q0.65625 -3.203125 0.65625 -9.015625q0 -0.765625 0.453125 -1.484375q0.609375 -0.9375 1.75 -0.9375q0.921875 0 1.390625 0.6875q0.359375 0.5 0.359375 1.109375q0 5.40625 -0.515625 8.421875q-0.765625 4.671875 -3.015625 7.75zm10.490234 -5.265625q-0.21875 0 -1.140625 -0.09375q-0.078125 1.90625 -0.078125 6.28125q0 0.71875 -0.515625 1.25q-0.5 0.515625 -1.28125 0.515625q-0.78125 0 -1.296875 -0.515625q-0.5 -0.53125 -0.5 -1.25l0 -3.8125q0 -2.125 0.265625 -6.28125q0.265625 -4.21875 0.28125 -6.296875q0 -3.5625 1.984375 -3.40625q0.46875 -0.125 1.28125 -0.1875q0.828125 -0.0625 2.0 -0.0625q2.6875 0 5.03125 1.734375q2.609375 1.953125 2.609375 4.734375q0 3.5 -2.765625 5.5625q-2.46875 1.828125 -5.875 1.828125zm0.6875 -10.328125q-0.4375 0 -0.78125 0.015625q-0.328125 0 -0.5625 0.03125q0 0.640625 0 1.921875q-0.03125 1.515625 -0.265625 4.734375q0.703125 0.109375 0.921875 0.109375q2.140625 0 3.546875 -1.015625q1.5 -1.078125 1.5 -2.859375q0 -1.15625 -1.40625 -2.0625q-1.34375 -0.875 -2.953125 -0.875zm14.228516 10.328125q-0.21875 0 -1.140625 -0.09375q-0.078125 1.90625 -0.078125 6.28125q0 0.71875 -0.515625 1.25q-0.5 0.515625 -1.28125 0.515625q-0.78125 0 -1.296875 -0.515625q-0.5 -0.53125 -0.5 -1.25l0 -3.8125q0 -2.125 0.265625 -6.28125q0.265625 -4.21875 0.28125 -6.296875q0 -3.5625 1.984375 -3.40625q0.46875 -0.125 1.28125 -0.1875q0.828125 -0.0625 2.0 -0.0625q2.6875 0 5.03125 1.734375q2.609375 1.953125 2.609375 4.734375q0 3.5 -2.765625 5.5625q-2.46875 1.828125 -5.875 1.828125zm0.6875 -10.328125q-0.4375 0 -0.78125 0.015625q-0.328125 0 -0.5625 0.03125q0 0.640625 0 1.921875q-0.03125 1.515625 -0.265625 4.734375q0.703125 0.109375 0.921875 0.109375q2.140625 0 3.546875 -1.015625q1.5 -1.078125 1.5 -2.859375q0 -1.15625 -1.40625 -2.0625q-1.34375 -0.875 -2.953125 -0.875zm19.33789 18.78125q-4.046875 0 -6.890625 -2.3125q-3.03125 -2.5 -3.03125 -6.453125q0 -4.640625 2.90625 -8.46875q3.265625 -4.3125 8.234375 -4.3125q4.765625 0 7.140625 2.1875q2.390625 2.1875 2.390625 6.578125q0 4.65625 -2.6875 8.421875q-3.09375 4.359375 -8.0625 4.359375zm1.21875 -17.84375q-3.046875 0 -5.234375 2.953125q-2.03125 2.765625 -2.03125 6.125q0 2.28125 1.765625 3.703125q1.6875 1.359375 4.28125 1.359375q3.0 0 5.015625 -2.953125q1.84375 -2.6875 1.84375 -6.125q0 -2.875 -1.28125 -3.984375q-1.234375 -1.078125 -4.359375 -1.078125zm25.77539 17.1875q-0.734375 0 -1.34375 -0.578125q-4.140625 -3.890625 -9.109375 -5.390625q0.15625 3.984375 0.15625 4.421875q0 0.765625 -0.546875 1.3125q-0.546875 0.546875 -1.375 0.546875q-0.8125 0 -1.359375 -0.546875q-0.546875 -0.546875 -0.546875 -1.3125q0 -1.03125 0.015625 -3.078125q0.03125 -2.046875 0.03125 -3.0625l0.03125 -11.03125q0 -0.890625 0.53125 -1.625q0.703125 -0.921875 1.921875 -0.828125q3.328125 0.25 3.40625 0.265625q1.921875 0.21875 3.25 0.90625q5.84375 2.9375 5.84375 7.296875q0 1.78125 -1.234375 3.15625q-1.21875 1.375 -3.65625 2.3125q3.625 2.03125 5.453125 4.140625q0.484375 0.546875 0.484375 1.21875q0 0.765625 -0.578125 1.328125q-0.578125 0.546875 -1.375 0.546875zm-8.765625 -17.203125q-0.109375 -0.015625 -1.59375 -0.109375l0 7.25q0.34375 0.015625 0.609375 0.015625q3.34375 0 4.953125 -0.828125q0.703125 -0.359375 1.28125 -0.9375q0.578125 -0.59375 0.578125 -0.890625q0 -1.53125 -1.9375 -2.953125q-1.84375 -1.34375 -3.890625 -1.546875zm29.017578 0.640625q-1.0625 0 -3.328125 -0.15625q-2.171875 -0.140625 -3.3125 -0.140625q0.046875 1.5625 0.359375 5.5625q0.296875 3.515625 0.296875 5.578125q0 0.453125 0.09375 1.375q0.09375 0.921875 0.09375 1.375q0 1.03125 -0.4375 1.859375q-0.5625 1.046875 -1.59375 1.046875q-0.75 0 -1.328125 -0.484375q-0.640625 -0.53125 -0.640625 -1.328125q0 -0.203125 0.0625 -0.59375q0.0625 -0.390625 0.0625 -0.59375q0 -0.625 -0.09375 -1.890625q-0.078125 -1.28125 -0.078125 -1.921875q0 -1.828125 -0.28125 -4.953125q-0.328125 -3.609375 -0.390625 -4.96875l-0.703125 0q-3.046875 0 -4.84375 -0.4375q-1.515625 -0.375 -1.515625 -1.796875q0 -0.6875 0.484375 -1.25q0.578125 -0.671875 1.515625 -0.609375q0.46875 0.03125 2.171875 0.234375q1.34375 0.15625 2.1875 0.15625q0.828125 0 2.484375 -0.03125q1.671875 -0.03125 2.5 -0.03125q1.046875 0 3.125 0.15625q2.078125 0.140625 3.109375 0.140625q0.828125 0 1.375 0.53125q0.546875 0.53125 0.546875 1.3125q0 0.78125 -0.546875 1.328125q-0.546875 0.53125 -1.375 0.53125z" fill-rule="nonzero"/><path fill="#000000" fill-opacity="0.0" d="m152.12862 49.24147l72.47243 0" fill-rule="evenodd"/><path stroke="#ffffff" stroke-width="3.0" stroke-linejoin="round" stroke-linecap="butt" stroke-dasharray="3.0,9.0" d="m152.12862 49.24147l72.47243 0" fill-rule="evenodd"/></g></svg>