<svg version="1.1" viewBox="0.0 0.0 1337.0 100.0" fill="none" stroke="none" stroke-linecap="square" stroke-miterlimit="10" xmlns:xlink="http://www.w3.org/1999/xlink" xmlns="http://www.w3.org/2000/svg"><clipPath id="p.0"><path d="m0 0l1337.0 0l0 100.0l-1337.0 0l0 -100.0z" clip-rule="nonzero"/></clipPath><g clip-path="url(#p.0)"><path fill="#000000" fill-opacity="0.0" d="m0 0l1337.0 0l0 100.0l-1337.0 0z" fill-rule="evenodd"/><path fill="#000000" d="m-22.5 -16.0l1372.0 0l0 140.59842l-1372.0 0z" fill-rule="evenodd"/><path fill="#ffffff" d="m25.42456 41.96875q-5.296875 -2.125 -8.265625 -5.46875q-2.96875 -3.359375 -5.0625 -8.53125q1.46875 -3.90625 3.921875 -5.96875q2.46875 -2.078125 5.359375 -3.453125q2.890625 -1.375 6.03125 -2.1875q3.15625 -0.8125 6.5625 -1.5q0.203125 1.9375 -0.703125 -0.234375q-0.890625 -2.171875 1.921875 1.25q2.734375 -1.765625 7.5 -2.828125q4.78125 -1.078125 9.625 -0.796875q0.59375 -0.328125 1.84375 -0.390625q1.25 -0.0625 2.3125 -0.0625q1.078125 0 1.828125 -0.03125q0.765625 -0.046875 2.53125 -0.796875q1.046875 1.234375 2.0625 1.359375q1.03125 0.125 2.40625 1.09375q-0.828125 1.796875 -2.78125 1.078125q-1.953125 -0.734375 1.59375 -2.21875q2.265625 0 3.5625 0.78125q1.3125 0.78125 2.1875 1.5625q0.890625 0.78125 1.3125 1.125q0.4375 0.34375 1.5625 0.34375q1.359375 1.640625 2.5 2.515625q1.15625 0.875 2.421875 1.984375q1.265625 1.09375 2.234375 2.65625q0.96875 1.546875 0.96875 3.765625q-1.46875 -0.046875 -0.578125 -0.625q0.90625 -0.578125 1.640625 1.328125q0.125 4.46875 -1.265625 7.453125q-1.375 2.96875 -3.359375 5.328125q-1.984375 2.34375 -4.078125 4.28125q-2.078125 1.9375 -2.71875 2.765625q0 0.015625 1.40625 1.15625q1.421875 1.125 3.015625 2.328125q1.59375 1.1875 3.15625 2.65625q1.5625 1.453125 2.734375 3.421875q-0.640625 0.40625 1.125 -0.015625q0.578125 2.28125 1.078125 3.4375q0.515625 1.140625 1.0625 2.40625q0.546875 1.265625 0.71875 2.8125q0.1875 1.546875 -1.609375 1.21875q1.65625 -0.765625 1.8125 0.75q0.171875 1.5 -0.078125 2.828125q-2.4375 2.984375 -3.21875 4.0625q-0.765625 1.078125 -1.21875 1.625q-0.4375 0.546875 -0.90625 1.015625q-0.453125 0.453125 -2.015625 1.78125q-5.421875 3.28125 -11.234375 5.859375q-5.8125 2.578125 -11.3125 3.296875q-0.25 0.46875 -1.515625 1.078125q-1.25 0.609375 -2.578125 0.9375q-1.3125 0.328125 -2.671875 0.515625q-1.34375 0.203125 -3.0 0.515625q-2.1875 -0.921875 -1.6875 -1.765625q0.5 -0.828125 1.203125 -1.09375q1.46875 2.5625 -0.578125 2.671875q-2.03125 0.125 -3.703125 -0.46875q-1.65625 -0.59375 -3.25 -1.5625q-1.59375 -0.953125 -1.21875 -2.15625q0.96875 0.703125 0.03125 1.9375q-0.921875 1.234375 -2.71875 2.140625q-2.0 -0.296875 -2.21875 -0.5625q-0.203125 -0.265625 -0.9375 1.125q-2.46875 -1.234375 -3.0 -1.828125q-0.515625 -0.578125 -0.828125 -0.921875q-0.3125 -0.359375 -0.578125 -0.53125q-0.25 -0.1875 -3.046875 -1.046875q1.625 -1.765625 1.15625 -2.015625q-0.46875 -0.25 -3.359375 -0.671875q2.125 -2.09375 1.125 -2.875q-1.0 -0.78125 -1.71875 -3.109375q0.15625 -1.078125 0.203125 -1.84375q0.0625 -0.78125 0.25 -1.65625q0.203125 -0.890625 0.796875 -1.859375q0.59375 -0.96875 1.703125 -0.046875q-1.203125 0.015625 -2.546875 -2.328125q1.765625 -1.375 1.953125 -2.046875q0.1875 -0.671875 0.4375 -1.796875q0.265625 -1.125 0.78125 -2.484375q0.53125 -1.359375 2.65625 -0.828125q-1.3125 1.140625 -1.75 0.703125q-0.4375 -0.453125 -0.4375 -2.390625q1.65625 -2.75 2.1875 -4.296875q0.53125 -1.546875 0.859375 -3.09375q0.328125 -1.546875 0.734375 -3.484375q0.40625 -1.9375 1.484375 -4.53125q-0.09375 -1.6875 0.46875 -3.265625q0.5625 -1.59375 1.0625 -2.84375q0.515625 -1.25 0.734375 -2.40625q0.234375 -1.171875 0.515625 -1.125q0.921875 0.15625 0.625 0.546875q-0.296875 0.390625 -0.515625 2.265625q-2.078125 1.875 -3.671875 1.828125q-1.578125 -0.0625 -3.03125 0.453125zm41.09375 17.9375q-2.453125 -1.34375 -5.1875 -1.6875q-2.71875 -0.359375 -5.296875 0.046875q-2.5625 0.40625 -5.109375 1.1875q-2.53125 0.78125 -4.015625 1.015625q-0.828125 2.15625 -2.1875 6.140625q-1.359375 3.984375 -1.578125 4.609375q0.015625 0 2.796875 -0.921875q2.796875 -0.9375 5.46875 -2.125q2.6875 -1.203125 5.359375 -2.4375q2.671875 -1.25 4.546875 -1.953125q0.21875 -0.859375 1.53125 -1.78125q1.3125 -0.921875 2.171875 -1.484375q0.875 -0.5625 1.140625 -0.875q0.28125 -0.328125 0.359375 0.265625zm-9.15625 -29.921875q-1.625 -0.0625 -7.1875 1.140625q-5.5625 1.203125 -7.171875 1.9375q0 -0.265625 2.28125 1.109375q2.28125 1.375 2.765625 2.359375q2.625 -1.03125 5.921875 -3.734375q3.3125 -2.71875 3.390625 -2.8125z" fill-rule="nonzero"/><path fill="#ffffff" d="m154.94284 57.109375q-0.125 1.5 0.09375 2.328125q0.234375 0.8125 0.65625 1.8125q0.421875 0.984375 0.84375 2.171875q0.4375 1.171875 0.671875 2.46875q0.234375 1.671875 0.015625 3.53125q-0.21875 1.84375 -0.78125 3.578125q-0.5625 1.71875 -1.5625 3.296875q-1.0 1.5625 -2.15625 2.1875q-1.375 1.78125 -3.4375 2.8125q-2.0625 1.03125 -3.65625 2.328125q-1.46875 0.953125 -2.984375 1.28125q-1.5 0.328125 -2.5625 0.5625q-0.890625 0.484375 -2.453125 1.15625q-1.546875 0.671875 -3.234375 1.265625q-1.6875 0.578125 -3.46875 0.859375q-1.765625 0.265625 -2.71875 0.1875q-2.734375 1.0 -5.8125 1.375q-3.078125 0.375 -6.765625 -0.40625q-3.5625 0.5 -6.9375 -0.390625q-3.375 -0.890625 -5.96875 -2.8125q-2.578125 -1.921875 -4.453125 -4.546875q-1.875 -2.625 -3.140625 -5.71875q-0.875 -6.25 0.375 -11.109375q1.265625 -4.875 3.578125 -8.9375q2.328125 -4.078125 5.21875 -7.40625q2.890625 -3.34375 6.421875 -7.53125q1.0625 1.25 0.75 0.9375q-0.296875 -0.3125 -0.078125 -0.640625q0.21875 -0.328125 0.8125 -1.015625q0.609375 -0.703125 1.515625 0.15625q-0.21875 -2.03125 1.140625 -2.78125q1.375 -0.765625 2.328125 -2.453125q1.390625 -0.296875 1.75 -0.53125q0.359375 -0.234375 0.875 -0.703125q0.515625 -0.484375 1.3125 -1.078125q0.796875 -0.59375 1.46875 0.34375l-1.0625 -1.640625q2.546875 -1.125 3.203125 -1.9375q0.671875 -0.828125 2.390625 -2.96875q1.84375 -0.203125 2.34375 -0.203125q0.5 0 0.4375 0.015625q0.421875 -0.734375 1.234375 -1.609375q0.8125 -0.890625 3.3125 -2.421875q1.890625 0.953125 3.46875 1.171875q1.59375 0.21875 3.703125 2.296875q0.09375 1.046875 0.28125 1.265625q0.203125 0.203125 0.734375 0.609375q0.546875 0.40625 1.375 1.15625q0.828125 0.734375 -0.328125 2.1875q-0.40625 -0.078125 -0.546875 -1.09375q-0.140625 -1.015625 2.828125 -0.296875q0.46875 2.125 0.828125 2.53125q0.359375 0.390625 1.125 2.890625q-0.765625 1.515625 -1.09375 2.890625q-0.328125 1.375 -1.859375 1.34375q-0.578125 -0.8125 0.40625 -1.421875q0.984375 -0.625 1.390625 1.46875q0.203125 1.96875 -1.484375 1.703125q3.3125 2.71875 5.171875 6.96875q1.859375 4.25 4.484375 8.515625zm-16.0 8.3125q0.25 -0.6875 0.78125 -1.265625q0.53125 -0.578125 0.515625 -0.53125q-0.3125 -0.515625 -0.484375 -1.234375q-0.15625 -0.71875 -0.15625 -1.28125q-1.875 -2.65625 -3.453125 -6.125q-1.5625 -3.484375 -1.65625 -7.015625q1.40625 1.234375 0.015625 2.359375q-1.375 1.109375 -1.5625 -1.40625q1.40625 1.15625 0.28125 1.9375q-1.125 0.78125 -2.234375 0.703125q-1.109375 -0.09375 -2.03125 -0.4375q-0.921875 -0.359375 -0.359375 -1.578125q-1.5625 2.875 -4.296875 4.953125q-2.734375 2.078125 -5.125 5.09375q-1.734375 0.828125 -1.84375 -0.125q-0.09375 -0.953125 0.375 -0.3125q0.109375 1.9375 -1.078125 3.546875q-1.1875 1.59375 -2.203125 3.0625q-1.0 1.46875 -1.671875 2.96875q-0.65625 1.484375 -0.6875 2.390625q0.390625 0.328125 2.234375 0.578125q1.84375 0.234375 4.0625 0.0625q2.234375 -0.1875 4.5625 -0.625q2.34375 -0.453125 4.25 -0.453125q3.59375 -0.859375 6.40625 -2.40625q2.828125 -1.5625 5.359375 -2.859375z" fill-rule="nonzero"/><path fill="#ffffff" d="m223.93378 90.609375q-5.140625 -2.34375 -7.34375 -5.65625q-2.1875 -3.3125 -4.1875 -7.140625q-0.3125 -0.59375 -0.59375 -1.15625q-0.265625 -0.5625 -0.546875 -1.015625l-1.40625 -2.609375l0.703125 -0.546875l0.578125 0.65625l-1.71875 1.53125l-0.96875 0.953125q-2.578125 2.390625 -5.234375 4.75q-2.65625 2.359375 -5.71875 4.265625q-3.046875 1.90625 -6.484375 3.125q-3.421875 1.21875 -8.0 1.34375l-2.625 -1.328125q-1.9375 -1.0 -3.34375 -1.859375q-1.40625 -0.875 -3.453125 -2.921875q-0.65625 -1.21875 -1.015625 -2.015625q-0.34375 -0.796875 -0.703125 -1.5q-1.09375 -2.0 -1.8125 -3.640625q-0.71875 -1.640625 -1.625 -4.21875q0.421875 -1.90625 1.0 -5.171875q0.578125 -3.28125 1.40625 -7.203125q0.84375 -3.9375 1.78125 -7.9375q0.953125 -4.015625 1.953125 -7.0625q0.90625 -2.578125 2.046875 -5.5q1.15625 -2.921875 2.5625 -5.46875q1.421875 -2.5625 3.3125 -4.625q1.890625 -2.078125 5.640625 -2.671875q0.9375 1.296875 1.25 1.453125q0.3125 0.15625 1.296875 0.546875q1.640625 2.328125 2.84375 3.59375q1.203125 1.25 3.859375 3.3125q-0.75 3.8125 -1.703125 6.859375q-0.953125 3.03125 -1.984375 6.03125q-1.015625 3.0 -1.984375 5.8125q-0.96875 2.796875 -1.5625 4.84375q-0.546875 1.578125 -0.921875 3.53125q-0.875 3.546875 -2.734375 8.328125q-0.6875 -1.125 0.484375 -1.953125q1.1875 -0.84375 2.421875 -1.875q1.375 -1.109375 2.765625 -2.5q1.78125 -1.78125 2.984375 -3.265625q1.203125 -1.484375 2.28125 -3.078125q1.078125 -1.59375 2.234375 -3.578125q1.171875 -1.984375 2.84375 -4.75q1.46875 -2.34375 3.078125 -5.015625q1.609375 -2.6875 3.25 -5.234375q1.65625 -2.546875 3.296875 -4.703125q1.640625 -2.15625 4.6875 -4.96875q2.0 2.515625 2.984375 3.21875q0.984375 0.703125 2.734375 1.34375q0.921875 1.40625 1.421875 2.09375q0.515625 0.6875 1.015625 1.296875q0.65625 0.953125 1.1875 1.75q0.546875 0.796875 1.484375 2.265625q-0.234375 1.484375 -0.4375 2.578125q-0.1875 1.09375 -0.4375 2.390625q-0.25 1.28125 -0.546875 2.640625q-0.296875 1.34375 -0.578125 2.5q-0.78125 3.65625 -1.171875 5.484375q-0.375 1.828125 -0.515625 2.828125q-0.140625 0.984375 -0.1875 1.65625q-0.03125 0.65625 -0.03125 1.953125q-0.078125 0.796875 0.078125 1.546875q0.078125 0.78125 0.296875 1.546875q0.234375 0.75 -0.96875 1.171875l2.421875 -3.453125q1.390625 -1.078125 2.765625 -3.078125q1.390625 -2.0 2.75 -4.765625q1.359375 -2.78125 2.703125 -6.15625q1.359375 -3.390625 2.734375 -6.90625q2.0625 -5.203125 4.21875 -10.203125q2.15625 -5.015625 5.40625 -9.40625q3.90625 2.5 5.671875 4.046875q1.765625 1.546875 3.09375 3.4375q1.34375 1.875 2.15625 4.28125q0.8125 2.40625 1.1875 6.1875q-2.0 3.921875 -3.609375 7.484375q-1.59375 3.5625 -3.03125 7.140625q-1.96875 4.734375 -4.109375 9.5q-2.125 4.75 -4.75 9.140625q-2.609375 4.375 -5.90625 8.125q-3.296875 3.75 -8.453125 6.828125q-1.640625 -0.453125 -2.140625 -0.453125q-0.828125 0 -2.328125 1.21875z" fill-rule="nonzero"/><path fill="#ffffff" d="m303.70596 50.53125q-0.53125 -2.953125 -0.328125 -5.96875q0.203125 -3.015625 0.203125 -5.6875q0 -2.515625 -0.34375 -5.453125q-0.328125 -2.9375 -0.578125 -5.734375q-0.25 -2.796875 -0.203125 -5.359375q0.0625 -2.578125 0.84375 -4.296875q1.03125 -1.953125 2.328125 -2.875q1.3125 -0.921875 3.015625 -2.625q2.640625 0.421875 4.0 1.125q1.359375 0.6875 2.328125 1.8125q0.96875 1.125 1.484375 2.46875q0.53125 1.328125 -0.40625 1.765625q2.546875 0.5625 4.265625 3.40625q1.71875 2.828125 2.609375 6.03125q0.890625 3.1875 1.234375 6.609375q0.359375 3.421875 0.609375 6.65625q0.25 3.234375 0.46875 6.0q0.234375 2.75 -0.75 2.8125q2.171875 -4.890625 5.140625 -9.71875q2.984375 -4.828125 6.046875 -9.328125q3.078125 -4.515625 6.90625 -9.171875q3.828125 -4.671875 10.515625 -11.25q2.546875 0.40625 3.34375 0.75q0.8125 0.34375 1.390625 0.59375q0.578125 0.25 1.078125 0.34375q0.5 0.078125 3.140625 -0.28125q1.078125 2.625 1.3125 3.171875q0.25 0.546875 0.453125 1.0625q0.21875 0.515625 0.515625 1.3125q0.3125 0.78125 0.78125 2.0625q0.578125 0.78125 0.5 1.875q-0.078125 1.078125 -0.15625 1.453125q-0.078125 0.375 -0.921875 0.328125q-0.828125 -0.0625 2.4375 -3.4375q-1.46875 6.234375 -2.265625 7.421875q-0.796875 1.1875 -0.671875 3.09375q-3.15625 4.1875 -6.390625 7.90625q-3.234375 3.71875 -6.421875 7.734375q-3.171875 4.0 -6.078125 8.234375q-2.890625 4.21875 -5.40625 10.1875q-1.375 -0.65625 -1.15625 -0.421875q0.234375 0.234375 0.0625 0.515625q-0.171875 0.28125 -0.71875 1.171875q-0.546875 0.875 -1.703125 -0.578125q1.25 3.25 -1.09375 6.375q-2.34375 3.109375 -4.53125 4.109375q0.765625 0.078125 0.765625 0.796875q0 0.703125 -0.109375 1.25q-0.09375 0.53125 -0.140625 0.90625q-0.03125 0.359375 0.109375 1.40625q-1.21875 3.21875 -2.90625 5.078125q-1.671875 1.859375 -3.765625 2.859375q-2.09375 1.0 -4.40625 0.796875q-2.3125 -0.1875 -4.265625 -1.53125q-1.0 -0.578125 -1.609375 -1.40625q-0.59375 -0.84375 -1.078125 -1.40625q-0.46875 -0.578125 -0.78125 -0.875q-0.296875 -0.296875 -2.421875 -0.8125q0.484375 -2.609375 0.375 -3.40625q-0.09375 -0.8125 -0.3125 -1.46875q-0.21875 -0.65625 0.125 -1.328125q0.359375 -0.6875 -1.40625 0.65625q-0.671875 -4.125 -1.296875 -6.96875q-0.625 -2.859375 -1.265625 -5.71875q-0.640625 -2.875 -1.046875 -5.734375q-0.40625 -2.875 -0.3125 -5.453125q0.046875 -0.5625 -0.4375 -1.375q-0.46875 -0.828125 -0.703125 -2.46875z" fill-rule="nonzero"/><path fill="#ffffff" d="m419.86096 79.546875q-0.609375 1.75 -1.890625 3.6875q-1.265625 1.9375 -3.0 3.453125q-1.734375 1.5 -3.90625 2.515625q-2.15625 1.03125 -4.90625 1.1875q-2.015625 -0.46875 -2.59375 -0.921875q-0.5625 -0.453125 -0.953125 -0.6875q-0.296875 -0.1875 -0.484375 -0.296875q-0.1875 -0.125 -0.25 -0.140625l-2.859375 -1.234375l0.921875 -3.0q0.265625 0.109375 0.140625 0.203125q-0.109375 0.078125 -0.828125 -0.5625q-0.34375 -0.34375 -0.703125 -0.703125q-0.359375 -0.359375 -0.59375 -0.703125l-3.828125 -4.296875l5.921875 -1.53125q1.75 -0.484375 2.125 -0.96875q0.375 -0.5 0.359375 -0.65625q0.015625 0 -1.0625 0.234375q-1.0625 0.234375 -2.375 0.609375q-1.859375 0.515625 -3.796875 0.890625q-1.9375 0.359375 -4.296875 0.359375q-0.859375 0 -1.609375 -0.046875q-0.734375 -0.0625 -1.640625 -0.171875l-2.46875 -0.5q0.53125 -2.140625 0.203125 -1.828125q-0.3125 0.3125 -0.640625 -0.015625q-0.640625 -0.640625 -1.484375 -1.921875q-0.828125 -1.296875 -0.515625 -2.65625q-0.296875 -0.546875 1.453125 -1.171875q1.546875 1.0 1.265625 2.171875l-0.859375 2.1875l-1.921875 0.09375q-0.375 -1.3125 0.09375 -1.03125q0.46875 0.28125 1.03125 0.578125l-0.734375 2.5q-0.6875 0.640625 -0.859375 0.765625q-0.15625 0.125 -0.78125 -0.703125q0.828125 0.921875 0.515625 1.875q-0.3125 0.9375 -0.625 1.75q-0.453125 1.203125 -0.734375 2.203125q-0.28125 0.984375 -0.171875 2.234375l-0.671875 1.84375q-0.953125 1.140625 -1.734375 1.59375q-0.765625 0.453125 -1.375 0.265625q0.03125 0.59375 -0.46875 0.8125q-0.5 0.21875 -1.171875 -1.265625l0.96875 2.59375l-2.46875 0.421875q-1.03125 0.171875 -1.5625 0.296875q-0.515625 0.125 -1.453125 0.125l-1.703125 -0.1875q-1.59375 -1.296875 -2.140625 -1.796875q-0.53125 -0.5 -1.46875 -1.078125q-1.421875 -1.890625 -1.5625 -2.703125q-0.140625 -0.828125 -0.203125 -1.15625q-0.21875 -0.65625 0.390625 -1.09375q0.59375 -0.453125 -0.296875 0.5l-3.015625 -2.75l2.21875 -1.84375l0.0625 -1.078125q2.125 -5.359375 4.328125 -9.984375q2.21875 -4.625 4.578125 -9.421875q0.765625 -1.546875 1.5 -3.109375q0.734375 -1.5625 2.609375 -2.265625q-1.40625 0.125 -1.40625 -0.65625q0 -0.796875 0.4375 -1.828125q1.125 -1.75 1.765625 -3.0q0.65625 -1.265625 1.328125 -2.609375q0.796875 -1.6875 1.671875 -3.34375q0.890625 -1.65625 2.578125 -3.875l2.15625 -0.953125q0.34375 -0.109375 0.890625 -0.3125q0.546875 -0.203125 1.53125 -0.203125l1.015625 0.125q1.796875 -0.828125 3.65625 -2.90625q1.875 -2.09375 3.953125 -5.21875l2.140625 -2.953125l2.875 1.78125q0.234375 0.140625 1.0 0.359375q0.765625 0.203125 1.671875 0.46875q1.78125 0.390625 3.625 0.984375q1.859375 0.578125 3.5 2.21875q0.84375 2.21875 0.9375 3.0625q0.109375 0.828125 0.296875 1.5625q0.296875 1.78125 0.5625 3.5q0.265625 1.71875 0.34375 3.625q0.4375 1.515625 0.796875 3.171875q0.359375 1.65625 0.65625 3.328125q0.46875 2.296875 0.9375 4.40625q0.46875 2.109375 0.03125 3.515625q0.53125 -0.921875 0.234375 0.71875q-0.140625 -1.65625 0.515625 -1.765625q0.671875 -0.125 1.453125 -0.25l2.671875 -0.234375l1.015625 2.578125q-0.890625 0.359375 -0.390625 -0.453125q1.421875 0.09375 2.3125 0.78125q0.890625 0.671875 1.46875 1.25q0.140625 0.140625 0.15625 0.140625l3.546875 1.4375l-1.875 3.515625q-1.15625 2.078125 -3.21875 3.90625q-2.046875 1.828125 -4.5625 1.625q1.28125 -0.125 1.3125 0.3125q0.046875 0.4375 0.21875 0.953125q0.328125 1.890625 0.53125 3.78125q0.21875 1.890625 -0.03125 4.375l-0.328125 0.609375zm-30.390625 -19.78125q3.03125 -0.21875 5.34375 -0.453125q2.328125 -0.234375 3.0625 -0.375q-0.1875 -0.828125 -0.96875 -3.96875q-0.78125 -3.15625 0.1875 -5.59375l1.25 1.015625q-2.015625 2.109375 -3.75 4.546875q-1.734375 2.4375 -3.0 4.65625q-0.609375 0.921875 -1.171875 1.78125q-0.5625 0.84375 -2.296875 0.265625q-0.125 -1.796875 0.390625 -1.796875q0.53125 0 0.953125 -0.078125z" fill-rule="nonzero"/><path fill="#ffffff" d="m460.62924 87.84375q-2.71875 0.875 -6.09375 1.796875q-3.375 0.921875 -6.890625 0.921875q-5.640625 0 -9.40625 -3.234375q-0.53125 -1.15625 -0.78125 -1.40625q-0.4375 -0.609375 -0.828125 -1.265625q-0.375 -0.671875 -0.4375 -1.25q-1.0 -1.171875 -1.796875 -3.25q-0.78125 -2.09375 -1.0625 -4.21875q-0.28125 -2.140625 -0.125 -4.296875q0.171875 -2.171875 0.78125 -4.328125q0.125 -0.25 0.140625 -0.484375q0.03125 -0.234375 0.15625 -0.859375q0.421875 -1.6875 0.921875 -3.328125q0.5 -1.65625 1.28125 -2.0q-0.734375 -0.59375 -0.171875 -2.140625q0.5625 -1.546875 1.046875 -2.421875q1.296875 -3.546875 2.21875 -6.15625q0.9375 -2.609375 1.9375 -5.15625q1.640625 -4.34375 3.078125 -8.578125q1.4375 -4.234375 2.78125 -9.953125q1.578125 -0.984375 2.203125 -1.296875q0.796875 -0.25 2.0 -0.59375q2.359375 1.203125 4.46875 1.953125q2.109375 0.734375 3.90625 0.734375q1.578125 0.984375 1.84375 1.328125q0.28125 0.328125 0.46875 0.515625q1.25 1.453125 2.25 3.171875q1.015625 1.703125 0.5625 5.03125q-1.484375 2.21875 -2.59375 0.5q1.203125 2.234375 0.640625 3.6875q-0.5625 1.4375 -1.1875 2.859375q-0.671875 1.4375 -1.21875 2.78125q-0.53125 1.328125 -0.96875 3.796875q-0.5 0.625 -0.59375 0.875q-0.09375 0.25 -0.296875 0.75q-0.203125 0.546875 -0.578125 1.328125q-0.375 0.78125 -1.078125 0.65625q0.28125 2.265625 -0.40625 3.984375q-0.6875 1.703125 -1.390625 3.265625q-1.125 2.734375 -2.0 5.40625q-0.859375 2.671875 -2.765625 5.375q-0.296875 -1.765625 0.359375 -1.765625q0.65625 0 1.046875 0q1.140625 0 1.78125 0.15625q2.59375 -1.375 6.296875 -1.6875q3.703125 -0.3125 7.21875 -0.421875q1.390625 0 2.671875 0q1.28125 0 3.0 -0.265625q1.21875 0.65625 1.203125 0.65625q0 0 0.28125 0q0.921875 0 2.15625 0.28125q1.34375 1.21875 2.21875 1.625q0.890625 0.390625 1.984375 0.75q1.140625 0.421875 2.328125 0.9375q1.1875 0.5 3.0 1.953125l0.734375 4.46875q1.0625 1.359375 0.359375 2.34375q0.328125 1.328125 -1.015625 1.203125l1.5 2.390625q-3.046875 0.578125 -3.328125 0.78125q-0.28125 0.203125 -1.140625 1.09375q-1.640625 0.203125 -2.046875 0.203125q-0.40625 0 -0.6875 0q-1.125 0 -3.40625 0.5625q-2.890625 -0.953125 -5.390625 -0.953125q-1.0 0 -2.125 0.09375q-1.125 0.09375 -2.203125 0.1875q-1.1875 0.1875 -2.484375 0.296875q-1.296875 0.109375 -2.390625 0.109375l-1.9375 0.5z" fill-rule="nonzero"/><path fill="#ffffff" d="m523.8155 87.84375q-2.71875 0.875 -6.09375 1.796875q-3.375 0.921875 -6.890625 0.921875q-5.640625 0 -9.40625 -3.234375q-0.53125 -1.15625 -0.78125 -1.40625q-0.4375 -0.609375 -0.828125 -1.265625q-0.375 -0.671875 -0.4375 -1.25q-1.0 -1.171875 -1.796875 -3.25q-0.78125 -2.09375 -1.0625 -4.21875q-0.28125 -2.140625 -0.125 -4.296875q0.171875 -2.171875 0.78125 -4.328125q0.125 -0.25 0.140625 -0.484375q0.03125 -0.234375 0.15625 -0.859375q0.421875 -1.6875 0.921875 -3.328125q0.5 -1.65625 1.28125 -2.0q-0.734375 -0.59375 -0.171875 -2.140625q0.5625 -1.546875 1.046875 -2.421875q1.296875 -3.546875 2.21875 -6.15625q0.9375 -2.609375 1.9375 -5.15625q1.640625 -4.34375 3.078125 -8.578125q1.4375 -4.234375 2.78125 -9.953125q1.578125 -0.984375 2.203125 -1.296875q0.796875 -0.25 2.0 -0.59375q2.359375 1.203125 4.46875 1.953125q2.109375 0.734375 3.90625 0.734375q1.578125 0.984375 1.84375 1.328125q0.28125 0.328125 0.46875 0.515625q1.25 1.453125 2.25 3.171875q1.015625 1.703125 0.5625 5.03125q-1.484375 2.21875 -2.59375 0.5q1.203125 2.234375 0.640625 3.6875q-0.5625 1.4375 -1.1875 2.859375q-0.671875 1.4375 -1.21875 2.78125q-0.53125 1.328125 -0.96875 3.796875q-0.5 0.625 -0.59375 0.875q-0.09375 0.25 -0.296875 0.75q-0.203125 0.546875 -0.578125 1.328125q-0.375 0.78125 -1.078125 0.65625q0.28125 2.265625 -0.40625 3.984375q-0.6875 1.703125 -1.390625 3.265625q-1.125 2.734375 -2.0 5.40625q-0.859375 2.671875 -2.765625 5.375q-0.296875 -1.765625 0.359375 -1.765625q0.65625 0 1.046875 0q1.140625 0 1.78125 0.15625q2.59375 -1.375 6.296875 -1.6875q3.703125 -0.3125 7.21875 -0.421875q1.390625 0 2.671875 0q1.28125 0 3.0 -0.265625q1.21875 0.65625 1.203125 0.65625q0 0 0.28125 0q0.921875 0 2.15625 0.28125q1.34375 1.21875 2.21875 1.625q0.890625 0.390625 1.984375 0.75q1.140625 0.421875 2.328125 0.9375q1.1875 0.5 3.0 1.953125l0.734375 4.46875q1.0625 1.359375 0.359375 2.34375q0.328125 1.328125 -1.015625 1.203125l1.5 2.390625q-3.046875 0.578125 -3.328125 0.78125q-0.28125 0.203125 -1.140625 1.09375q-1.640625 0.203125 -2.046875 0.203125q-0.40625 0 -0.6875 0q-1.125 0 -3.40625 0.5625q-2.890625 -0.953125 -5.390625 -0.953125q-1.0 0 -2.125 0.09375q-1.125 0.09375 -2.203125 0.1875q-1.1875 0.1875 -2.484375 0.296875q-1.296875 0.109375 -2.390625 0.109375l-1.9375 0.5z" fill-rule="nonzero"/><path fill="#ffffff" d="m617.0486 30.484375q0.28125 2.140625 0.203125 2.65625q-0.0625 0.5 -0.109375 0.71875q-0.03125 0.21875 -0.03125 0.328125q0 0.09375 0.375 1.375q-2.859375 4.640625 -5.96875 6.046875q-3.09375 1.40625 -6.34375 1.96875q-3.25 0.5625 -6.328125 1.125q-3.078125 0.546875 -6.84375 2.8125q-1.390625 -0.53125 -2.28125 -0.109375q-0.875 0.421875 -2.5625 -0.09375q-0.125 0.640625 -1.265625 0.953125q-1.125 0.3125 -1.46875 -0.875q1.359375 -0.015625 1.3125 0.890625q-0.03125 0.890625 -1.09375 0.8125q2.65625 -0.6875 6.75 -1.0625q4.09375 -0.390625 9.9375 -0.546875q0.65625 3.546875 -0.34375 3.359375q-0.984375 -0.203125 -0.59375 -0.71875q1.078125 -0.40625 1.828125 0.390625q0.75 0.78125 1.328125 1.359375q0.578125 0.578125 0.90625 0.78125q0.328125 0.1875 2.03125 0.03125q1.171875 2.34375 1.390625 3.71875q0.21875 1.359375 -0.625 3.453125q-2.046875 1.421875 -3.671875 2.59375q-1.609375 1.15625 -3.484375 2.109375q-1.875 0.953125 -4.03125 1.578125q-2.15625 0.609375 -4.796875 0.5q-0.453125 0 -1.046875 0q-0.59375 0 -0.328125 -1.515625q-0.28125 1.78125 -1.703125 1.59375q-1.40625 -0.203125 -2.484375 0.46875q-1.65625 -0.734375 -3.125 -0.6875q-1.453125 0.046875 -1.6875 -0.421875q-0.4375 1.171875 -1.640625 3.390625q-1.1875 2.203125 -1.21875 2.296875q0.59375 0.09375 2.640625 0q2.0625 -0.109375 3.96875 -0.34375q1.921875 -0.234375 4.046875 -0.484375q2.140625 -0.25 4.859375 -0.171875q1.796875 -1.0 4.5625 -1.34375q2.765625 -0.359375 5.53125 -1.328125q2.015625 0.78125 2.765625 1.71875q0.765625 0.9375 1.234375 1.5q0.46875 0.546875 0.625 0.734375q0.171875 0.1875 1.171875 -0.015625q1.5 1.5 1.734375 2.34375q0.234375 0.84375 0.28125 1.140625q0.0625 0.296875 -0.453125 0.546875q-0.515625 0.25 3.140625 -1.484375q-3.25 7.140625 -5.46875 9.140625q-2.203125 1.984375 -4.9375 2.96875q-2.71875 0.984375 -5.78125 1.484375q-3.0625 0.5 -6.609375 1.171875q-1.515625 0.34375 -2.21875 0.046875q-0.6875 -0.296875 -0.8125 -0.296875q-2.109375 0.46875 -5.375 0.875q-3.25 0.40625 -6.671875 0.296875q-3.40625 -0.109375 -6.734375 -0.9375q-3.3125 -0.828125 -5.53125 -3.03125q-1.203125 -1.046875 -1.40625 -1.8125q-0.203125 -0.765625 -1.5 -1.34375q-0.171875 -2.40625 -0.453125 -3.90625q-0.28125 -1.515625 -0.59375 -3.265625q-0.296875 -1.765625 -0.46875 -3.625q-0.15625 -1.859375 0.203125 -3.515625q0.390625 -1.953125 1.171875 -2.921875q0.78125 -0.984375 0.234375 -3.484375q2.328125 0.890625 1.953125 -0.375q-0.375 -1.28125 1.34375 0.25q-0.796875 -1.609375 -0.09375 -3.234375q0.703125 -1.625 1.453125 -3.109375q0.75 -1.5 1.453125 -2.953125q0.71875 -1.46875 0.875 -1.921875q-0.6875 -0.640625 -1.453125 -2.453125q-0.75 -1.8125 -1.078125 -3.46875q-0.3125 -1.65625 -0.515625 -3.21875q-0.1875 -1.5625 -0.890625 -4.015625q1.765625 -2.609375 3.453125 -3.71875q1.6875 -1.109375 3.53125 -1.765625q1.859375 -0.65625 3.859375 -1.046875q2.015625 -0.40625 4.0625 -0.859375q3.90625 -1.28125 7.0625 -1.984375q3.171875 -0.703125 6.1875 -1.140625q3.03125 -0.453125 6.234375 -0.828125q3.203125 -0.390625 8.3125 -1.375q0.96875 1.234375 0.1875 1.921875q0.25 -2.703125 0.984375 -1.265625q0.75 1.4375 -1.921875 -8.03125q5.640625 9.65625 6.875 10.59375q1.25 0.921875 3.984375 2.0625z" fill-rule="nonzero"/><path fill="#ffffff" d="m655.7036 62.53125q-0.859375 0.734375 -1.25 1.40625q-0.390625 0.671875 -0.828125 1.453125q-0.515625 1.109375 -1.21875 2.28125q-0.6875 1.15625 -1.390625 1.765625q-0.375 1.15625 -1.0 2.203125q-0.609375 1.03125 -1.453125 1.890625q-0.953125 3.78125 -4.46875 8.25q-0.078125 0.6875 -0.640625 1.734375q-0.546875 1.03125 -1.0625 1.875q-0.171875 0.25 -0.359375 0.578125q-0.1875 0.328125 -0.875 -0.0625l0.5625 1.296875q-0.8125 1.3125 -1.5 1.984375q-0.671875 0.6875 -1.0 1.0q-0.171875 0.296875 -1.125 1.234375l-2.375 0.96875q-9.09375 -1.265625 -11.046875 -9.625l0.140625 -1.609375q0.265625 -0.65625 0.40625 -1.171875q0.140625 -0.53125 0.34375 -1.109375q0.40625 -1.40625 1.03125 -3.03125q0.625 -1.625 1.640625 -2.625q0.09375 -0.296875 0.8125 -1.90625q0.734375 -1.625 2.4375 -4.765625q1.390625 -2.359375 2.171875 -3.734375q0.796875 -1.375 1.3125 -1.09375q-0.828125 -0.21875 -2.265625 -1.546875q-1.484375 -2.84375 -2.453125 -5.1875q-0.96875 -2.359375 -1.546875 -4.421875q-0.09375 -1.328125 -0.28125 -2.140625q-0.171875 -0.8125 -0.359375 -1.734375q-0.3125 -1.09375 -0.53125 -2.3125q-0.21875 -1.21875 -0.21875 -1.90625q-0.390625 -0.546875 -0.609375 -2.09375l0.296875 -1.546875q0.140625 -0.3125 0 -1.078125q-0.125 -0.78125 -0.421875 -1.9375q-0.1875 -1.03125 -0.46875 -2.34375q-0.265625 -1.3125 -0.140625 -2.84375q0.125 -1.53125 0.890625 -2.984375q0.765625 -1.46875 2.96875 -2.828125l2.765625 -0.15625q1.40625 0.765625 2.265625 1.21875q0.859375 0.453125 1.578125 0.921875q0.984375 0.4375 2.046875 0.96875q1.078125 0.53125 2.703125 1.71875l0.71875 1.4375l1.671875 1.4375l0 1.734375q0.109375 0.390625 0.109375 1.359375q-1.109375 0.78125 0.078125 0.296875l0.703125 2.09375q0 1.46875 0.25 2.5625q0.265625 1.078125 0.546875 2.109375q0.3125 1.09375 0.640625 2.484375q0.34375 1.375 -1.53125 2.25q-1.078125 -1.390625 -0.890625 -1.578125q0.4375 -0.40625 0.71875 -0.34375q0.28125 0.046875 -0.078125 -0.09375l5.125 -6.9375l-0.25 -1.21875l2.875 -2.71875q0.796875 -0.796875 1.4375 -1.390625q0.640625 -0.609375 1.203125 -1.5l1.0625 -0.765625q3.390625 -5.3125 10.09375 -6.671875l3.1875 -0.4375l0.890625 2.90625q0.15625 0.421875 1.0625 1.078125q0.921875 0.65625 2.25 1.421875l1.40625 0.9375q0.953125 1.90625 0.953125 2.765625q0 0.859375 -0.84375 0.90625l1.28125 1.0q-1.1875 3.546875 -2.53125 4.84375q-1.34375 1.28125 -2.453125 2.171875q-0.84375 0.765625 -1.390625 1.234375q-0.546875 0.46875 -0.890625 1.328125l-1.15625 1.296875q-1.625 0.9375 -1.953125 2.046875l-0.671875 2.703125l-2.796875 0q0 -1.84375 0.453125 -1.0q0.46875 0.828125 -0.140625 2.046875q-0.875 1.21875 -1.234375 1.59375q-0.359375 0.375 -1.1875 -0.4375q1.0625 0.5625 0.875 0.96875q-0.171875 0.40625 -0.5 1.265625q-1.3125 1.328125 -1.546875 1.8125q-0.21875 0.484375 -0.625 1.28125q-0.375 0.765625 -0.796875 1.65625q-0.40625 0.890625 -1.109375 1.578125l-0.5 1.53125z" fill-rule="nonzero"/><path fill="#ffffff" d="m708.9641 79.0625q0 -2.0 -0.21875 -3.09375q-0.21875 -1.109375 -0.484375 -2.25q-0.265625 -1.140625 -0.375 -2.546875q-0.109375 -1.421875 0.203125 -2.71875q-0.09375 -0.28125 -0.390625 -1.109375q-0.296875 -0.84375 -0.703125 -2.109375q0.21875 -5.171875 1.90625 -9.015625q1.6875 -3.859375 4.0625 -7.0q2.390625 -3.140625 5.078125 -5.6875q2.6875 -2.546875 6.609375 -6.296875q0.375 2.484375 0.203125 1.453125q-0.15625 -1.046875 1.15625 0.765625q-1.421875 -0.59375 -0.78125 -1.75q0.640625 -1.171875 1.578125 -2.109375q0.9375 -0.9375 2.234375 -1.65625q1.296875 -0.71875 1.859375 0.296875q0.015625 -2.046875 2.234375 -3.609375q2.21875 -1.578125 4.1875 -2.890625q1.984375 -1.3125 3.328125 -2.65625q1.34375 -1.359375 1.921875 -4.890625l1.765625 1.03125q-1.328125 -0.125 -1.1875 -2.75q0.140625 -2.625 1.75 -4.375q1.625 -1.765625 4.265625 -2.171875q2.640625 -0.40625 5.5 1.03125q-0.375 0.34375 -0.21875 -0.25q0.15625 -0.59375 2.515625 -1.09375q5.34375 2.328125 9.0625 5.328125q3.71875 2.984375 7.65625 7.96875q-1.3125 1.9375 -1.703125 2.171875q-0.390625 0.234375 -0.671875 -0.140625q-0.265625 -0.390625 -0.484375 -0.640625q-0.203125 -0.265625 0.953125 -1.25q3.59375 4.5625 6.296875 9.421875q2.71875 4.859375 5.109375 10.5q0.546875 4.46875 0.34375 8.59375q-0.203125 4.125 -1.171875 8.921875q-0.96875 2.0625 -2.078125 3.59375q-1.109375 1.53125 -2.328125 2.890625q-1.203125 1.359375 -2.328125 2.625q-1.109375 1.265625 -1.390625 1.671875l1.4375 3.390625q-0.09375 0.78125 0.1875 1.453125q0.296875 0.671875 0.703125 1.671875q0.421875 0.984375 0.78125 2.3125q0.375 1.328125 -0.6875 1.703125q-0.671875 -0.40625 -0.1875 0.390625q0.40625 0.828125 0.328125 0.65625q-0.0625 -0.1875 2.609375 -2.046875q-0.734375 4.296875 -1.5625 5.921875q-0.8125 1.625 -2.09375 3.078125q-1.28125 1.453125 -3.1875 2.5q-1.90625 1.046875 -4.78125 1.046875q-2.640625 -1.3125 -3.859375 -2.375q-1.21875 -1.0625 -3.140625 -2.75l-2.96875 -6.984375q-5.359375 2.4375 -13.65625 4.484375q-8.28125 2.046875 -17.921875 2.5625q-5.453125 -1.53125 -9.78125 -4.046875q-4.328125 -2.53125 -7.484375 -7.171875zm28.59375 -24.890625q-4.203125 3.421875 -7.515625 7.90625q-3.296875 4.46875 -5.828125 8.5q0.046875 -1.015625 1.1875 -0.9375q1.140625 0.078125 1.84375 0.28125q5.0625 -1.421875 10.90625 -2.8125q5.859375 -1.40625 8.53125 -2.46875q-0.453125 -0.546875 -2.53125 -3.1875q-2.078125 -2.640625 -3.78125 -6.296875q0.671875 -1.34375 0.90625 -2.125q0.25 -0.78125 0.765625 -1.8125q0.53125 -1.046875 1.65625 -2.015625q1.140625 -0.984375 3.46875 -0.984375q1.796875 0.703125 4.09375 0.796875q2.3125 0.09375 4.859375 0.59375q2.578125 1.828125 4.140625 3.96875q1.578125 2.125 1.65625 2.234375q0.265625 -0.234375 1.65625 -2.359375q1.40625 -2.140625 1.9375 -4.203125q-0.34375 -0.890625 -1.1875 -2.75q-0.828125 -1.875 -1.859375 -3.5625q-1.03125 -1.703125 -2.171875 -2.890625q-1.140625 -1.1875 -2.234375 -1.515625q0.28125 -0.984375 0.265625 0.09375q0 1.078125 -1.59375 0.546875q-4.453125 3.265625 -9.65625 6.875q-5.1875 3.59375 -9.515625 8.125z" fill-rule="nonzero"/><path fill="#ffffff" d="m793.93164 31.984375q-0.0625 -0.40625 -0.265625 -0.921875q-0.1875 -0.53125 -0.484375 -1.28125q-0.515625 -1.25 -0.96875 -2.8125q-0.4375 -1.5625 -0.4375 -3.9375q0.328125 -1.578125 0.78125 -2.265625q0.453125 -0.703125 1.046875 -0.40625l0.046875 -3.09375l3.265625 0q0.78125 0.09375 1.546875 0.09375q0.765625 0 1.546875 0q3.625 0 7.484375 -0.28125q3.859375 -0.296875 7.90625 -0.671875q4.515625 -0.609375 8.625 -0.703125q-0.109375 -0.078125 0.046875 -0.390625q0.15625 -0.3125 0.625 -1.296875l2.09375 -1.109375q3.453125 -0.171875 4.71875 0.765625q1.28125 0.921875 0.96875 1.515625q1.6875 -0.734375 4.28125 -1.078125q2.609375 -0.34375 5.46875 -0.734375q3.921875 -0.484375 7.984375 -0.984375q4.0625 -0.5 8.0 -0.5q1.734375 0 3.265625 0.109375q1.546875 0.109375 3.5 0.375l1.953125 1.453125q0.46875 0.828125 0.90625 1.265625q0.4375 0.4375 1.125 0.953125q1.65625 1.328125 3.40625 3.515625q1.765625 2.1875 1.25 6.8125l-0.796875 1.609375q-0.796875 0.796875 -1.265625 1.109375l-1.375 1.796875l-2.109375 0q-0.65625 0 -0.953125 0.09375q-0.28125 0.078125 -0.828125 0.3125q-0.484375 0.234375 -1.046875 0.40625q-0.546875 0.171875 -1.53125 0.484375q-1.390625 -0.125 -1.9375 -0.125q-0.53125 0 -1.3125 0q-2.8125 0 -6.15625 0.390625q-3.34375 0.375 -6.5625 0.859375q-2.375 0.296875 -4.53125 0.546875q-2.15625 0.234375 -2.65625 0.296875q-0.53125 1.375 -1.328125 3.359375q-0.796875 1.96875 -1.6875 3.953125q-0.84375 1.90625 -1.609375 3.84375q-0.75 1.9375 -1.5 4.59375q-1.265625 1.90625 -1.96875 3.359375q-0.703125 1.453125 -1.25 3.78125q-1.53125 1.71875 -2.109375 3.484375q-0.5625 1.765625 -1.03125 3.078125l-0.515625 1.921875q-0.765625 0.765625 -0.890625 1.109375q-0.125 0.328125 -0.421875 0.703125q-0.234375 0.984375 -0.78125 2.28125q-0.15625 0.453125 -0.875 0.640625q-0.71875 0.171875 0.609375 0.296875q-0.375 2.015625 -0.796875 2.390625q0.140625 0.171875 0.03125 0.84375q-0.109375 0.65625 -0.21875 1.390625q-0.203125 0.6875 -0.359375 0.890625q-0.140625 0.203125 -0.046875 -0.15625q0.125 0.171875 0.515625 0.703125q0.390625 0.515625 -0.265625 1.46875q-0.1875 -0.1875 0.359375 -0.484375q0.546875 -0.3125 1.03125 0.171875q0.265625 0.234375 1.125 0.34375l1.859375 2.21875q0.828125 5.03125 -1.421875 7.6875q-2.359375 3.015625 -7.546875 3.015625l-2.234375 -0.15625q-1.40625 -1.4375 -0.328125 -2.359375q-1.21875 0.984375 -2.0625 0.625q-0.84375 -0.34375 -1.578125 -1.375q0.96875 -0.734375 0.390625 -0.21875q-0.578125 0.515625 -0.359375 -0.65625q-1.265625 0.65625 -2.0625 0.140625l-2.1875 -1.21875q0.21875 -2.21875 1.09375 -2.125q-1.4375 -0.5 -1.953125 -1.96875q-0.5 -1.484375 -0.8125 -2.90625q-0.28125 -1.03125 -0.484375 -1.71875q-0.1875 -0.703125 -0.828125 -1.609375q-0.234375 -7.828125 1.296875 -12.65625q1.546875 -4.84375 3.328125 -9.328125q0.96875 -2.3125 1.8125 -4.6875q0.859375 -2.375 1.671875 -5.375l1.515625 -1.5q0.953125 -0.84375 1.953125 0.609375q-1.734375 -1.4375 -1.171875 -2.875q0.578125 -1.453125 1.203125 -2.796875q0.390625 -0.765625 0.65625 -1.390625q0.28125 -0.640625 1.8125 -0.140625q-0.015625 1.59375 -0.484375 1.640625q-0.453125 0.03125 -0.875 0.109375q-1.4375 0.328125 -2.84375 0.328125q-1.140625 0 -1.140625 -1.0q-0.359375 1.265625 -1.28125 1.328125q-0.921875 0.0625 -1.6875 0.0625l-1.171875 0l-1.171875 0q-0.75 0 -1.4375 0.296875q-1.78125 0 -2.171875 0q-0.390625 0 -0.875 0l-1.171875 0l-1.171875 0q-0.9375 0 -2.171875 -0.1875q-1.234375 -0.1875 -2.96875 -1.140625l-1.078125 -1.21875q0.390625 -1.265625 0.15625 -0.359375l-2.65625 -0.703125l0 -2.53125z" fill-rule="nonzero"/><path fill="#ffffff" d="m900.5515 43.203125q0.421875 -2.109375 0.46875 -2.59375q0.0625 -0.484375 -0.8125 -1.6875q0.625 -2.53125 0.8125 -3.21875q0.203125 -0.6875 -0.015625 -2.328125q1.21875 -3.46875 3.28125 -5.484375q2.078125 -2.015625 4.421875 -3.34375q2.34375 -1.328125 4.8125 -2.203125q2.46875 -0.890625 4.625 0.125q0.125 0.390625 -1.640625 1.234375q-1.75 0.84375 0.09375 -3.5625q6.21875 -1.15625 11.5 -2.984375q5.28125 -1.84375 10.984375 -3.34375q5.71875 -1.515625 11.859375 -1.875q6.140625 -0.359375 13.96875 1.90625q0.65625 1.953125 1.25 2.90625q0.609375 0.9375 1.34375 1.984375q0.75 1.03125 1.484375 2.25q0.734375 1.21875 0.796875 1.96875q0.796875 0.71875 1.828125 2.453125q1.03125 1.71875 0.15625 5.328125q-1.71875 1.25 -2.953125 2.078125q-1.234375 0.8125 -3.296875 1.921875q-4.859375 -1.1875 -9.0625 -0.90625q-4.203125 0.28125 -8.71875 0.78125q-1.140625 -1.25 -2.015625 -1.21875q-0.875 0.03125 -2.375 0.4375q-1.484375 0.40625 -3.25 0.90625q-1.765625 0.5 -2.59375 0.375q-0.78125 0.703125 -2.875 1.125q-2.09375 0.40625 -3.765625 -0.828125q0.1875 -0.5 1.265625 -0.546875q1.09375 -0.046875 -0.25 1.15625q0.609375 -0.703125 1.421875 -0.46875q0.828125 0.234375 2.15625 0.5625q1.34375 0.328125 2.84375 1.140625q1.515625 0.8125 1.28125 1.828125q1.140625 -0.390625 2.78125 0.6875q1.65625 1.078125 2.765625 2.546875q1.109375 1.46875 1.609375 3.171875q0.5 1.6875 0.40625 2.640625q-1.21875 0.078125 -0.75 -0.765625q0.484375 -0.859375 2.375 1.375q0.375 1.421875 1.75 2.984375q1.375 1.5625 2.421875 4.046875q0.21875 3.296875 0.375 5.890625q0.171875 2.59375 -1.0 5.265625q-1.78125 4.609375 -5.125 8.265625q-3.34375 3.65625 -7.484375 6.375q-4.140625 2.703125 -8.671875 4.671875q-4.53125 1.953125 -9.53125 3.4375q-0.484375 -0.5 -2.671875 0.09375q-2.171875 0.609375 1.046875 -2.21875q0.5 2.109375 -1.03125 2.359375q-1.515625 0.265625 -2.953125 0.21875q-1.4375 -0.046875 -2.65625 -0.140625q-1.21875 -0.09375 -3.296875 0.234375q-1.609375 -1.609375 -2.390625 -2.5625q-0.78125 -0.953125 0 -2.3125q-2.0625 0.828125 -1.140625 -0.328125q0.921875 -1.171875 -1.15625 0.46875q0 -2.984375 0.203125 -3.375q0.21875 -0.40625 0.515625 -1.046875q1.546875 0.90625 1.40625 1.125q-0.140625 0.203125 -0.640625 0.640625q-0.5 0.4375 -1.359375 -0.25q-0.84375 -0.6875 -0.265625 -2.5625q0.28125 -0.46875 0.171875 -1.359375q-0.109375 -0.90625 -0.234375 -2.375q-0.109375 -1.46875 0.34375 -3.171875q0.453125 -1.71875 3.140625 -3.25q4.34375 0.421875 7.640625 -0.296875q3.3125 -0.734375 6.34375 -2.03125q3.03125 -1.3125 5.890625 -2.921875q2.859375 -1.609375 4.828125 -2.578125q0.1875 -0.59375 1.0 -1.46875q0.828125 -0.890625 1.46875 -1.5q0.65625 -0.609375 1.0625 -1.109375q0.40625 -0.515625 0.578125 -1.140625q0.90625 0.25 0.6875 0.578125q-0.21875 0.328125 -0.375 0.375q-0.15625 0.046875 -0.703125 -0.5q-0.546875 -0.546875 1.109375 -1.484375q-0.5625 1.5625 -0.5625 1.03125q0 -0.53125 -0.5 0.453125q-2.8125 -1.421875 -5.671875 -2.296875q-2.84375 -0.890625 -3.875 -1.453125q-0.96875 0.640625 -2.578125 0.109375q-1.609375 -0.546875 -2.984375 -0.875q-4.03125 -0.171875 -7.875 -0.78125q-3.84375 -0.625 -8.375 -2.578125q-0.390625 -1.203125 -0.125 -1.203125q0.28125 -0.015625 -1.0 0.703125q-1.359375 -2.0 -2.125 -2.859375q-0.765625 -0.875 -1.84375 -2.828125z" fill-rule="nonzero"/><path fill="#ffffff" d="m1024.519 42.03125q-2.3125 0 -5.078125 0.328125q-2.75 0.328125 -5.453125 0.71875q-1.984375 0.296875 -3.84375 0.5q-1.859375 0.203125 -1.9375 0.203125q-0.28125 0.890625 -1.0 2.625q-0.71875 1.71875 -1.515625 3.328125q-0.734375 1.5625 -1.34375 3.203125q-0.609375 1.625 -1.25 3.78125q-1.0625 1.703125 -1.625 2.875q-0.5625 1.171875 -1.0 3.0625q-1.25 1.5625 -1.765625 2.96875q-0.515625 1.390625 -0.796875 2.53125l-0.5625 1.703125q-0.5625 0.5625 -0.6875 1.0q-0.125 0.4375 -1.296875 0.03125q0.921875 1.125 0.1875 2.453125q-0.09375 0.21875 -0.3125 0.453125q-0.203125 0.234375 0.109375 0.234375q0 2.125 -1.765625 1.625q1.40625 0.109375 1.28125 0.84375q-0.125 0.734375 -0.234375 1.296875q-0.21875 0.84375 -0.46875 0.671875q0.171875 -0.15625 0.5625 0.328125q0.390625 0.484375 -0.390625 1.15625q0.4375 -0.78125 0.796875 -0.671875q0.53125 0.40625 1.484375 0.875l1.546875 1.71875q0.734375 4.359375 -1.203125 6.734375q-2.09375 2.640625 -6.609375 2.640625l-2.03125 0q-1.421875 -1.421875 -0.265625 -2.328125q-1.0 1.109375 -1.796875 0.78125q-0.78125 -0.3125 -1.21875 -0.9375q-0.765625 -0.359375 -1.609375 -0.78125l-2.0 -1.09375q0 -2.3125 1.796875 -2.3125q-2.265625 -0.015625 -2.6875 -1.3125q-0.40625 -1.296875 -0.625 -2.484375q-0.171875 -0.75 -0.359375 -1.34375q-0.171875 -0.609375 -0.734375 -1.4375q-0.234375 -6.609375 1.09375 -10.703125q1.34375 -4.109375 2.734375 -7.78125q0.78125 -1.96875 1.546875 -3.921875q0.765625 -1.953125 1.453125 -4.453125l0.984375 -1.109375q0.546875 -1.25 0.984375 -2.265625q0.4375 -1.03125 0.9375 -2.125q0.265625 -0.609375 0.5 -1.234375q0.234375 -0.640625 1.84375 0q0.03125 1.71875 -0.34375 1.765625q-0.359375 0.03125 -0.796875 0.125q-0.703125 0.109375 -1.28125 0.171875q-0.578125 0.046875 -1.15625 0.046875q-1.03125 0 -0.921875 -1.359375q-0.671875 1.75 -2.390625 1.75l-0.984375 0q-0.5 0 -0.734375 -0.109375q-0.234375 -0.109375 -0.234375 0.015625q-0.484375 0 -1.0625 0.296875q-1.671875 0 -2.75 0l-0.984375 0q-0.03125 0 -0.328125 0.046875q-0.296875 0.046875 -0.640625 0.046875q-0.890625 0 -1.9375 -0.1875q-1.03125 -0.203125 -2.578125 -1.0625q-0.4375 -2.171875 -1.390625 -1.421875l-1.609375 -2.15625q-0.171875 -0.90625 -0.359375 -1.390625q-0.171875 -0.5 -0.34375 -1.140625q-0.390625 -0.96875 -0.796875 -2.28125q-0.390625 -1.3125 -0.390625 -3.3125q0.171875 -1.46875 0.625 -2.046875q0.453125 -0.59375 0.6875 -0.359375l0.265625 -2.984375l3.015625 0.21875l2.65625 0q3.046875 0 6.21875 -0.234375q3.1875 -0.25 6.59375 -0.53125q1.9375 -0.1875 3.9375 -0.375q2.0 -0.203125 3.234375 0.125q-0.375 -0.234375 0.34375 -1.6875l1.984375 -0.96875q2.921875 -0.1875 4.015625 0.625q1.109375 0.8125 0.796875 1.34375q1.390625 -0.71875 3.53125 -0.953125q2.15625 -0.25 4.375 -0.625q3.359375 -0.515625 6.8125 -0.90625q3.453125 -0.40625 6.703125 -0.40625q1.4375 0 2.796875 0.109375q1.375 0.109375 2.984375 0.390625l1.796875 1.25q0.359375 0.71875 0.71875 1.0625q0.375 0.328125 0.96875 0.8125q1.34375 1.234375 2.828125 3.109375q1.484375 1.859375 1.046875 6.03125q-1.390625 2.078125 -2.015625 2.0625l-1.078125 1.921875l-2.046875 -0.1875q-0.171875 0 -0.484375 0.09375q-0.3125 0.09375 -0.609375 0.203125q-0.40625 0.21875 -0.9375 0.421875q-0.515625 0.1875 -1.375 0.359375q-1.171875 0 -1.71875 -0.046875q-0.53125 -0.046875 -1.03125 -0.046875z" fill-rule="nonzero"/><path fill="#ffffff" d="m1085.8342 57.109375q-0.125 1.5 0.09375 2.328125q0.234375 0.8125 0.65625 1.8125q0.421875 0.984375 0.84375 2.171875q0.4375 1.171875 0.671875 2.46875q0.234375 1.671875 0.015625 3.53125q-0.21875 1.84375 -0.78125 3.578125q-0.5625 1.71875 -1.5625 3.296875q-1.0 1.5625 -2.15625 2.1875q-1.375 1.78125 -3.4375 2.8125q-2.0625 1.03125 -3.65625 2.328125q-1.46875 0.953125 -2.984375 1.28125q-1.5 0.328125 -2.5625 0.5625q-0.890625 0.484375 -2.453125 1.15625q-1.546875 0.671875 -3.234375 1.265625q-1.6875 0.578125 -3.46875 0.859375q-1.765625 0.265625 -2.71875 0.1875q-2.734375 1.0 -5.8125 1.375q-3.078125 0.375 -6.765625 -0.40625q-3.5625 0.5 -6.9375 -0.390625q-3.375 -0.890625 -5.96875 -2.8125q-2.578125 -1.921875 -4.453125 -4.546875q-1.875 -2.625 -3.140625 -5.71875q-0.875 -6.25 0.375 -11.109375q1.265625 -4.875 3.578125 -8.9375q2.328125 -4.078125 5.21875 -7.40625q2.890625 -3.34375 6.421875 -7.53125q1.0625 1.25 0.75 0.9375q-0.296875 -0.3125 -0.078125 -0.640625q0.21875 -0.328125 0.8125 -1.015625q0.609375 -0.703125 1.515625 0.15625q-0.21875 -2.03125 1.140625 -2.78125q1.375 -0.765625 2.328125 -2.453125q1.390625 -0.296875 1.75 -0.53125q0.359375 -0.234375 0.875 -0.703125q0.515625 -0.484375 1.3125 -1.078125q0.796875 -0.59375 1.46875 0.34375l-1.0625 -1.640625q2.546875 -1.125 3.203125 -1.9375q0.671875 -0.828125 2.390625 -2.96875q1.84375 -0.203125 2.34375 -0.203125q0.5 0 0.4375 0.015625q0.421875 -0.734375 1.234375 -1.609375q0.8125 -0.890625 3.3125 -2.421875q1.890625 0.953125 3.46875 1.171875q1.59375 0.21875 3.703125 2.296875q0.09375 1.046875 0.28125 1.265625q0.203125 0.203125 0.734375 0.609375q0.546875 0.40625 1.375 1.15625q0.828125 0.734375 -0.328125 2.1875q-0.40625 -0.078125 -0.546875 -1.09375q-0.140625 -1.015625 2.828125 -0.296875q0.46875 2.125 0.828125 2.53125q0.359375 0.390625 1.125 2.890625q-0.765625 1.515625 -1.09375 2.890625q-0.328125 1.375 -1.859375 1.34375q-0.578125 -0.8125 0.40625 -1.421875q0.984375 -0.625 1.390625 1.46875q0.203125 1.96875 -1.484375 1.703125q3.3125 2.71875 5.171875 6.96875q1.859375 4.25 4.484375 8.515625zm-16.0 8.3125q0.25 -0.6875 0.78125 -1.265625q0.53125 -0.578125 0.515625 -0.53125q-0.3125 -0.515625 -0.484375 -1.234375q-0.15625 -0.71875 -0.15625 -1.28125q-1.875 -2.65625 -3.453125 -6.125q-1.5625 -3.484375 -1.65625 -7.015625q1.40625 1.234375 0.015625 2.359375q-1.375 1.109375 -1.5625 -1.40625q1.40625 1.15625 0.28125 1.9375q-1.125 0.78125 -2.234375 0.703125q-1.109375 -0.09375 -2.03125 -0.4375q-0.921875 -0.359375 -0.359375 -1.578125q-1.5625 2.875 -4.296875 4.953125q-2.734375 2.078125 -5.125 5.09375q-1.734375 0.828125 -1.84375 -0.125q-0.09375 -0.953125 0.375 -0.3125q0.109375 1.9375 -1.078125 3.546875q-1.1875 1.59375 -2.203125 3.0625q-1.0 1.46875 -1.671875 2.96875q-0.65625 1.484375 -0.6875 2.390625q0.390625 0.328125 2.234375 0.578125q1.84375 0.234375 4.0625 0.0625q2.234375 -0.1875 4.5625 -0.625q2.34375 -0.453125 4.25 -0.453125q3.59375 -0.859375 6.40625 -2.40625q2.828125 -1.5625 5.359375 -2.859375z" fill-rule="nonzero"/><path fill="#ffffff" d="m1116.0752 79.5625q0.078125 1.78125 -0.84375 3.96875q-0.90625 2.1875 -3.484375 5.546875q-1.4375 -0.234375 -1.625 -0.046875q-0.1875 0.1875 -1.265625 0.921875q-1.984375 0.421875 -2.8125 0q-0.8125 -0.40625 -1.125 -0.65625q-0.3125 -0.25 -0.4375 -0.3125q-0.109375 -0.078125 -2.0625 -0.078125q-0.578125 -2.25 -0.25 -2.515625q0.328125 -0.265625 -2.75 1.140625q0.921875 -3.515625 0.875 -3.75q-0.046875 -0.234375 -0.203125 -0.65625q-0.140625 -0.4375 -0.296875 -1.1875q-0.15625 -0.75 1.6875 -0.984375q-1.375 1.703125 -1.921875 0.4375q-0.53125 -1.265625 -1.21875 -2.484375q0.40625 -2.5 0.71875 -4.140625q0.3125 -1.640625 0.75 -3.015625q0.4375 -1.375 0.65625 -2.375q0.21875 -1.015625 -2.96875 -8.890625q5.0 5.921875 4.265625 5.5q-0.734375 -0.4375 -0.671875 -0.953125q0.078125 -0.515625 0.078125 -1.0625q0 -0.546875 -0.203125 -1.421875q1.171875 -3.0 1.78125 -5.59375q0.609375 -2.609375 1.140625 -5.234375q0.546875 -2.640625 1.15625 -5.296875q0.609375 -2.65625 2.109375 -5.96875q2.671875 -0.5 4.6875 0.171875q2.015625 0.671875 1.015625 2.109375q0.78125 -2.484375 2.65625 -5.15625q1.875 -2.671875 4.015625 -5.421875q2.140625 -2.75 4.953125 -5.0625q2.8125 -2.328125 8.0625 -2.875q2.546875 1.90625 5.09375 3.515625q2.546875 1.609375 4.046875 3.984375q0.484375 0.234375 1.046875 0.703125q0.578125 0.453125 2.234375 1.484375l0 1.421875q0.765625 0.703125 1.609375 2.34375q0.859375 1.625 1.46875 3.3125q0.609375 1.671875 1.171875 3.21875q0.5625 1.546875 1.734375 3.71875q-0.421875 1.03125 -0.421875 0.984375q0 -0.0625 0.09375 0.203125q0.109375 0.265625 0.28125 0.921875q0.171875 0.640625 0 1.671875q-0.3125 4.9375 -3.203125 8.0q-2.875 3.046875 -6.640625 4.875q-3.765625 1.828125 -7.796875 3.0q-4.03125 1.171875 -7.359375 0.984375q-0.203125 -0.390625 1.203125 -1.234375q1.40625 -0.84375 -0.390625 1.359375q2.640625 0.078125 3.953125 0.921875q1.328125 0.84375 2.421875 1.375q1.09375 0.515625 2.390625 0.9375q1.3125 0.40625 3.78125 0.953125q2.546875 0.609375 3.9375 0.9375q1.40625 0.328125 2.515625 0.578125q1.109375 0.234375 2.28125 0.375q1.171875 0.125 4.109375 0.390625q1.65625 1.625 2.4375 3.140625q0.796875 1.515625 1.03125 3.03125q0.25 1.515625 0.109375 3.09375q-0.140625 1.578125 -2.09375 1.546875q-0.28125 -0.234375 -0.015625 -1.125q0.265625 -0.90625 5.703125 0.390625q-4.25 2.796875 -4.53125 3.21875q-0.265625 0.40625 -0.734375 1.09375q-0.46875 0.703125 -1.296875 1.4375q-0.8125 0.75 -2.078125 0.90625q-3.390625 1.3125 -8.375 0.1875q-4.96875 -1.109375 -12.140625 -3.90625q-3.578125 -1.390625 -5.875 -2.453125q-2.28125 -1.078125 -4.015625 -2.171875q-1.734375 -1.109375 -3.125 -2.34375q-1.375 -1.234375 -1.03125 -1.640625zm13.96875 -33.84375q-0.3125 0.453125 -1.6875 1.78125q-1.359375 1.328125 -2.5 2.546875q-1.125 1.21875 -1.953125 2.578125q-0.828125 1.359375 -1.21875 0.90625q0.9375 -0.578125 4.515625 -2.03125q3.578125 -1.46875 5.421875 -2.21875q-0.09375 -0.796875 -1.40625 -2.203125q-1.296875 -1.40625 -1.171875 -1.359375z" fill-rule="nonzero"/><path fill="#ffffff" d="m1186.2458 79.71875q0.59375 3.625 -0.53125 5.875q-1.125 2.234375 -3.140625 3.34375q-2.0 1.109375 -4.296875 1.21875q-2.296875 0.125 -5.125 -0.328125q-1.640625 -2.3125 -2.484375 -4.515625q-0.84375 -2.21875 -1.546875 -4.46875q-0.6875 -2.25 -1.234375 -4.4375q-0.546875 -2.1875 -1.09375 -4.5q0.625 -1.515625 0.75 -2.828125q0.125 -1.328125 0.171875 -2.859375q0.046875 -1.53125 0.09375 -3.1875q0.0625 -1.671875 0.265625 -3.265625q0.734375 -4.328125 2.046875 -8.046875q1.328125 -3.71875 2.09375 -7.609375q0.046875 -0.234375 -0.3125 -1.046875q-0.359375 -0.828125 0.03125 -2.1875q0.375 -1.53125 1.375 -1.15625q1.0 0.359375 -0.21875 0.046875q0.1875 -0.65625 0.015625 -1.453125q-0.171875 -0.796875 0.6875 -2.5q0.46875 -0.765625 1.046875 -1.953125q0.59375 -1.203125 0.328125 -3.515625q1.75 -1.1875 2.5 -1.9375q0.765625 -0.765625 1.734375 -1.5q0.96875 -0.75 2.296875 -1.390625q1.34375 -0.640625 4.28125 -0.640625q1.71875 2.15625 2.0 3.578125q0.296875 1.40625 0.515625 2.453125q0.234375 1.046875 0.515625 1.640625q0.28125 0.59375 1.953125 1.4375q0 2.0625 0 3.1875q0 1.125 0.078125 2.0625q0.09375 0.9375 0.109375 1.40625q0.03125 0.453125 2.0625 0.9375q-2.46875 6.578125 -3.953125 11.09375q-1.484375 4.515625 -2.4375 9.015625q-0.953125 4.5 -1.1875 8.984375q-0.21875 4.484375 0.609375 9.046875z" fill-rule="nonzero"/><path fill="#ffffff" d="m1261.7993 30.484375q0.28125 2.140625 0.203125 2.65625q-0.0625 0.5 -0.109375 0.71875q-0.03125 0.21875 -0.03125 0.328125q0 0.09375 0.375 1.375q-2.859375 4.640625 -5.96875 6.046875q-3.09375 1.40625 -6.34375 1.96875q-3.25 0.5625 -6.328125 1.125q-3.078125 0.546875 -6.84375 2.8125q-1.390625 -0.53125 -2.28125 -0.109375q-0.875 0.421875 -2.5625 -0.09375q-0.125 0.640625 -1.265625 0.953125q-1.125 0.3125 -1.46875 -0.875q1.359375 -0.015625 1.3125 0.890625q-0.03125 0.890625 -1.09375 0.8125q2.65625 -0.6875 6.75 -1.0625q4.09375 -0.390625 9.9375 -0.546875q0.65625 3.546875 -0.34375 3.359375q-0.984375 -0.203125 -0.59375 -0.71875q1.078125 -0.40625 1.828125 0.390625q0.75 0.78125 1.328125 1.359375q0.578125 0.578125 0.90625 0.78125q0.328125 0.1875 2.03125 0.03125q1.171875 2.34375 1.390625 3.71875q0.21875 1.359375 -0.625 3.453125q-2.046875 1.421875 -3.671875 2.59375q-1.609375 1.15625 -3.484375 2.109375q-1.875 0.953125 -4.03125 1.578125q-2.15625 0.609375 -4.796875 0.5q-0.453125 0 -1.046875 0q-0.59375 0 -0.328125 -1.515625q-0.28125 1.78125 -1.703125 1.59375q-1.40625 -0.203125 -2.484375 0.46875q-1.65625 -0.734375 -3.125 -0.6875q-1.453125 0.046875 -1.6875 -0.421875q-0.4375 1.171875 -1.640625 3.390625q-1.1875 2.203125 -1.21875 2.296875q0.59375 0.09375 2.640625 0q2.0625 -0.109375 3.96875 -0.34375q1.921875 -0.234375 4.046875 -0.484375q2.140625 -0.25 4.859375 -0.171875q1.796875 -1.0 4.5625 -1.34375q2.765625 -0.359375 5.53125 -1.328125q2.015625 0.78125 2.765625 1.71875q0.765625 0.9375 1.234375 1.5q0.46875 0.546875 0.625 0.734375q0.171875 0.1875 1.171875 -0.015625q1.5 1.5 1.734375 2.34375q0.234375 0.84375 0.28125 1.140625q0.0625 0.296875 -0.453125 0.546875q-0.515625 0.25 3.140625 -1.484375q-3.25 7.140625 -5.46875 9.140625q-2.203125 1.984375 -4.9375 2.96875q-2.71875 0.984375 -5.78125 1.484375q-3.0625 0.5 -6.609375 1.171875q-1.515625 0.34375 -2.21875 0.046875q-0.6875 -0.296875 -0.8125 -0.296875q-2.109375 0.46875 -5.375 0.875q-3.25 0.40625 -6.671875 0.296875q-3.40625 -0.109375 -6.734375 -0.9375q-3.3125 -0.828125 -5.53125 -3.03125q-1.203125 -1.046875 -1.40625 -1.8125q-0.203125 -0.765625 -1.5 -1.34375q-0.171875 -2.40625 -0.453125 -3.90625q-0.28125 -1.515625 -0.59375 -3.265625q-0.296875 -1.765625 -0.46875 -3.625q-0.15625 -1.859375 0.203125 -3.515625q0.390625 -1.953125 1.171875 -2.921875q0.78125 -0.984375 0.234375 -3.484375q2.328125 0.890625 1.953125 -0.375q-0.375 -1.28125 1.34375 0.25q-0.796875 -1.609375 -0.09375 -3.234375q0.703125 -1.625 1.453125 -3.109375q0.75 -1.5 1.453125 -2.953125q0.71875 -1.46875 0.875 -1.921875q-0.6875 -0.640625 -1.453125 -2.453125q-0.75 -1.8125 -1.078125 -3.46875q-0.3125 -1.65625 -0.515625 -3.21875q-0.1875 -1.5625 -0.890625 -4.015625q1.765625 -2.609375 3.453125 -3.71875q1.6875 -1.109375 3.53125 -1.765625q1.859375 -0.65625 3.859375 -1.046875q2.015625 -0.40625 4.0625 -0.859375q3.90625 -1.28125 7.0625 -1.984375q3.171875 -0.703125 6.1875 -1.140625q3.03125 -0.453125 6.234375 -0.828125q3.203125 -0.390625 8.3125 -1.375q0.96875 1.234375 0.1875 1.921875q0.25 -2.703125 0.984375 -1.265625q0.75 1.4375 -1.921875 -8.03125q5.640625 9.65625 6.875 10.59375q1.25 0.921875 3.984375 2.0625z" fill-rule="nonzero"/><path fill="#ffffff" d="m1266.845 42.796875q1.0 -3.015625 2.796875 -4.734375q1.796875 -1.734375 3.796875 -2.875q2.0 -1.15625 4.0625 -1.875q2.078125 -0.71875 3.765625 -1.1875q3.84375 -1.640625 8.359375 -3.171875q4.53125 -1.546875 9.296875 -2.75q4.78125 -1.203125 9.9375 -1.5625q5.15625 -0.359375 11.984375 1.625q0.515625 1.75 1.0 2.484375q0.484375 0.734375 1.140625 1.640625q0.671875 0.890625 1.28125 1.96875q0.625 1.078125 0.6875 1.59375q0.640625 0.5625 1.5 2.09375q0.875 1.515625 0.140625 4.6875q-1.609375 1.28125 -2.640625 1.984375q-1.03125 0.703125 -2.921875 1.5625q-3.984375 -0.96875 -7.53125 -0.6875q-3.546875 0.28125 -7.4375 0.546875q-0.9375 -0.9375 -1.578125 -0.9375q-0.640625 0 -1.8125 0.359375q-1.171875 0.34375 -2.734375 0.796875q-1.546875 0.453125 -2.265625 0.328125q-0.65625 0.53125 -2.375 0.828125q-1.71875 0.296875 -3.09375 -0.9375q0.078125 -0.5 1.296875 -0.671875q1.21875 -0.171875 -0.578125 1.140625q0.78125 -0.9375 1.40625 -0.734375q0.625 0.1875 1.75 0.515625q1.140625 0.328125 2.390625 1.03125q1.25 0.6875 0.828125 1.6875q1.046875 -0.6875 2.546875 0.265625q1.5 0.953125 2.390625 2.234375q0.90625 1.28125 1.34375 2.71875q0.4375 1.421875 0.4375 2.25q-1.234375 0.09375 -0.8125 -0.609375q0.421875 -0.71875 2.1875 0.984375q0.296875 1.34375 1.390625 2.59375q1.109375 1.234375 2.078125 3.421875q0.234375 2.8125 0.328125 4.96875q0.109375 2.140625 -0.84375 4.53125q-1.609375 3.953125 -4.40625 7.03125q-2.796875 3.0625 -6.265625 5.390625q-3.453125 2.3125 -7.3125 3.9375q-3.84375 1.609375 -8.0 2.890625q-0.453125 -0.515625 -2.453125 0.15625q-2.0 0.6875 1.0625 -2.28125q0.53125 2.078125 -0.796875 2.359375q-1.3125 0.28125 -2.53125 0.21875q-1.21875 -0.046875 -2.234375 -0.140625q-1.0 -0.078125 -2.796875 0.265625q-1.5 -1.53125 -2.203125 -2.359375q-0.703125 -0.828125 0.375 -2.171875q-2.28125 1.421875 -1.296875 0.078125q1.0 -1.34375 -2.6875 0.375q3.609375 -3.125 3.609375 -2.96875q0.015625 0.15625 -0.484375 0.703125q-0.484375 0.53125 -1.375 -0.140625q-0.890625 -0.6875 -0.28125 -2.515625q0.1875 -0.390625 0.125 -1.125q-0.0625 -0.734375 -0.1875 -1.984375q-0.125 -1.25 0.28125 -2.84375q0.421875 -1.609375 3.0 -2.921875q3.59375 0.421875 6.296875 -0.140625q2.703125 -0.578125 5.1875 -1.6875q2.5 -1.109375 4.875 -2.46875q2.390625 -1.359375 4.0 -2.109375q0.15625 -0.4375 0.890625 -1.234375q0.734375 -0.8125 1.296875 -1.265625q0.578125 -0.46875 0.828125 -0.78125q0.265625 -0.328125 0.34375 -0.65625q1.25 0.25 0.21875 0.578125q-1.03125 0.3125 0.28125 -1.171875l-1.109375 1.0625q-1.90625 -1.109375 -4.234375 -1.828125q-2.3125 -0.734375 -3.171875 -1.171875q-0.859375 0.46875 -2.15625 0.0625q-1.296875 -0.40625 -2.5 -0.65625q-3.28125 -0.1875 -6.546875 -0.703125q-3.265625 -0.515625 -7.125 -2.25q-0.390625 -1.0 -0.015625 -1.21875q0.375 -0.21875 -0.78125 0.9375q-1.359375 -1.859375 -1.984375 -2.640625q-0.625 -0.78125 -1.578125 -2.453125q0.3125 -1.84375 0.34375 -2.1875q0.046875 -0.34375 -0.78125 -1.3125q0.71875 -2.3125 0.84375 -2.859375q0.140625 -0.546875 -0.0625 -1.90625z" fill-rule="nonzero"/><path fill="#000000" fill-opacity="0.0" d="m0 0l1337.0079 0l0 100.0l-1337.0079 0z" fill-rule="evenodd"/><path stroke="#000000" stroke-width="1.0" stroke-linejoin="round" stroke-linecap="butt" d="m0 0l1337.0079 0l0 100.0l-1337.0079 0z" fill-rule="evenodd"/></g></svg>